<?xml version="1.0" encoding="UTF-8"?><svg id="a" xmlns="http://www.w3.org/2000/svg" viewBox="0 0 1019.4 991.04"><g id="b"><path id="c" d="M180.1,250.96c68.3-67.9,178.8-76.6,266.9-48.9,43.1,13.5,80.3,33.1,118.4,62.1,26.1,20.3,26.7,18.6,42.3,19,40.7,1.1,78.6-25.8,119.2-22.7,26.4,2,88.5-3.5,131.4,11.4,40.1,14,60.8,54.7,58.1,93.5-3.5,78.5-60.7,143.2-104.5,204.7-24.1,33.8-113.3,80.1-139.3,112.3-20.2,25.1-33.4,63-6.8,89.1,35.4,34.6,46.3-42,88-24.5,103.9,43.5,92,136.7,68.4,176.6-21.5,36.5-63,61-105.3,64.5-6.7.5-13.5.5-20.2,0M696.6,988.16l-428.6-.3c-9.6.3-18.6.3-27.2,0-99.4-12.2-163.3-192.5-57.2-270.4,125.6-92.2,126.6-93.7,137.3-178.4,15.5-123.2-251.3-201.2-140.8-288" fill="#9fdef9" isolation="isolate" opacity=".5" stroke="#3fbdf1" stroke-miterlimit="9.7" stroke-width="5.2"/><g id="d"><path id="e" d="M72.2,689.36c-4.4-1.6-8.1-5.1-10.3-9.5l-2-4.1v-406.4l1.7-3.2c2.3-4.4,4.8-7,9.1-9.2l3.6-1.9h288.8l4.2,2.1c4.5,2.2,7.8,6.1,9.7,11.1.8,2.2,1,39,1.4,208l.4,205.4-2.4,2.8c-1.3,1.5-3.9,3.4-5.7,4.3l-3.2,1.5h-146.2c-124.2.2-146.6.1-148.9-.8h0l-.2-.1h0Z" fill="#fff"/><g id="f"><rect id="g" x="79.8" y="584.86" width="271.8" height="77.7" rx="9" ry="9" fill="#3fbdf1"/><path id="h" d="M79.28,577.36h274.34c5.37,0,9.73,4.82,9.73,10.77v71.42c0,5.95-4.36,10.77-9.73,10.77H79.28c-5.37,0-9.73-4.82-9.73-10.77v-71.42c0-5.95,4.36-10.77,9.73-10.77Z" fill="#3fbdf1" isolation="isolate" opacity=".2"/><line id="i" x1="160.8" y1="630.26" x2="274" y2="630.26" fill="none" stroke="#fff" stroke-miterlimit="9.7" stroke-width="5.2"/><line id="j" x1="111.8" y1="610.66" x2="323.1" y2="610.66" fill="none" stroke="#fff" stroke-miterlimit="9.7" stroke-width="5.2"/></g><g id="k"><path id="l" d="M256.4,346.45c-11.49,0-24.24,7.33-25.7,18.21-2.2,16,2.5,25.3,15.4,30.5.8,4.4,1.3,5.4,2.5,9.8-34.2,30.6-27.1,93.9-27.3,135.8l4,.2.5-.2c1.5.1,3.7,0,5.2,0,.1-1.9.6-5.9-.6-7.1-.4-.4-1.2-.4-1.8-.4-.9-1-.7-5.3-.7-6.8,1-33.2-3.3-69.9,13.6-99.9,2.9-5.1,6.3-10.3,10.3-14.3,4.7,4.3,2.7,4.5,9.8,8.9.51.28.92.55,1.26.53,4.8,1.77,10.21,2.28,15.26,1.31,5.28-1.12,9.67-4.74,12.78-9.04-2.44,1.18-5.6,4.04-8.33,4.24-2.76,2.81-8.91,2.35-12.77,1.46l-.9-.2.1-.1c-8.69-4.06-14.78-12.35-17.93-21.22-1.16-3.61-.2-8.06-5.1-8.85-11.34-6.48-12.93-25.02-2.06-32.71,7.41-5.65,17.9-5.94,26.08-1.79,5.62,2.43,10.83,5.96,14.55,10.85h0l.12.15.23.25c13.34,12.75,19.87,31.24,20.26,49.47.32,14.86-5.01,30.86-17.58,39.69-8.33,5.99-20.09,9.7-29.72,4.56-5.01-2.2-6.91-7.52-8.64-12.28-.72-1.43-.66-3.28-.21-5.17-.4,1.09-.73,2.14-1,3.13-2.6,8.6-2.9,16,1.5,24,8.3,15.2,27.9,19,42.5,11,11.2-6.1,18.6-18.1,22.1-30.1,5.6-20,3.8-45.1-6.4-63.3-7.7-13.9-18.3-26.4-32.4-34-3.5-2.3-7.3-4-11.3-5.4-2.36-.83-4.95-1.21-7.6-1.21h0v.02h0Z" fill="#3fbdf1"/><path id="m" d="M188.3,447.56c3.5,13-.6,27.4-13.1,33.9-18.3,9.5-40,0-49.1-17.6-10.2-19.5-9.8-40.3-3-60.8,7.1-21.5,20.8-41.7,41.4-52.3,7-3.6,15.8-5.4,23.3-2.7,6.4,2.2,12.5,7,15.3,13.4,6.8,15.8-.9,29.4-15.3,36.3-.3-2.5-.5-4.3-1.1-6.7,5.3-3.2,9.6-7,10.9-13.3,4.7-23.4-20-33.4-37.5-20.8-16.3,11.7-25,26.4-29.2,45.9-5,23.4,5.7,52.8,31.6,57.5,5.6,1,12.8.6,17.6-2.6,3.7-2.4,6-8.7,8.1-10.3h0l.1.1h0Z" fill="#3fbdf1"/><path id="n" d="M248,445.46c-3.5,13,4.23,25.42,16.73,31.92,18.3,9.5,30.62-3.38,39.73-20.98,10.2-19.5,13.67-28.8,6.88-49.3-7.1-21.5-15.42-43.45-36.02-54.05-7-3.6-15.8-5.4-23.3-2.7-6.4,2.2-12.5,7-15.3,13.4-6.8,15.8-.83,23.47,13.57,30.37.4,2.6,2.03,10.83,1.73,13.43.6,1.4,3.95,5.46,3.65,6.06.5.9,2.11,1.49,2.81,2.19,2.5,3.2,2.67,4.5,6.27,6.5-5,7.3-12.74,11.66-15.73,20.02l-1,3.13h-.02Z" fill="#3fbdf1" isolation="isolate" opacity=".2"/><path id="o" d="M225.7,504.66l.5-.2c.3,9.7,0,20.2,0,30v43.3c0,7.2.4,18.6-.1,25.5l-.5.5h.4v.4c-.1,0-.4-.2-.4-.2-.5-2.2-.5-4.2-.5-6.4,0-21-.2-42.1.1-63.2,0-9.5-.3-20.2.4-29.6h0l.1-.1h0Z" fill="#3fbdf1"/><path id="p" d="M210.1,504.86l.8-.2c.3,8.9,0,18,.1,27,0,7.6.5,69.3-.6,72.3-.9-3.2-.5-19.8-.5-24.3v-48.6l.2-26.3h0v.1h0Z" fill="#3fbdf1"/><path id="q" d="M273.1,364.76c4.9.4,5.7,3,7,7.1-1.1,2.9-1.3,3.8-4.3,5-6.2-.6-11-8.8-2.8-12h0l.1-.1h0Z" fill="#3fbdf1"/><path id="r" d="M188.3,447.56c3.5,13-.6,27.4-13.1,33.9-18.3,9.5-40,0-49.1-17.6-10.2-19.5-9.8-40.3-3-60.8,7.1-21.5,20.8-41.7,41.4-52.3,7-3.6,15.8-5.4,23.3-2.7,6.4,2.2,12.5,7,15.3,13.4,6.8,15.8-.9,29.4-15.3,36.3-.4,2.6-.2,5.2.1,7.8-.6,1.4-1.62,1.87-1.32,2.47-.5.9-3.48,6.63-4.18,7.33-2.5,3.2-4.2,4.5-7.8,6.5,5,7.3,11.8,17.1,13.6,25.8h0l.1-.1h0Z" fill="#3fbdf1" isolation="isolate" opacity=".2"/><path id="s" d="M262.7,434.56c2.2-.8,4.6-.4,6.3,1.1,1.8,1.5,2.5,3.9,2.1,6.1s-2.1,4.1-4.3,4.8c-3.3,1-6.8-.8-7.9-4-1.1-3.3.6-6.8,3.8-8h0Z" fill="#3fbdf1"/><path id="t" d="M174.6,421.76c-9,3.2-16.4,3.1-24.7-2.3-.8-.5-.8-.8-.9-1.6.5-.4.7-.6,1.3-.3,7.4,3.3,14.4,4.4,22.2,2.1,1.88-.58,4.89-2.76,6.62-4.68.54-.59,1.61-1.72,3-4.37.91-1.74,2.33-3.43,2.95-5.76.42-1.57-.92-9.57-.37-11.07.96-2.62,1.76-2.6,1.99-2.72.21-.1.76,2.98,1.1,6.7.29,3.21.41,7.07.1,7.8-1.21,2.88-4.17,8-4,8-2.5,3.2-5.8,6.3-9.4,8.3h0l.1-.1h0Z" fill="#3fbdf1"/><path id="u" d="M163.5,363.06c10.5.8,3,14.4-3.6,16.3-8.2-.5-4.8-8.8-1.3-12.7,1.7-1.9,2.6-2.5,4.9-3.6h0Z" fill="#3fbdf1"/><path id="v" d="M144.2,394.56c6.1,1.4,5.9,8.9-.1,11.1-7.2-1.1-5.9-9.5.1-11.1Z" fill="#3fbdf1"/><path id="w" d="M187.8,405.26c5,6.4,10.1,11.4,14,18.8,16.6,31.3,13.6,81.9,13.5,116.9h-4.7l-.8.2c-1.2-.2-3.5,0-4.8,0,0-1.4-.3-6.5.4-7.4h2.4c.8-.9.5-8.5.5-10.1-.6-33,2.6-85.9-24.4-110.1-.3-.6,3.4-6.6,4-8h0l-.1-.3h0Z" fill="#3fbdf1"/></g><g id="x"><rect id="y" x="75.9" y="276.46" width="286.3" height="50.7" rx="9.5" ry="9.5" fill="#3fbdf1"/><path id="z" d="M79.24,269.95h280.45c5.5,0,9.97,5.35,9.97,11.95v39.86c0,6.6-4.46,11.95-9.97,11.95H79.24c-5.5,0-9.97-5.35-9.97-11.95v-39.86c0-6.6,4.46-11.95,9.97-11.95Z" fill="#3fbdf1" isolation="isolate" opacity=".2"/><g id="aa"><line id="ab" x1="327.3" y1="302.46" x2="348.1" y2="302.46" fill="none" isolation="isolate" stroke="#fff" stroke-linecap="round" stroke-linejoin="round" stroke-width="5.2"/><line id="ac" x1="337.7" y1="312.86" x2="337.7" y2="292.06" fill="none" isolation="isolate" stroke="#fff" stroke-linecap="round" stroke-linejoin="round" stroke-width="5.2"/></g><path id="ad" d="M143.9,292.56l-2.2,11.3-8.8-11.6h-.4l-4,20.7h4.2l2.2-11.3,8.9,11.7h.4l4-20.7h-4.2l-.1-.1h0ZM162.6,296.56l.8-4h-11.7l-3.9,20.3h11.7l.8-4h-7.6l.8-4.2h6.4l.8-4.1h-6.4l.8-4h7.6-.1ZM162.4,312.86h4.2l1.3-6.6h2.3c4.9,0,8-2.7,8.5-6.7.6-4.4-2.1-7-5.9-7h-6.5l-3.9,20.3h0ZM170.9,302.26h-2.3l1.1-5.6h2.3c1.7,0,2.9,1.1,2.6,2.9-.2,1.6-1.5,2.7-3.7,2.7h0ZM193,292.56l-1.6,8.1h-6.4l1.6-8.1h-4.2l-3.9,20.3h4.2l1.6-8.1h6.4l-1.6,8.1h4.2l3.9-20.3h-4.2ZM212.4,299.16c.7-4.3-2.5-6.6-5.7-6.6h-6l-3.9,20.3h4.2l1.8-9.5,4.3,9.5h4.6l-4-8.1c2.5-.8,4.2-2.9,4.6-5.6h.1,0ZM208.3,299.16c-.2,1.5-1.6,2.6-3.3,2.5h-1.9l1-5.1h1.9c1.4,0,2.5,1.1,2.3,2.6h0ZM221.6,313.36c5.7.3,10.7-4.1,11.6-10.4.9-5.9-2.4-10.4-7.8-10.6-5.7-.3-10.7,4.2-11.6,10.5-.8,5.9,2.4,10.3,7.8,10.6h0v-.1ZM222.4,309.26c-3.1,0-5-2.8-4.4-6.5s3.6-6.5,6.7-6.4c3,0,5,2.8,4.4,6.5-.6,3.6-3.5,6.5-6.7,6.4h0ZM250.8,313.26c2.8,0,5.4-1.1,7.4-2.9l-1.8-3.5c-1.5,1.3-3.2,2.3-5.1,2.3-3.1,0-5.2-2.9-4.5-6.7.7-3.5,3.6-6.2,6.7-6.2s3,.8,4.4,2.9l3.1-2.7c-1.3-2.6-3.8-4.1-6.6-4.3-4.5-.3-10.6,3.2-11.9,10.3-1.1,6.2,2.4,10.8,8.1,10.8h.2,0ZM273.2,312.86h4.3l-5-20.8h-.7l-13.1,20.8h4.9l1.6-2.8h7.4l.6,2.8h0ZM267.2,306.56l3.3-5.7,1.2,5.7h-4.6.1ZM295.2,299.16c.7-4.3-2.5-6.6-5.7-6.6h-6l-3.9,20.3h4.2l1.8-9.5,4.3,9.5h4.6l-4-8.1c2.5-.8,4.2-2.9,4.6-5.6h.1ZM291,299.16c-.2,1.5-1.5,2.6-3.3,2.5h-1.9l1-5.1h1.9c1.4,0,2.5,1.1,2.3,2.6h0ZM311.3,296.56l.8-4h-11.7l-3.9,20.3h11.7l.8-4h-7.5l.8-4.2h6.4l.8-4.1h-6.4l.8-4h7.5-.1,0Z" fill="#fff"/><g id="ae"><circle id="af" cx="102.4" cy="293.56" r="4.3" fill="#fff"/><path id="ag" d="M90.4,312.86c-.1-6.6,5.1-12,11.7-12.2s12,5.1,12.2,11.7v.5s-23.9,0-23.9,0Z" fill="#fff"/></g></g><path id="ah" d="M381.7,678.66l-.9-404.7c0-12.1-9.8-21.9-21.9-21.9H78.7c-12.1,0-21.8,9.8-21.9,21.9v397.8c0,12.1,9.8,21.9,21.9,21.9h280.2c11.6,0,22.8-5.1,22.8-15" fill="none" stroke="#3fbdf1" stroke-linecap="round" stroke-linejoin="round" stroke-width="5.2"/></g><g id="ai"><g id="aj"><path id="ak" d="M471.3,931.66s-37.7-5.7-62.5-13.7c-17.1-5.5-29.8-10.6-44.1-19.2l-15.5-9.2,12.7-11.4c4.2-3.8,5.5-11,9.7-15l4-9.9,16.3-3.6c43.1-9.6,86.6-13.9,119.7-11,41.3,3.6,47.2,5.5,54.7,2.2,8.3-3.7,14.4-10.6,20.8-25.9,10.6-25.6,16.8-59,17.9-105,.8-32.4,3-32,.1-32s1-4.5.1,22.8c-.8,24-4.6,67-6,68.5-.2.2-11-8.2-17.6-12.2s-21.1-10-29.2-12.7c-12.6-4.2-14.2-4.2-29.5-4.8-15.3-.5-22.4,2.1-44.6,6-47.3,8.3-65.3,10.5-90.4,11.3-19.8.7-33.7-1.8-42.5-3.7-29.2-6.5-37.1-25.8-34.4-58,1.8-21.4,5.8-18.9,3-19.4-3.6-.7-3.4,5.5-3.4,28.5s1.7,20.2,4.8,27c6.1,13.5,16.7,18.6,35.1,23.2,9.8,2.4,42.7,3.1,60.4.8,6.5-.9,22.1-1,22.3-.7.2.3-2.6,9.6-3.9,14.4-2.9,11.2-3.1,23.6-.2,35,1.3,4.9,4.4,15.2,7.2,21.2,2.8,6,10,15.7,9.4,15.7-11.2,0-79,13.9-103.6,21.7-24.1,7.6-40.5,10.1-59.5,7.8-27.5-3.4-50.3-13.6-69.9-33.3-13.5-13.6-20.6-26.7-25.9-46-2.9-10.6-4.6-16.4-4.6-45.5,0-24,2-39.5,3.9-52.1,15.5-101,50.9-152.9,135.6-194.2,19.8-9.7,62.6-24.5,64.1-23,.3.3,5.2,10.3,9,22.6,3.8,12.3,6.6,23.3,7.4,24.1.9.9,2.1-.7,8.5-3.3,5.5-2.2,16.7-6.8,17-6.5s-1,12.9-3.9,18l-2.1,9.6,22.4,49.1c23.1,50.5,20.1,49.1,22.4,49.1s14.1-12.7,34.6-35.5l37.2-41.3c1-6.8-.2-18.8,0-25.4,0-.8,6.8,4.6,11.9,8.7,6.7,5.3,10.8,9.9,11.9,8.7.9-.9,7.6-16.1,15.9-34.4,14.7-32.4,11.8-35.8,16-35.6,7.1.3,39.1,12.5,66.4,25.8,28.2,13.8,38.4,21.6,54.7,42.1,25.9,32.5,39.9,86.5,40,157.7,0,63.3-14.5,113.4-40.7,152.4-33.7,50.2-87.9,71.2-178.6,73.1-14.4.3-64.8-3.4-64.8-3.4h0l.3-.2h0Z" fill="#3fbdf1"/><path id="al" d="M519.8,838.96c-16.4-1.4-26.9,0-45.9-.8l-28.1,2.4-7.9-12.9c-4-6.5-7.6-17.2-9.4-28.1-1.8-11.2-.8-24.7,2.6-37,2.4-8.6,4.5-10,21.2-12.5,5.3-.8,20.8-3.8,33.6-6,41.1-7.1,65.3-4,92.3,11.5,19,10.9,20.7,13.6,18.5,25.8-2.5,14-11.5,39.5-16.5,47-7.9,12-18.2,14.3-60.5,10.6h.1Z" fill="#fff"/><path id="am" d="M339.6,883.16c-3.4-2.4-7-5.1-9.1-7l-6.7-5.7,11.4-5.4c6.2-3,35.7-10.8,37.3-10.8s-.2,7.1-4.1,13.7c-3.6,6-18.4,21-20.2,21s-5.1-3.4-8.5-5.8h-.1,0Z" fill="#fff"/><path id="an" d="M293.4,929.66c0-29.9.2-58.1.8-58.2.6-.1,9.1,1.5,15.1.1l12.4-2.8,10,8.5c35.4,29.9,70.9,43.5,125.3,52.8,14,2.4,27.1,4.5,54.4,5.1,53.2,1.1,90-2.6,120.8-13.3,8.2-2.8,23.6-9.3,25-9.8,2.4-.8,2,7.8,2,39.3v36.8l-182.8-.2h-183.1v-58.3h.1,0Z" fill="#3fbdf1"/><path id="ao" d="M154.2,987.66c141.5,0,512,1.3,653.3,0M659.2,988.16v-79.6M293.4,987.86v-116.5M605.2,677.86s1.9,45.8-5.8,91.3c-3.5,20.7-9.1,41.4-17.7,57.6-4.7,8.7-13.8,14.2-23.6,14.4-8.9.2-17.7-.2-26.5-1.1-82-7.7-151,10.3-209.7,28.6,32.8,29.7,117,84.7,276.4,60.8,214.3-32,147.3-315,147.3-315-5.8-30.5-24-58.8-45.8-80.2-24.7-24.2-72.7-40.3-105.3-50.4M388.7,474.06c-53.8,13.2-117.2,45.3-152.1,88.9-45.7,57-55.3,132.7-54.2,203.6,1,69.3,73.6,117.1,139.4,102.2M314.5,673.96c-23.7,105.7,67.4,88,185.7,67.1,42.3-7.4,78.3,10.9,99.1,28M599,770.36c-1.7,8.4-10.8,64.3-32.7,70.5s-43.4-7.3-94.3-2c0,0-11,.4-26.2,1.8-32.6-45.5-11.8-86.5-10.7-88.3,0,0,13.6-1,43.4-6.8,36-7.1,55.4-6.3,74.2-1.2,13.9,3.8,44.1,20.4,46.4,26.1h0l-.1-.1ZM681.7,520.46s-54.4-29.3-89.5-36.4c0,0-.2,5.2-6.1,18.2-5.8,12.9-23.7,51.8-23.7,51.8l-23.9-17.5-.9,26.5-70.9,75.7-44.8-98.1,6-27.6-25.5,9.8-13.6-48.7s-67.2,15.1-125.2,61.7c-57.9,46.6-74.5,119.3-79.9,181.5-5.4,62.3,1.1,128,83.4,150.2,0,0,38.7,9.7,70.1-3.3,9.8-4,24.1-7.8,39-11.2l-.5.2s-6.8,23.5-26.5,36.4c0,0,34.5,26.2,93.3,37.6,58.8,11.4,183.3,18.2,245.9-36.2s65.2-144.1,65.2-144.1c0,0,20.4-173.1-72-226.6h0l.1.1h0Z" fill="none" stroke="#000" stroke-linejoin="round" stroke-width="5.2"/></g><g id="ap"><path id="aq" d="M387.7,474.66l29.6-15.8,18.1-16.9,47.6,47.6,68.5-45,16,18.9,26.5,20.7-31.6,69.9-23.9-17.5-.2,25.6-71.6,76.6-33.8-73.45-11.2-24.55,6-27.6-25.2,9.7-14.8-48.2Z" fill="#3fbdf1"/><path id="ar" d="M491,539.46c-2.7-10.9-2.5-13.8-1-15.7,3.5-4.5,10.8-10.5,11.3-10,.3.3,4,5.4,6.5,9,3,4.2,6.2,7.5,5.9,8.1-.7,1.2-18,24.1-18.2,24.1s-3-9.5-4.5-15.6h0v.1Z" fill="#fff" isolation="isolate" opacity=".8"/><path id="as" d="M449.9,532.06c-2.4-5.3-5.1-12.9-5.1-13.2s4-3.3,7.3-5.6l7.6-5.2,5.8,8.5,3.4,6.2-4.2,10.1c-1.9,4.6-7.1,11.5-7.3,11.7-.2.1-5-7.2-7.4-12.4h0l-.1-.1Z" fill="#fff" isolation="isolate" opacity=".8"/><path id="at" d="M468.86,631.79c.13-.74.46-13.45,1.82-25.3s3.09-22.67,3.22-23.46c.16-.96,2.7-3.33,7.07-8.79,7.2-8.98,70.35-88.54,87.14-110.29.07-.09,3.87,2.97,5.94,4.9,3.81,3.55,11.93,9.67,15.86,12.13,1.18.74,4.07,2.93,4.07,3.18,0,.46-31.65,69.34-32.16,69.49-1.17.35-8.05-5.71-14.32-11.11-12.25-10.55-8.62-11.36-10.33-8.88-.74,1.06,2.83,1.34.65,14.1l-.19,13.47-4.58,6.51c-.79,1.12-58.94,63.17-63.23,67.98-.23.25-1.12-3.16-.99-3.93h0Z" fill="#fff" isolation="isolate" opacity=".8"/><path id="au" d="M442.54,585.86l-20.44-45.2,3.68-14.8c1.82-7.33,2.22-12.37,2.22-12.8,0-1.09-.99.68-2.31.68-.6,0-2.75,1.11-8.95,3.49s-14.18,5.71-14.24,5.63c-.25-.29-13.24-46.51-13.24-47.04,0-.31,2.42-2.89,2.73-2.89,1.11,0,12.55-6.04,17.16-8.97,2.58-1.64,7.61-5.29,7.79-5.29s13.66,29.47,28.4,62.95l27.88,63.28-2.69,22.98c-1.45,12.4-4.75,28.31-4.92,28.5-.17.19-13.37-25.24-23.07-50.52Z" fill="#fff" isolation="isolate" opacity=".8"/><path id="av" d="M472.6,582.96c-4.3-9.8-10.5-26.7-14.8-36.4,2.9-6,8.2-14.6,11.1-20.5,1.3,2.6,3.4,7.3,6.4,8.4,2.8,1.1,3.6,1.3,5.9-.6,1.1-.9,5.8-4.8,6.8-5.8,1.8,7.5,5.3,19.4,6.7,27-.1,2-2.8,5-3.8,6.7-6.1,4.4-14.3,17.1-18.4,21.4h0l.1-.2h0Z" fill="#3fbdf1"/><path id="aw" d="M473.3,532.66c-2.7-3.4-3.9-9.7-6.2-13.3-2.6-4.4-3.2-7.1-5.5-11.7.7-1.6,2.8-2.7,4.1-4,5.6-4.7,11.1-9.5,17-14,.9,0,2.5,2.9,2.7,2.5,0,.5,1.9,2.7,2.6,3.9,3.5,4.8,7.2,9.6,10.8,14.4-6.6,6.8-11.3,16.3-17.7,23.3-.7.8-6.8-.1-7.9-1h0l.1-.1Z" fill="#3fbdf1"/><path id="ax" d="M439.8,509.36c-.9-2-5.2-11.7-11.1-24.9l-8.1-18.1-3.3-7.5s6.2-5.9,9-8.5l9-8.5,23.8,23.8,23.6,23.9-9.8,7.6c-3.5,2.8-9.6,9.4-15.8,12.1l-14.1,7.1-3.2-7.1h0v.1Z" fill="#3fbdf1"/><path id="ay" d="M506.3,520.66c-2.6-3.6-8.1-11.2-12.6-17.1s-9.6-14-9.7-14.6c0-.5,7.6-4.6,15.7-9.5s23.1-16.7,33.4-21.9l18.4-13,5,4.8c1,1,4.6,3.2,5.6,7l4.7,6-3.4,6.5c-.9,1.6-10.7,13.7-22.5,28.9-11.8,15.2-26.4,32.3-27.1,33.1-1.2,1.3-2.9-4-7.4-10.2h-.1Z" fill="#3fbdf1"/><path id="az" d="M469.1,523.56l-12.1,24.5M487.6,526.46l7.5,30M498.8,513.86l-17.7,19.8c-2.4,2-6,1.5-7.9-1l-12.4-26.7M444.2,519.26l38.8-29.7-47.6-47.6-18,17,55.9,125.3-6.8,57.9-44.4-101.5,5.9-27.6-25.5,9.8-14.8-48.2h0c18.3-7,34.6-18.3,47.9-32.7M513.7,530.86l-14.9-20.5-15.9-20.9,33.3-20.1,36.3-25.6c2.8,3.6,12.5,16.4,15,19.7-1.5,1.9-76.3,98-80.9,103.8h0l-13.6,16.9M466.3,642.06l72.2-80.2-1.3-28.2,25,21.5,32.1-71.2v-.2c-16.8-9.8-31-23.9-41.8-40.1" fill="none" stroke="#000" stroke-linejoin="round" stroke-width="5.2"/></g><g id="ba"><path id="bb" d="M460.8,463.66l-22.5-22.5,3-12.2c1.6-6.7,3-12.4,3.1-12.6.1-.3.6,0,1.7.8,6.3,5.2,13.7,9.6,21.7,12.7,4.1,1.6,10.4,3.5,11.2,3.4.4,0,.6-.7.9-2.2.6-3.2.7-3.1-1.4-3.5-3.2-.7-9.1-2.9-13.2-4.8-20.1-9.6-33.2-26-37.9-47.2-1.6-7.2-1.9-10.3-1.9-19.8s.1-9.9.7-14.5c3.2-25.7,8.1-45,15.5-60.6.9-1.9,1.8-3.5,2-3.6.2,0,2.2-.5,4.3-.8,4.3-.8,10-2.5,14-4.3,1.5-.6,12.1-6.3,23.7-12.6,21.8-11.9,23.5-12.7,28.4-13.3,4.7-.6,9.4.8,12,3.8,2.9,3.3,4.4,7.7,5.5,16.5,2.1,16.8,7.2,45.1,10.8,60.3.9,3.8,1.4,4.4,3.3,4.4s2-.6,4-4.4c3.1-5.6,6.9-9.9,10.3-11.7,3.3-1.7,6.7-1,9.8,1.9,1.9,1.8,2.5,3.7,2.3,7.4-.4,6.8-4.6,15.6-15,30.9-2.4,3.5-4.5,6.8-4.7,7.2-.8,2-1.6,5.8-2.5,12.3-2.1,14.3-4.1,21.7-7.7,28.8-3.3,6.5-7.2,10.8-13.6,14.9,0,0,.5,1.2,1.3,2.5l1.4,2.4.8-.5c2.2-1.4,5-3.5,6.5-4.9l1.8-1.6,4.4,13.1c3.5,10.4,4.3,13.2,4,13.5-.2.2-7.9,5.7-17.2,12.2-14.1,10-18.8,13-29.6,19.6-7.1,4.3-14.2,8.6-15.8,9.6l-2.9,1.8-22.5-22.5h0v.1h0ZM478.9,374.06c5.3-1.8,10.3-6,14.6-12,.7-1,1.3-2,1.3-2.1,0-.3-4.1-2.9-4.5-2.9-.1,0-1,1-1.8,2.3-2.4,3.4-6.3,7-9.2,8.5-2,1-2.8,1.3-4.7,1.4h-2.3c0,.1-.9,2.6-.9,2.6-.5,1.3-.7,2.5-.6,2.7.8.8,5.3.6,8-.3h0l.1-.2ZM454.1,329.76c2.8-2.1,2.8-6.5,0-8.6-.6-.4-1.5-.7-2.7-.8-1.5-.1-2,0-3,.6-1.6,1.1-2.3,2.2-2.5,3.9-.2,2,.8,4,2.4,5,1.5.9,4.5.8,5.8-.2h0v.1ZM498,330.06c1.4-.7,2.5-2.2,2.8-4,.2-1,0-1.6-.5-2.8-1-2-2.1-2.8-4.4-2.9-1.5-.1-2,0-3,.6-1.9,1.3-2.4,2.3-2.4,4.5s.6,3.2,2.4,4.4c1.3.9,3.5,1,5.1.2h0Z" fill="#fff"/><path id="bc" d="M471.6,371.86s9.9,3.5,21-13.4" fill="none" stroke="#000" stroke-linejoin="round" stroke-width="5.2"/><path id="bd" d="M495.6,320.36c2.8,0,5.1,2.3,5.1,5.1-.2,6.8-10,6.8-10.2,0,0-2.8,2.3-5.1,5.1-5.1Z"/><path id="be" d="M451.1,320.36c2.8,0,5.1,2.3,5.1,5.1-.2,6.8-10,6.8-10.2,0,0-2.8,2.3-5.1,5.1-5.1Z"/><path id="bf" d="M458.5,347.46h-38.4c-5.7,0-10.3-4.6-10.3-10.3v-34.6h64.9v34.6c0,5.7,4.6,10.3,10.3,10.3h38.1c5.7,0,10.3-4.6,10.3-10.3v-34.6h-58.6M471.6,358.56h-14c.6-7.1,4-47.9,4.6-55.9" fill="none" stroke="#000" stroke-linejoin="round" stroke-width="5.2"/><path id="bg" d="M442.9,410.46l-7.6,31.4M552.5,443.76l-11.1-33.3c-3,4.2-6.9,7.8-11.4,10.4M541.5,410.46h0c12-18,10.2-41.9,14-47.9,5.8-9.3,29.1-38.4,15.1-48.9-3.2-2.4-6.3-2.9-9.1-2.4-9.4,2.1-15.9,16.9-15.9,16.9,0,0-8.2-34.9-11.6-65.2-3.4-30.3-29.2-17.4-29.2-17.4l-38.9,21.2c-7.5,4.1-15.7,6.7-24.1,7.5-4.4.5-8.9.5-13.3-.1-30.1-3.9-32-60.8,2.5-54.3,2.1.4,4.1,2.6,5.5,4.2-6.9-13.4.5-30.3,14.1-35.5,8.3-3.1,17.5-2.5,26.2-.7,61.1,11.1,95.6,62.6,84.9,123.4M479.7,430.76s-65.2-11.6-56.5-88.5c3.9-34.2,11.4-55.1,18.4-67.9" fill="none" stroke="#000" stroke-linejoin="round" stroke-width="5.2"/></g><g id="bh"><path id="bi" d="M465.7,189.16c-3.6,0-6.9,0-10.1.8-4.5.8-9,3.1-12.3,6.4h0l-.1.1h0c-.4.4-.9,1-1.2,1.3h0c-.4.5-.8,1-1.1,1.5h0c0,.1-.1.2-.2.3h0c-.4.6-.8,1.1-1.1,1.7h0c-.2.4-.4.7-.6,1.1.5.2,1.4.4,2,.6-.5-.1-2-.6-2-.6-.3.6-.6,1.3-.9,1.9h0c-.5,1.1-.8,2.2-1.1,3.4h0c-1.1,4.3-.8,10.7,1.3,14.4,2.1,0,4.6,1.9,6.2,3.8-2.5-5.4-3-12.4-1-18.2h0c.4-1.1.8-2.3,1.4-3.4-.3-.1-.6-.2-.9-.3h0c-.6-.2-1.6-.5-2.2-.7.5.2,2,.6,2.2.7h0c.3.1.7.2.9.3.4-.7.8-1.5,1.2-2.2h0c.5-.8,1.1-1.6,1.6-2.4h-.3.3c2.1-2.7,4.7-5.1,7.7-6.9h0c3.1-1.8,6.4-2.7,10.1-3.4h0l.2-.2h0ZM447.6,199.66c0,.1-.3.4-.5.8.2-.3.4-.6.5-.8ZM440.1,200.56s-.1.1-.1.2c0,0,0-.1.1-.2ZM439.8,200.96h0c-.2.3-.3.6-.4.8,0-.1.1-.2.2-.3,0-.1.2-.3.2-.4h0v-.1h0ZM446.8,200.96s0,.1-.1.2c0,0,0-.1.1-.2ZM439.1,202.36c.6.2,1.2.4,2,.6-.7-.2-1.5-.5-2-.6ZM441.2,202.96c.2,0,.3,0,.5.1h0s-.4-.1-.5-.1h0l.4.1c-.1,0-.5-.1-.4-.1ZM441.8,203.16c.8.2,1.5.5,2,.6-.6-.2-1.9-.6-2-.6ZM445.2,203.66s-.1.2-.2.3c0,0,.1-.2.2-.3ZM444.2,203.86c.1,0,.3,0,.4.1-.1,0-.2,0-.4-.1ZM444.8,204.06h.1-.1ZM425.7,222.26c-25.2.2-20.7,41.9-2,48h0c-12.5-12.1-14.5-40.8,4.1-47.6,1-.2.2-.4-2.1-.4h0Z" fill="#fff"/><path id="bj" d="M561.5,311.36c-7.7,2.1-12.5,10.1-15.9,16.9,0,0-8.2-34.9-11.6-65.2-2.3-22.6-18.6-22.4-29.2-17.4l-38.9,21.2c-10.9,6-23.6,8.9-36.1,7.5-21.4-10.6-21.7-52.4,4.3-52.6.8.7,1.5,1.5,2.2,2.3-.4-.8-.7-1.5-1-2.3,1.5,0,2.9.2,4.3.5,2.1.4,4.1,2.6,5.5,4.2-6.9-13.4.5-30.3,14.1-35.5,9.6-3.6,20.4-2.3,30.3.3,54,14.8,81.8,65.9,72.1,120.1h-.1Z"/></g></g><g id="bk"><path id="bl" d="M359.6,642.66c11.3,0,20.5,9,20.5,20-1.1,26.5-39.9,26.5-41,0,0-11,9.2-20,20.5-20M359.6,635.66c-15.2,0-27.5,12.1-27.5,27,1.4,35.8,53.5,35.8,55,0,0-14.9-12.3-27-27.5-27Z" fill="#fff" isolation="isolate" opacity=".7"/><path id="bm" d="M593.5,484.36c33.8,16.4,7.6,60.2-14.2,98.7" fill="none" stroke="#000" stroke-linejoin="round" stroke-width="5.2"/><path id="bn" d="M520.7,700.26s-13.4-6-13-9.7c3.5-10.1,34.4-136.2,76.8-104.9,39.8,17.1-24.7,116.2-26.3,122.7l-13.2-4.5" fill="none" stroke="#000" stroke-linejoin="round" stroke-width="5.2"/><path id="bo" d="M375.7,477.76s-19.5,64-15.5,159.3" fill="none" stroke="#000" stroke-linejoin="round" stroke-width="5.2"/><path id="bp" d="M541.5,695.56c3.9,0,7.1,3.2,7.1,7.1-.4,9.4-13.8,9.4-14.2,0,0-3.9,3.2-7.1,7.1-7.1h0Z" fill="#fff"/><path id="bq" d="M525,694.16c3.9,0,7.1,3.2,7.1,7.1-.4,9.4-13.8,9.4-14.2,0,0-3.9,3.2-7.1,7.1-7.1h0Z" fill="#fff"/><path id="br" d="M359.4,634.56c16.1,0,29.2,12.4,29.2,27.9-1.3,37.2-56.5,37.4-58.2.3,0-15.5,12.9-28.1,29-28.2Z" fill="#3fbdf1"/><path id="bs" d="M359.4,634.56c16.1,0,29.2,12.4,29.2,27.9-1.3,37.2-56.5,37.4-58.2.3,0-15.5,12.9-28.1,29-28.2Z" fill="none" stroke="#000" stroke-linejoin="round" stroke-width="5.2"/><path id="bt" d="M358.1,689.36c-41.6-5.6-32.1-60.7,10.2-52.9,31.4,9.9,22.1,54.7-10.2,52.9ZM362,683.46c20.5-2.3,26.9-28.5,9.1-39.5-34.9-17.3-48.4,40.4-9.1,39.5Z" fill="#fff"/><path id="bu" d="M356.2,670.96c-12.8-7-.2-24.4,10.5-14.5,6.4,6.8-2,18.1-10.5,14.5Z" fill="#fff" isolation="isolate" opacity=".7"/></g><g id="bv"><circle id="bw" cx="838.5" cy="888.66" r="73.2" fill="#3fbdf1" stroke="#fff" stroke-miterlimit="11.9" stroke-width="6.1"/><polygon id="bx" points="870.5 837.36 872.4 838.66 852.7 867.06 850.7 865.66 870.5 837.36" fill="#fff" isolation="isolate"/><rect id="by" x="812.06" y="913.72" width="10" height="6.3" transform="translate(-402.64 1060.27) rotate(-55)" fill="#fff" isolation="isolate"/><path id="bz" d="M856,874.46l-27,38.6c-1.4,2-3.8,2.9-5.3,1.8l-7.7-5.3c-1.5-1.1-1.6-3.6-.1-5.6l27-38.6c1.4-2,3.8-2.9,5.3-1.8l7.7,5.3c1.5,1,1.6,3.6.1,5.6Z" fill="#fff" isolation="isolate"/><path id="ca" d="M823,931.06c-.5.8-1.3,1.4-2.2,1.7-.7.3-1.6.2-2.2-.2l-17.5-12.2c-1.2-.8-1.3-2.9,0-4.6.5-.8,1.3-1.4,2.2-1.7.7-.3,1.5-.2,2.2.2l17.5,12.2c1.2.8,1.2,2.9,0,4.6h0Z" fill="#fff" isolation="isolate"/></g><g id="cb"><circle id="cc" cx="123.9" cy="851.56" r="41.9" fill="#3fbdf1" stroke="#fff" stroke-miterlimit="9.7" stroke-width="4.4"/><path id="cd" d="M116.3,844.26v-11c0-3.7.6-2,1.9-2h9.7c1.4,0,2,.9,2.2,2.2.2,3.5,0,7.3,0,10.8,3.7.1,7.4,0,11.1,0,1,0,1.6,1.3,1.6,2.1,0,2.1.5,10-.4,11.4-1.2.7-5.6.4-7.2.4h-5.2v6.5c0,6.3-.2,6-6.3,5.8-6.6-.2-7.5,1.5-7.4-6v-6.3h-7.4c-1.4,0-3,.2-4.4,0-.5,0-.8,0-1.1-.4-1.1-1.1-.6-8-.6-9.7,0-2-.3-3.7,2.2-3.7,3.7-.1,7.5.2,11.3,0h0v-.1h0Z" fill="#fff"/></g><g id="ce"><circle id="cf" cx="707.3" cy="398.66" r="20.2" fill="#3fbdf1" isolation="isolate" opacity=".7"/><circle id="cg" cx="702.1" cy="394.56" r="7.2" fill="#fff" isolation="isolate"/></g><g id="ch"><circle id="ci" cx="765.5" cy="601.46" r="65.8" fill="#3fbdf1" stroke="#fff" stroke-miterlimit="14.8" stroke-width="6.7"/><path id="cj" d="M766.5,639.46c-42.8.2-38.7-57.1-1-79.5,37.9,21,47.8,78.7,1,79.5Z" fill="#fff"/><g id="ck" isolation="isolate"><path id="cl" d="M783.8,582.86h-4.3v-4.2h-3.7v4.2h-4.3v3.2h4.3v4.2h3.7v-4.2h4.3v-3.2Z" fill="#3fbdf1" isolation="isolate"/><path id="cm" d="M771,603.36c.8,0,2.9-2,2.9-5.2s-3.5-8-9-8h-8.4v30.2h11.6c6.3,0,9.6-4.7,9.6-9.2s-3.8-7.9-6.8-7.9l.1.1h0ZM765.3,596.16c1.4,0,2.8,1.2,2.8,2.9s-1.4,3-2.9,3h-2.5v-5.9h2.6ZM767.6,614.46h-4.9v-7.2h4.9c2.9,0,4.2,1.7,4.2,3.5s-2.1,3.7-4.2,3.7h0Z" fill="#3fbdf1" isolation="isolate"/></g></g><g id="cn"><path id="co" d="M732.5,134.06h0c-31.4,0-60.5,16.8-76.2,44h0c-15.7,27.2-15.7,60.7,0,87.9h0c15.7,27.2,44.7,44,76.2,44h0c31.4,0,60.5-16.8,76.2-44h0c15.7-27.2,15.7-60.7,0-87.9h0c-15.7-27.2-44.7-44-76.2-44Z" fill="#3fbdf1" stroke="#fff" stroke-miterlimit="5.7" stroke-width="4.6"/><g id="cp"><path id="cq" d="M746.4,266.16c0,1.5-1.2,2.8-2.8,2.8h-56.1c-1.7.2-3-2.3-2.7-2.8v-53.6c.3-13.9,17.1-22.1,16.8-22,.6,0,28.6,0,28,0,.2,0,17.6,9.8,16.8,22.4v53.2h0Z" fill="#fff"/><path id="cr" d="M701.6,179.26h28v11.2h-28v-11.2Z" fill="#fff"/><path id="cs" d="M698.8,170.86h33.6v11.2h-33.6v-11.2Z" fill="#fff"/><path id="ct" d="M724,151.26h-16.8s0,11.2-8.4,19.6h16.8c-7.3.1-7.3-11.3,0-11.2,7.3-.1,7.3,11.3,0,11.2h16.8c-8.4-8.4-8.4-19.6-8.4-19.6h0Z" fill="#fff"/><path id="cu" d="M735.2,241.96c-18.7,10.8-23.2-1-39.2,1.1v5.9c13.2-3,19.9,9.5,39.2-.7v-6.2h0v-.1ZM729.8,233.26c-11.3,6.3-22.2-3.6-33.8-1.4v5.9c13.2-3,19.9,9.5,39.2-.7v-6.2c-.9.5-4.6,2.2-5.4,2.5v-.1ZM729.8,222.06c-11.3,6.3-22.2-3.6-33.8-1.4v5.9c13.2-3,19.9,9.5,39.2-.7v-6.2c-.9.5-4.6,2.2-5.4,2.5v-.1Z" fill="#3fbdf1"/></g><g id="cv"><path id="cw" d="M772.2,192.86c5.3,9.6-.6,15.7,0,24.9l1.5.7,1.7-.6c-.9-8.3,5.1-15.9.2-24.9h-3.5v-.1h.1Z" fill="#fff"/><path id="cx" d="M766.7,193.96c3.3,7.3-2.3,14.1-1.3,21.5l1.5.6,1.8-.5c-.9-8.3,5.1-15.9.2-24.9h-3.5c.2.4,1.2,2.9,1.3,3.4h0v-.1Z" fill="#fff"/><path id="cy" d="M760.5,196.66c3.3,7.3-2.3,14.1-1.3,21.5l1.5.7,1.7-.6c-.9-8.5,5.1-15.9.2-24.9h-3.5c.2.4,1.2,2.9,1.3,3.4h0l.1-.1h0Z" fill="#fff"/><path id="cz" d="M751.9,220.16v29.9c.8,4.6-2.6,16.4,3.8,17,7.9.2,15.9,0,23.9.2,3.9.5,5.2-3.5,4.8-6.7,16-2.1,16.8-24.3,0-26.7v-13.6h-32.5v-.1h0ZM784.4,238.86c10.9,2,9.7,15,0,16.4v-16.4Z" fill="#fff"/></g></g><path id="da" d="M924.3,325.36h0c-19.2,0-36.9,10.2-46.5,26.8h0c-9.6,16.6-9.6,37,0,53.6h0c9.6,16.6,27.3,26.8,46.5,26.8h0c19.2,0,36.9-10.2,46.5-26.8h0c9.6-16.6,9.6-37,0-53.6h0c-9.6-16.6-27.3-26.8-46.5-26.8Z" fill="#3fbdf1" stroke="#fff" stroke-miterlimit="9.7" stroke-width="7.8"/><path id="db" d="M958.3,353.66c-6.4-2-11.7,5.2-8,10.8l-20.9,32.1s-.2,0-.3-.1c-.3,0-.6-.1-.9-.1l-16.6-29.4c3.3-2.5,1.9-7.8-2.2-8.3-4.1-.5-6.8,4.2-4.2,7.5l-15.1,20.6c-3.4-.8-5.5,3.6-2.7,5.7s6.5-1.2,4.6-4.2l15.1-20.6s.2,0,.3.1c.6.2,1.2.2,1.9.2l16.6,29.4c-1.7,1.7-1,4.6,1.3,5.3,2.5.8,4.9-1.7,3.9-4.2l20.9-32.1c3.5,2.6,8.6,1.3,10.5-2.6s0-8.7-4.3-10h0l.1-.1h0Z" fill="#fff" stroke="#fff" stroke-miterlimit="9.7" stroke-width="1.3"/><g id="dc"><path id="dd" d="M339.5,161.66c.5-.8,9.9-23.7,35-23.8,14.9,0,22,8.2,26.8,15.2,12.7,35.4-37.9,77.9-61.3,88.3-2.7-2.2-75.8-46.3-61.5-86.4,4.4-8.9,14.4-18,28.1-17.8,22.7.3,32.4,23.7,32.8,24.4h0l.1.1h0Z" fill="#3fbdf1" stroke="#fff" stroke-miterlimit="12.1" stroke-width="5.4"/><path id="de" d="M322.2,197.76c.7-2.7,1.1-5.5,1.6-8.2,1.2-5.6,2.4-11.2,3.4-16.8.6-3.6.8-7.8,2.2-11.2.5-.3.7-.2,1.3-.2.4.5.5,1.1.6,1.6.8,4.7,1.1,9.6,1.6,14.4,1.1,9.8,2.2,19.5,3.4,29.3,1.3-3.7,4.4-17.5,6.4-19.6,2.7,0,6.8,4.1,8.7,5.7,2.7-7.1,2.9-14.9,5.2-22.1.2-.7.6-1.8,1.2-2.2.3-.2.2-.1.6,0,.7.7.9,1.5,1.1,2.4,1,4.1,1.1,8.6,1.6,12.8.8,7.1,1.8,14.1,2.6,21.2,1-2.3,1.5-4.9,2.2-7.2,1-3.6,2-7.1,3.1-10.7.6-1.8,1-3.9,2-5.5.6-.3.9-.3,1.6-.3,1.6,1,2.7,7.9,3.2,9.8,2.8,0,5.6-.1,8.4,0,4.9.2,9.9-5.2,10.5-4.8.8.5-3.8,7-4,7.4-.1.2-1.6,0-3.2-.3-1.8,0-10.9-.3-13.1-.4-1.1-2.9-1.7-5.9-2.4-8.9-1.8,3.7-5.7,23.8-8.1,25.3-.6,0-.7,0-1.2-.2-1.4-2-4.1-28.2-4.4-32.2l-1-.2c-.6,3-3,16.9-5.2,18.5-1.9,0-6.8-4.4-8.3-5.6-.1-.1-.2-.2-.4-.3-.7,2.9-4.8,19.4-6.8,20.4-.3.2-.7,0-1,0-.8-.3-1.1-1.7-1.2-2.3-.7-2.8-.9-5.9-1.2-8.7l-2.4-19.4c-.4-3.2-.5-6.5-1.1-9.7-.8,4.9-5.1,30-7.1,33.2-.5.3-.7.3-1.3.4-.8-.3-1-.8-1.3-1.4-2-4.5-2.8-10.2-4.5-15-.8,2.5-3.3,11.8-5.4,12.9-.3.2-.4,0-.8,0-2-2.1-2.9-5.9-4-8.5-.5.6-.8,1.2-1.6,1.3-2.4.5-4.9.7-7.4.6l-4.7,3.2-4.2-5.9,7.6.6c2.2.1,5.8.4,7.9-.3,1-.9,1.2-2.5,2.3-3.2.6.2.7.4,1,.9,1.4,2.5,2.8,6.1,3.7,8.8.8-2.2,3.6-12.3,5.4-13.1.3-.1.5,0,.8.1,1.8,1.9,4,11.2,4.6,14h1.3l.2-.4h0Z" fill="#fff"/></g><path id="df" d="M913.7,661.36c0-3.7-.4-11.5.7-14.8,2.2-.2,3-.4,4.7.6,2,3.2,1,9.8,1,14.2,4.5,0,11-.4,15.4.3,1,.2,1.4,1.3,1.9,2.2-.4,5.9-12.2,4-17.1,4,0,4.6,1.2,10.7-1.5,13.7-1.7,0-1.9.1-3.3-.7-2.3-3-1.4-8.8-1.3-12.9-4.8,0-16,1.5-18.6-2.5-.2-1.9-.3-1,.7-2.7,3.6-2.3,12.8-1.4,17.6-1.3h0l-.2-.1h0Z" fill="#3fbdf1"/><path id="dg" d="M34.6,159.06c0-5.8-.6-17.8,1-22.9,3.3-.4,4.6-.6,7.2,1,3.1,5,1.6,15.1,1.6,21.9,6.9.2,16.9-.6,23.7.5,1.6.3,2.2,2,3,3.3-.6,9.1-18.9,6.3-26.4,6.2,0,7.2,1.9,16.5-2.3,21.1-2.6,0-2.9.2-5.1-1.1-3.5-4.6-2.2-13.6-2.1-19.9-7.4,0-24.6,2.2-28.6-3.9-.2-2.9-.5-1.5,1-4.2,5.5-3.5,19.7-2.1,27.1-1.9h0l-.1-.1h0Z" fill="#3fbdf1" isolation="isolate" opacity=".8"/><path id="dh" d="M850.7,38.66c0-4.3-.4-13.2.7-17.1,2.3-.3,3.3-.4,5.1.7,2.2,3.7,1.2,11.2,1.1,16.3,4.9.1,12-.4,16.8.4,1.2.2,1.6,1.5,2.1,2.5-.4,6.8-13.3,4.7-18.7,4.6,0,5.3,1.3,12.3-1.7,15.8-1.8,0-2,.1-3.6-.8-2.5-3.5-1.5-10.1-1.5-14.9-5.2,0-17.4,1.7-20.3-2.9-.2-2.2-.3-1.2.7-3.1,3.9-2.6,14-1.6,19.2-1.5h.1Z" fill="#3fbdf1"/><path id="di" d="M167.6,14.46c0-3.6-.4-11.1.6-14.3,2.1-.2,2.9-.4,4.5.6,1.9,3.1,1,9.4,1,13.7,4.3.1,10.6-.4,14.9.3,1,.2,1.4,1.2,1.9,2.1-.4,5.7-11.8,3.9-16.5,3.9,0,4.5,1.2,10.3-1.5,13.2-1.6,0-1.8.1-3.2-.7-2.2-2.9-1.4-8.5-1.3-12.5-4.6,0-15.4,1.4-17.9-2.5-.1-1.8-.3-1,.6-2.6,3.5-2.2,12.4-1.3,17-1.2,0,0-.1,0-.1,0Z" fill="#3fbdf1" isolation="isolate" opacity=".4"/><path id="dj" d="M30.9,776.66l-12-7.8-13.2,5.5,3.7-13.8-9.4-10.8,14.3-.8,7.4-12.2,5.2,13.3,13.9,3.3-11.1,9.1,1.2,14.3h0s0-.1,0-.1Z" fill="#3fbdf1" isolation="isolate" opacity=".5"/><path id="dk" d="M516.3,121.86l3.5-11.9-7.9-9.6,12.4-.4,6.7-10.4,4.2,11.7,12,3.2-9.8,7.6.7,12.4-10.3-7-11.6,4.5h0l.1-.1h0Z" fill="#3fbdf1" isolation="isolate" opacity=".2"/><path id="dl" d="M995.9,204.76l-7.6-14.6-16.4-2,11.6-11.8-3.1-16.2,14.8,7.4,14.5-8-2.4,16.3,12.1,11.3-16.3,2.7-7,15h0l-.2-.1Z" fill="#3fbdf1" isolation="isolate" opacity=".7"/></g></svg>