<?xml version="1.0" encoding="UTF-8"?><svg id="a" xmlns="http://www.w3.org/2000/svg" viewBox="0 0 960.22 798.93"><path id="b" d="M536.58,76.49c-218.4,0-497.4,30.9-531.5,303.5-25.8,206.1,113.7,328.3,198.6,370.7,240.2,105.2,477.7,6.6,590.6-76.3,112.9-83,147-171.1,117.7-329.8-29.3-158.7-157.1-268-375.5-268h0l.1-.1h0Z" fill="#9fdef9" isolation="isolate" opacity=".2" stroke="#3fbdf1" stroke-width="3.9"/><g id="c"><path id="d" d="M771.28,233.83c0-3.1-.3-9.7.6-12.5,1.8-.2,2.5-.3,3.9.5,1.7,2.7.9,8.2.9,11.9,3.7,0,9.2-.3,13,.3.9.1,1.2,1.1,1.6,1.8-.3,4.9-10.3,3.4-14.4,3.4,0,3.9,1,9-1.3,11.5-1.4,0-1.6.1-2.8-.6-1.9-2.5-1.2-7.4-1.1-10.8-4,0-13.5,1.2-15.6-2.1-.1-1.6-.3-.8.6-2.3,3-1.9,10.8-1.1,14.8-1.1h-.2Z" fill="#3fbdf1"/><path id="e" d="M51.88,464.33c0-3.9-.4-12.1.7-15.6,2.3-.3,3.2-.4,4.9.7,2.1,3.4,1.1,10.3,1.1,14.9,4.7.1,11.6-.4,16.2.4,1.1.2,1.5,1.3,2,2.3-.4,6.2-12.9,4.3-18,4.2,0,4.9,1.3,11.2-1.6,14.4-1.8,0-2,.1-3.5-.8-2.4-3.2-1.5-9.2-1.4-13.6-5,0-16.8,1.5-19.6-2.7-.1-2-.3-1.1.7-2.8,3.8-2.4,13.5-1.4,18.5-1.3h0v-.1Z" fill="#3fbdf1"/><path id="f" d="M136.58,335.43c0-2.8-.2-8.6.4-11.1,1.3-.2,1.8-.3,2.7.5,1.2,2.4.6,7.3.6,10.6,2.6,0,6.4-.3,9,.3.6.1.8.9,1.1,1.6-.2,4.4-7.2,3-10,3,0,3.5.7,8-.9,10.2-1,0-1.1,0-1.9-.6-1.3-2.2-.8-6.6-.8-9.6-2.8,0-9.4,1.1-10.9-1.9,0-1.4-.2-.7.4-2,2.1-1.7,7.5-1,10.3-.9h0v-.1h0Z" fill="#fff"/><path id="g" d="M827.78,340.73c0-2-.2-6.1.3-7.9,1.1-.1,1.6-.2,2.5.3,1.1,1.7.6,5.2.5,7.5,2.4,0,5.8-.2,8.2.2.6,0,.8.7,1,1.1-.2,3.1-6.5,2.1-9.1,2.1,0,2.5.7,5.7-.8,7.2-.9,0-1,0-1.8-.4-1.2-1.6-.7-4.7-.7-6.8-2.5,0-8.5.8-9.9-1.3,0-1-.2-.5.3-1.4,1.9-1.2,6.8-.7,9.3-.7h0l.2.1h0Z" fill="#fff"/></g><g id="h"><ellipse id="i" cx="811.48" cy="702.83" rx="35.3" ry="35.2" fill="#3fbdf1" stroke="#fff" stroke-miterlimit="9.7" stroke-width="4.3"/><path id="j" d="M806.08,696.93v-9.2c0-3.1.5-1.7,1.6-1.7h8.2c1.2,0,1.7.8,1.8,1.8.2,3,0,6.1,0,9.1h9.4c.9,0,1.3,1.1,1.3,1.8,0,1.7.4,8.4-.4,9.6-1,.6-4.7.3-6.1.3h-4.4v5.4c0,5.3-.1,5-5.3,4.9-5.6-.1-6.3,1.2-6.3-5.1v-5.3h-6.2c-1.2,0-2.5.1-3.7,0-.4,0-.7,0-.9-.3-.9-.9-.5-6.7-.5-8.2,0-1.7-.3-3.1,1.9-3.1,3.1-.1,6.4.2,9.5,0h.1Z" fill="#ecf9fe"/></g><g id="k"><path id="l" d="M920.18,419.73c-.7-3.5,6.4-9.2,8.8-10.5,8.7-4.5,22.1-1.1,26.8,7.6,10.9,19.9-19.8,48.2-35.6,55.2-1.8-1.5-45.2-33.8-35-54.5s32.5-10.2,35.1,2.2h-.1Z" fill="#3fbdf1" stroke="#fff" stroke-miterlimit="9.7" stroke-width="4.3"/><path id="m" d="M908.08,442.53c.5-1.8.7-3.7,1.1-5.6.8-3.8,1.6-7.6,2.3-11.3.4-2.4.6-5.3,1.5-7.5.4-.2.5-.2.9-.1.3.3.3.7.4,1.1.5,3.2.7,6.5,1.1,9.7.7,6.6,1.5,13.2,2.3,19.7.9-2.5,3-11.8,4.3-13.2,1.8,0,4.6,2.8,5.9,3.8,1.8-4.8,2-10,3.5-14.9.2-.5.4-1.2.8-1.5.2-.1.2,0,.4,0,.5.5.6,1,.8,1.6.7,2.8.8,5.8,1.1,8.6.6,4.8,1.2,9.5,1.7,14.3.7-1.6,1-3.3,1.5-4.9.7-2.4,1.4-4.8,2.1-7.2.4-1.2.6-2.6,1.4-3.7.4-.2.6-.2,1.1-.2,1.1.7,1.9,5.3,2.2,6.6h5.7c.7,0,2,0,2.8.2.1,0-.2.6-.6,1.3-1,.4-7.4-.2-8.8-.3-.7-1.9-1.1-4-1.6-6-1.2,2.5-3.8,16.1-5.5,17.1-.4,0-.5,0-.8-.2-1-1.4-2.8-19-3-21.7h-.7c-.4,1.9-2,11.2-3.5,12.3-1.3,0-4.6-2.9-5.6-3.7,0,0-.2-.1-.3-.2-.5,1.9-3.3,13.1-4.6,13.8-.2.1-.5,0-.7,0-.5-.2-.7-1.1-.8-1.6-.5-1.9-.6-4-.8-5.9l-1.6-13.1c-.3-2.2-.3-4.4-.8-6.6-.6,3.3-3.4,20.2-4.8,22.4-.3.2-.5.2-.9.2-.5-.2-.7-.5-.9-1-1.4-3-1.9-6.9-3.1-10.1-.6,1.7-2.2,7.9-3.6,8.7-.2.1-.3,0-.5,0-1.3-1.4-2-4-2.7-5.7-.3.4-.5.8-1.1.9-1.7.3-3.3.5-5,.4l-.9-1.5c1.5,0,3.9.3,5.3-.2.7-.6.8-1.7,1.6-2.2.4.1.5.3.7.6.9,1.7,1.9,4.1,2.5,5.9.5-1.5,2.5-8.3,3.7-8.9h.6c1.2,1.3,2.7,7.6,3.1,9.4h.9l-.1.4h0Z" fill="#fff"/></g><g id="n"><path id="o" d="M204.08,204.93c-.4-.4-1.4-14.9-.7-18.7,1.1-5.5,4.2-9.9,7.5-14.7,1.6-2.4,2.9-2.2,2.8-2.9,0-.4-.3-1-.5-1.2-.3-.4-.1-.6.2-.2.2.2.9.3,1.7.3.2,0,.4-2.5,1.4-3.4,5.6-4.9,12.7-8,20.7-8.8,9.5-.8,20,.9,28.4,6.5,6,4,15.2,12.3,13.6,17.2l-3.6,11.5-4.2-11.3c-2.2-6-4.5-10.2-14.7-14.2-8.4-3.3-11.3-4.3-19.7-4.3-5.3,0-14.5,4.1-18.4,7.3-2,1.7-1.7,2.5-2.7,2.3l-1.8-.4.3.9c.1.8,0,.9-1.7,3.6-4,6.1-5.8,11.5-6.7,18.7-.4,3.4-1.8,12.1-2,11.9h0l.1-.1h0Z" fill="#fff"/><path id="p" d="M258.08,796.13c0-.5,3.5-17.6,6.7-33.4,3.2-15.8,5.9-29.4,5.9-29.6s8.8.5,16.3.5l15.8-2.1-2.6,15.2c-2.1,12.4-3.6,13.6-2.3,18.2,1.8,6.4,5.8,11.2,11.9,12.9,2.5.7,8.8,1,14.3,1s12.6.8,14,2.2c2.4,2.4,3.8,9.1,1.2,11.4-1.9,1.7-9.6,3.5-41.5,3.5s-39.7.5-39.7,0h0v.2h0Z" fill="#fff"/><path id="q" d="M144.08,770.13c-24-11.9-36-16.3-35.2-17.3.6-.8,9.6-14.9,20.1-26.1l16.9-24.4,10.1,5.2c3.4,1.8,9,4.1,12.2,5.7l5.8,2.9-3,6c-8.7,17.7-15,15.6-15,23.8s4.7,13.2,17.6,19.4c10.4,5,14.5,9.8,14.5,12.4s-7,8.6-8.7,8.6-17.2-7.4-35.1-16.3h0l-.2.1h0Z" fill="#fff"/><path id="r" d="M246.78,717.33v-14.3l23.2-27.9c19.1-23,21.6-28.9,25-30.1,9.9-3.4,17.6-7.6,19.6-19,1.1-5.9.9-11.1-.7-24.9-1.1-9.4-3.2-37-2.9-37.3.4-.4,55.5,165.9,55.5,167.7s-29.8.3-60.9,0l-58.7-.6v-13.6h-.1Z" fill="#3fbdf1"/><path id="s" d="M320.28,583.33l-11.6-29.9-3.3-34.6c-7.5-78.7-20.8-170.2-27.3-196.1-1.5-6-8.4-27-8.2-27.2.6-.6,21.5,34.4,27,48.6,4.2,10.8,10,26.5,14.4,40,7.3,22.3,14.1,48,20.1,73.6,10.6,45.6,25,132.6,23.9,139.7-1.3,8.5-7,14.6-16.8,15.2l-8.6.6-9.5-29.9h-.1Z" fill="#3fbdf1"/><path id="t" d="M241.08,265.13s-2.1-.7-3.4-1c-1.3-.3-4.4-1.4-6.5-2.3-3.4-1.5-4-1.7-10.3-1.7s-5.8.5-8.4,1.5c-1.7.7-8.3,2.2-8.4,2.1-.1-.1,3-9.8,4.8-15.7s3.6-13.2,3.8-14.1c.3-1.5,1.7-3.1,5-3.1s5.6-3.1,6.1-2.1l4.3,2.9,4.8,5.4c3.9,4.5,5.5.9,9.9,5.3l5.3-.9-.8,9.9c-.3,3.7-.5,7.9-.7,9.2-.4,2.4-3.8,5.2-3.8,5.2l-1.7-.7h0v.1h0Z" fill="#fff"/><path id="u" d="M242.78,242.43c-2.3-.3-9.1-4.5-10.9-6.1-2.8-2.5-3.3-6.8-3.3-10.8.4-1.8-6.4,5-9.1,4.8-1.2,0,11.5-8.7,9.1-4.8-1,1.6-15.1,6.1-15.6,6.2-.9.3-1.7-7.7-3.2-8-1.1-.3-1.6-2.3-1.9-3.5-.4-1.4,3.5,10.8-2.7-7.2-2.7-7.9,0-13.5.5-19.3.8-7.5,2.9-13.3,7-19.3,1.9-2.6,2-3.1,1.5-4-.3-.5-.2-.5.8-.4s1.2,0,2.9-1.4c10.8-9.2,27.5-10.5,43.5-3.4,10.8,4.8,16.4,11.7,15.2,18.8-1.1,6.9-7.9,11.9-18.5,13.6-3.8.6-10.9.4-14.7-.4-3.6-.8-7.6-.8-9.8,0s-4.6,3.1-5.5,5.3c-.5,1.3.5,2,.6,3.9.1,2.1.3,2,1.4,4,.7,1.2,1,.9,1.7,1.7,1.1,1.4.7.6,1.6.6s1.3-.8,2.4-1.4c2.4-1.4,5.9-.6,8.9-.4,2.1,0,7.3,2.7,9.2,3.6,5.2,2.4,4.8,8.9,3.9,14.1-1.2,6.8-8,14.5-15.1,13.6h0l.1.2h0Z"/><path id="v" d="M218.08,566.33c-.4-2.1-1.1-5-1.1-5.2,0-.3,5.9,0,20.5,0,9.8,0,19.8.3,19.9.4.1.1,2,4.2,1.3,6.3l1.3,6.3h-40.3l-1.6-7.8h0Z" fill="#fff"/><path id="w" d="M237.28,558.83l-18.2-.2-7.8-29.1c-4.2-15.5-8.6-35.9-9.3-39.7-7.3-41-10.7-97.5-14.9-161-.7-11.3-.8-16-.3-19.8,2.2-16.1,8-29.6,16.5-37.9,7.9-7.8,16-10,25.7-7.1,4.1,1.2,5.2,1.9,8.9,5.7,8.3,8.3,15.4,19.7,20.6,47.3,7,37.3,13.5,110.3,15.2,165.1.4,12.1-2.8,21.4-6.2-3.3-6.6-48.7-20.3-115.9-13.7-134.1l1.7-5.8-1.8.6-1.9-1.2,1.9,3.6c0,27.2,4.9,95.6,16.1,170.5,2.1,14,7.2,19.3,5.5,32l-1.9,15.4-9.1-.5c-4.9-.3-17.1-.2-27.1-.3h0l.1-.2h0Z" fill="#3fbdf1"/><path id="x" d="M172.78,713.93c-24.1-11.6-46.8-23.3-46.8-23.6s7.8-13.2,16.8-23l14.6-20,14.6,2c30.4,4.2,69.8,3.6,103.2-1.1,6.2-.9,18-3,18.1-2.9.3.3-73.2,90.3-73.9,90.5-.5.1-22.6-10.3-46.7-21.9h.1,0Z" fill="#3fbdf1"/><path id="y" d="M196.98,651.43c-16.7-.9-38.8-3.5-45.3-5.4-8.1-2.5-15.1-6.2-18.6-13.2-3-6-4.3-9.5-4.2-18.8.1-15.5,5.4-36.3,21.9-87.3,15.2-46.9,19.5-62.5,24.6-90.7,1.3-7.2,7.4-36.4,7.5-37.1.2-.7.1,56.6.2,98.6,0,65.8,1.1,76,0,77.5-1.1,1.4-1.8,6.5-1.8,26.7s-.4,20.9,0,21.2,1.5,3.1,1.8,4.7.1,4.1.9,5c1.4,1.5,2.4,1.1,44.7,1.1s41.6,1.6,43.4-.1l3.3-3.2,1.2-35.5c1-32.1-2.5-31.2-1-31.2s3.1-2.6,3.4-3.1.3-4.4-1.2-13.5c-2.4-14.5-2.6-21.1-3.5-49.8-3.1-99-11.3-176.9-22.3-208.1-1.5-4.3-8.7-20.6-8.5-20.8.2-.2,12.4,10.8,14.1,12.9,13.2,16.4,19.8,31.2,25.2,64.5,8.5,51.8,19.8,142.5,25.9,207.7,1.5,16.2,3.3,33.3,4.6,43.5,3,24,2,34.2-3.7,40.7-4.1,4.7-8.5,6.4-22.8,8.9-26.4,4.5-63.2,6.4-89.8,4.9h0v-.1h0Z" fill="#9fdef9"/><path id="z" d="M182.98,474.63c-.1-59.2-.5-141.6,0-136.6,3.2,34.4,14.2,124,18.5,149.2,2.2,13.2,12,48.5,16.4,73.1.8,4.6,1.9,13.8,1.9,13.8h-18.6l-18-1.8-.2-97.7h0Z" fill="#9fdef9"/><path id="aa" d="M266.88,574.23c-2.9,0-5.3-2.2-5.3-2.2,0,0-3.2-7.6-3.3-8,0-.3,1.6-2.3,2.7-2.3.7,0,3.1,0,5.3.1,5.8.1,7.8.9,7.8,1s-.1,10.6-.2,10.6c0,0,.1-3.8,0-3.6-.9,5.5-1.9,4.6-7.2,4.6h0l.2-.2h0Z" fill="#9fdef9"/><path id="ab" d="M181.38,600.13c-1-16.4,1-24.6,1.6-25.1.6-.6,12-.1,42.1-.3l42.2-.2v49.2l-43.1,1.2h-41.3l-1.6-24.8h.1,0Z" fill="#3fbdf1"/><path id="ac" d="M187.88,631.03c-1.1-.2-1.7-.4-2.3-.7l-.4-.2v-3h41.3c37.4,0,41.3,0,41.7-.1.4-.1,1-.6,1.2-1.1.1-.3.2-1.4.2-24.3s0-24,.2-24.2c.3-.6.4-.6,1.4-.5.5,0,1.1.1,1.4.2.9.2.8-1.6.8,17.3,0,22-.2,33.1-.4,33.9-.3,1.2-.9,2.1-1.8,2.6l-.4.2h-82l-.9-.2h0v.1h0Z" fill="#fff"/><path id="ad" d="M261.18,236.33c-2.8-.6-2.4-2.6-2.9-9.3-.7-8.4-1.9-11.3-8.6-14.3-4.3-1.9-12-1.5-16.1.2-2.3,1-5.3-8-3.5-10.5,1.2-1.6,5.3-2.8,18.1-2.8s12.8.7,17.6-2.3l9-5.7,1.9,6.5c.6,2.1,1.1,5.8,2.1,8l2.6,5.8-5.2,3.4c-3.6,2.3-2.6.2-.2,11.6.6,2.6.3,8.2-1.7,8.7-4,1.1-10.2,1.2-13.2.6h0l.1.1h0Z" fill="#fff"/><path id="ae" d="M192.18,174.53c-12.2-4.5-17.6-18.3-11.5-29.5,7.3-13.5,24.4-15.3,34.3-3.7,3.6,4.2,5.5,10.1,4.8,14.7-.9,5.6-6.8,14.6-11,17-4.7,2.6-11.9,3.2-16.6,1.5h0Z" fill="#3fbdf1"/><g id="af"><line id="ag" x1="81.18" y1="796.33" x2="913.88" y2="796.33" fill="none" stroke="#000" stroke-linejoin="round" stroke-width="5.2"/><path id="ah" d="M212.98,231.73s8.8-.8,14.4-5c3.8-2.8,4.6-8,6.1-12.1M270.98,731.63l-12.9,64.5h74.3c4.7,0,8.6-3.8,8.6-8.6h0c0-4.7-3.8-8.6-8.6-8.6h-16.5c-12.2,0-21-11.4-18-23.2l6.3-24.2M146.98,700.93l-40.2,52.2,66.6,32.7c4.3,2.1,9.4.3,11.5-3.9h0c2.1-4.2.3-9.4-3.9-11.5l-14.8-7.3c-10.9-5.3-13.8-19.5-5.9-28.7l16.4-19M235.98,263.93s69.8-3.7,120.7,328.2c1.8,11.9-7.4,22.6-19.5,22.6h-8.7M256.18,234.73c.5.1,1,.3,1.6.6,4.8,1.7,10.5,2.8,15.4,1,6-2.3,2.5-8.6,2.1-13.1-.1-1.1-1.1-7.7.9-7.8h4.6c1.2,0,2-1.3,1.3-2.3-4.1-7-6.1-15-5.8-23.1M199.08,135.93c-10.4,0-18.8,8.4-18.8,18.8s8.4,18.8,18.8,18.8,8.9-1.6,12.4-4.6c-8,10.1-10.8,24.1-8.1,36.7,1,4.5,2.3,8.9,4,13.2,1.8,4.6,5.1,7.9,5.7,12.9.5,3.9-7.4,26-9.9,35.7,0,0,9.1-34.8,9.9-35.7.2-.2,5.8-1.1,9.3-2.2,3.6-1.2,5.1-2.8,5.1-2.7,0,8.5,6.9,15.6,15.4,15.6s15.5-6.9,15.5-15.4-6.9-15.4-15.5-15.4-6.6,1.1-9.3,3.1h0c-3.8-4.5-6.4-10.3-1.5-14.7,3.1-2.8,7.9-1.9,11.5-1.1,11.9,2.7,32.3-.8,35.4-14.8,2.9-13.4-10.6-22-21.5-25.8-14-4.9-30.4-4.3-41.8,6.1-.4.3-3.9,4.2-4.2,4.6,2.1-3.1,6.5-10.4,6.5-14.2,0-10.4-8.4-18.8-18.8-18.8h0l-.1-.1h0ZM217.08,561.23l2.7,13h40.3l-2.6-12.6M267.28,581.73v-3.4c0-2.3,1.9-4.1,4.2-4.1,1.1,0,2.2.4,2.9,1.2.8.7,1.2,1.7,1.2,2.8M157.48,647.33l-32.1,44,93.9,44.9,27.6-33.2M271.38,574.23h-85.9c-2.4,0-4.4,1.9-4.4,4.3v46.4h86.2v-43.3M224.88,260.33c2.8.3,5.6,1,8.2,2.3h0c9.1,4.4,16.9,15.6,22.3,39.4,16.8,73.6,19.9,202.6,20.2,276.2M275.58,578.13c0,24.4-.2,45.2-.3,52.1,0,1.8-1.5,3.2-3.3,3.2h-85.8c-1.8,0-3.3-1.5-3.3-3.3v-5.3M182.98,326.53v248.4M294.98,645.13l-48.2,57.9v28.6h119.6l-37.9-116.9-19.9-61.2M187.68,292.63c-8.3,25.6-2.9,58.1-4.9,84.2-2.3,31.9-7.4,63.6-15.3,94.6-10.8,42.1-28.1,82.5-36.7,125.1-2.9,14.4-4.1,31.4,6.4,41.7,6.9,6.8,17.2,8.8,26.8,10.1,43.5,5.8,87.7,4.8,130.9-3.2,3.8-.7,7.7-1.5,10.8-3.8,14.2-10.6,8.9-33,7.1-47.7-3.1-24.8-4.7-49.9-7.4-74.7-6.3-57.8-13.3-115.7-22.6-173.1-4.4-27.2-12.6-55.4-34.6-73.8-3.8-3.1-7.9-5.9-12.3-8.1-20.4-10.4-36.8,1.3-46.1,23-.8,1.9-1.5,3.8-2.1,5.7h0ZM183.78,312.93c-.3,3.9,7.5,133.4,23.4,203.7,3.8,16.6,7,31.5,9.9,44.5,22.8-.2,63.8.8,63.8.8,0,0-.9-1.4-1.3-3.8-4.1-25-26.4-166.6-25.7-220.6M181.58,623.83s1.4,2.2,1.4,6.4,13.2,3.5,14.9,3.5l68-.2s9.6,2.5,9.6-7.1,2.9-49.2-1.1-51.1c-4-1.9-29-.4-29-.4l-56.4-.8s-8.3-5.1-7.9,10.8c.4,15.9.4,38.8.4,38.8h0l.1.1h0ZM248.08,241.43l-2,25.4" fill="none" stroke="#000" stroke-linejoin="round" stroke-width="5.2"/></g></g><g id="ai"><ellipse id="aj" cx="631.63" cy="77.74" rx="19.98" ry="18.97" fill="#3fbdf1"/><ellipse id="ak" cx="569.65" cy="92.92" rx="9.6" ry="8.8" fill="#fff" stroke="#9fdef9" stroke-miterlimit="3.9" stroke-width="3"/><ellipse id="al" cx="580.91" cy="8.8" rx="9.6" ry="8.8" fill="#9fdef9"/><ellipse id="am" cx="597.93" cy="154.08" rx="32.03" ry="32.27" fill="#3fbdf1"/></g><g id="an"><path id="ao" d="M477.48,188.93h0c-2.7,0-5.4.1-7.6.6-14.3,3-19.1,13.2-18.7,26.2l.2,5.2,3.9.2c0-8.2-.9-15.7,5.4-22.1,4.5-4.5,9.2-5.9,15.3-5.9h62.4c0-.1,108,0,108,0h29c6.8,0,16-1,22,2,13.1,6.5,10.4,21.5,10.4,33.6v159.1c0,12.9,0,2.4-.2,3.4h-163.7c-6.6,0-48.2-.8-52,.6-3.9.3-9.6.2-13.6.2h-23v-13.1c-1.3,0-2.8,0-4.1.2v72.3c0,9.6.2,19.9,0,29.4,0,3.1-1.1,7.1,3.9,5.3.3-3,.2-7.9.2-11.1v-78.6h19.9c2.8,0,8.2-.2,10.9.2,2.2.2,3.9.2,6.2.2h167.4c5.1,0,14.1.2,19-.2,8.8-.2,20-.2,28.8,0,.3,9,.1,19,.1,28.1v285.6c0,4.5,0,10.3-.2,14.6-9.2-2.9-17.7-2.2-23.3,6.7h-128.5c-25.3,0-51.2.3-76.5,0-7.4-8.4-13.3-10.6-23.9-6.1-.5-42,0-84.8,0-126.9v-58.2c0-13.5-.3-27,0-40.5h-4.2v159.1c0,16-.5,35.6,0,51.2.1,6.1-.2,12.7,0,18.7-5.7,9.2-7.1,19.3,2.9,26.3,2.4,1.6,5.2,2.9,10.3,2.9,4.6,0,7.2-1.2,10.6-3,5.7-3.7,7.7-10.9,6.5-19.5,7.5-.3,16.1,0,23.7,0h44.1l132.9.2c-1.9,7.9-.5,13.8,5.4,19.4,6.1,4.2,16,6,24,.1,8.2-9.4,9-17.7.4-27.3v-20.1c-.1,0,0-97.8,0-97.8v-12.5h0v-111.3c0-5.1,0-10.3.2-15.1-.5-10-.2-21-.1-31.8h20.7v-17.2l21.1,4v-18.5l-21.4,3.7.3-15.1h-20.6c0-1,.2-1.8.3-2.2.7-14.6,0-30.9,0-45.6v-118.4c0-12.8,2.3-24.9-7.2-34.6-4.3-4.4-9.4-6-14.8-6.5h-212.8v-.1h0ZM699.78,727.33c7,.2,12.9,5.7,13.5,12.8.6,7.6-5.1,14.3-12.7,15-7.7.7-14.5-5.1-15.1-12.8s5.2-14.4,12.9-15h1.4,0ZM464.38,727.53c7.4.1,13.3,6.2,13.2,13.5,0,7.4-6.1,13.3-13.5,13.3s-13.5-6.1-13.4-13.5c0-7.5,6.2-13.4,13.7-13.3h0Z"/><path id="ap" d="M464.18,754.33c-7.5,0-13.5-6.1-13.4-13.5,0-7.5,6.2-13.4,13.7-13.3,7.4.1,13.3,6.2,13.2,13.5,0,7.4-6.1,13.3-13.5,13.3h0Z" fill="#3fbdf1"/><path id="aq" d="M700.58,755.13c-7.7.7-14.5-5.1-15.1-12.8s5.2-14.4,12.9-15,14.3,5.2,14.9,12.8c.6,7.6-5.1,14.3-12.7,15h0Z" fill="#3fbdf1"/><circle id="ar" cx="463.58" cy="740.93" r="6.7" fill="#ecf9fe"/><circle id="as" cx="699.38" cy="741.33" r="6.7" fill="#ecf9fe"/><path id="at" d="M455.28,221.13c0-8.2-.9-15.7,5.4-22.1,4.5-4.5,9.2-5.9,15.3-5.9h62.4c0-.1,108,0,108,0h29c6.8,0,16-1,22,2,13.1,6.5,10.4,21.5,10.4,33.6v159.1c0,12.9,0,2.4-.2,3.4h-163.7c-6.6,0-48.2-.8-52,.6-3.9.3-9.6.2-13.6.2h-23v-13.1c0-3.8.2-8.1,0-11.8.3-1.2.2-8.4.2-10v-121.3h-4c1.2-.2,2.8-.2,4-.2v-14.3h0l-.2-.2h0ZM473.78,249.93v27.1c-.1,2.1-.4,4,.1,6.1.7.6.3.4,1.2.5h0c-.3.2-.7.3-1.1.4-.8,1.9-.3,12.6-.3,15.2v53.9c0,5.8-1,12.8,3.6,17.2,3.3,3.2,6,3.6,10.3,3.6h77.2c4.5.1,9.4.3,13.8-.3,4.5-.6,8.4-6.3,8.6-10.5.3-5.1.1-10.3.2-15.4v-88.2c0-11.7.1-23.4,0-35.1,0-3.9-1.1-6.4-3.9-9.2-4.1-4.1-9.2-3.4-14.5-3.5h-66.4c-6.2,0-12.5-.2-18.6,0-5.7.4-9.5,4.6-10.3,10.2-.4,4-.5,8.4-.3,12.4.2,4.8-.4,10.7.3,15.3h0l.1.3h0ZM629.58,226.13c-1,.6-1.7.9-1.9,2.3-.6,3.4-.1,7.3-.1,10.7-1.4.8-3,1.7-4.3,2.8-12.5,10.7-4.4,29.2,12.1,27.4,15.5-4.6,17.1-22.4,2.6-29.5,0-9.5,2.9-14.1-8.4-13.6h0v-.1h0ZM656.28,283.23c-3.3.9-3.4,4.1-1.1,6.1,3.3,1.1,18.8.5,23.2.5,2.9-1.1,3.2-4.7,1.1-6.3-3.3-.9-18.9-.4-23.2-.4h0v.1h0ZM621.58,283.43c-1.1.9-2.2,1.8-2.3,3.3,0,.5.2,1,.5,1.4,2.3,2.6,22,1.5,26.4,1.5.9-1,1.7-2.1,1.6-3.5,0-.7-.5-1.3-1.1-1.7-3.2-2.1-20.6-1.2-25.2-.9h0l.1-.1h0ZM622.58,296.33c-4.6,2.5-3.6,6.5,1.5,6.7,7,.3,14.2,0,21.2,0,4.3-1.9,2.4-6.5,0-6.6-7.4-.3-15.3-.3-22.7,0h0v-.1ZM655.78,296.33c-7,6.4,3.4,7.2,7.8,6.8,4.7-.4,10.1.4,14.8-.1,1.1-.7,1.6-.9,2-2.2,1.3-4.9-6-4.7-8.8-4.6-5.3,0-10.5,0-15.7.1h-.1ZM637.98,309.63c-2.5,0-15.8-.2-16.4.4-6.2,7.4,6.2,6.1,8.3,6.1,3.3,0,6.6,0,9.9.1,3.7,0,7.9.6,8-4.4-1.4-3.2-6.7-2.3-9.8-2.2ZM655.28,309.53c-1.7,1.2-2.5,2.6-1.6,4.7,1.4,1.5,3.3,2,5.3,2,6.5,0,13.3,0,19.8-.1,10.8-9.3-20.7-6.6-23.6-6.6h.1ZM621.98,322.43c-1.6.7-3,1.9-2.9,3.8,2,4.1,21.5,2.7,26.6,2.8,2.3-1.1,2.8-2.9,1.8-5.3-.4-1-1.8-1.2-2.7-1.3-7.3-.2-15.5-.2-22.8,0h0ZM656.38,322.43c-4.6,1.2-3.3,5.7,0,6,6.8.8,14.9.3,21.8.3,1.5-.3.9,0,1.9-.9.7-1.8.7-4.8-1.3-5.1-6.6-.9-15.8-.4-22.4-.3ZM620.88,335.53c-.8,1-1.7,2-1.5,3.4.1.9.7,1.6,1.5,2,3.1,1.8,21.3,1.1,25.6.8,1.5-1.4,2.2-3.3,1.2-5.2-1.4-1.4-4.5-1.2-6.5-1.1-6.7.2-13.5-.1-20.2.2h0l-.1-.1h0ZM654.68,335.53c-.9,1-1.7,1.9-1.6,3.3,0,.6.2,1.1.6,1.5,2.4,2.6,20.8,1.5,25.2,1.4.9-1,1.7-2.1,1.7-3.5,0-.7-.4-1.3-.9-1.7-3-2.2-20.5-1.2-25-1.1h0v.1h0Z" fill="#3fbdf1"/><path id="au" d="M473.78,249.93c-.7-4.6-.1-10.5-.3-15.3-.1-4,0-8.5.3-12.4.8-5.6,4.5-9.7,10.3-10.2,6.1-.3,12.4,0,18.6,0h66.4c5.3,0,10.4-.6,14.5,3.5,2.8,2.8,3.8,5.3,3.9,9.2v35.1l.2,57.6v30.6c0,5.1,0,10.3-.2,15.4-.3,4.3-4.1,9.9-8.6,10.5s-9.3.4-13.8.4h-20.8c-18.8-.2-37.6,0-56.4-.1-4.4,0-7-.5-10.3-3.6-4.6-4.4-3.6-11.4-3.6-17.2v-53.9c0-2.7-.4-13.4.3-15.2.3,0,.7-.2,1.1-.3.8,0,1.4.1,2.2.3,1.2,2.6.4,56.6.4,64.1,0,4-.7,12.7.6,16.2.8,2.3,2.8,4.2,5,5.1.9.4,2,.4,3,.5,15.9.5,32,0,47.9,0,13.8,0,27.8.6,41.5.1,1.1,0,2.1-.1,3.2-.5,1.9-.8,3.3-2.3,4-4.2,1.5-4,.7-34.4.7-40.6v-62.3c-.1-12.2,0-24.4,0-36.6s-3.9-9.7-9.5-9.8h-45c-14.4.2-28.8.1-43.1.2-1.2,0-2.4.2-3.5.6-1.7.7-4,2.9-4.4,4.7-1.8,9,.6,18.8-.8,27.8,0,.5-.9.6-1.4.9-.6-.1-1.5-.2-2.1-.2h0l-.3-.4h0Z" fill="#272727"/><path id="av" d="M475.88,250.13c.5-.2,1.4-.4,1.4-.9,1.4-9-1-18.9.8-27.8.4-1.9,2.6-4.1,4.4-4.7,1.1-.4,2.3-.6,3.5-.6,14.4,0,28.8,0,43.1-.1h45c5.5,0,9.5,4.2,9.5,9.8v98.9c.1,6.2,1,36.5-.6,40.6-.7,1.9-2.1,3.4-4,4.2-1,.4-2.1.5-3.2.5-13.8.5-27.7-.1-41.5-.1-15.9,0-32,.5-47.9,0-1,0-2.1,0-3-.5-2.2-.9-4.2-2.9-5-5.1-1.3-3.5-.6-12.1-.6-16.2,0-7.5.8-61.5-.4-64.1-.8-.1-1.3-.2-2.2-.3h0c1.2-.2,1.1,0,2-.6.6-1.7,0-3.9.3-6.1.6-1.8.3-16.7.1-19.2-.2-3.3-.1-4.7-1.7-7.7h0Z" fill="#9fdef9"/><path id="aw" d="M627.48,239.13c0-3.4-.4-7.4.1-10.7.2-1.4.9-1.7,1.9-2.3,11.3-.4,8.3,4.1,8.4,13.6,14.4,7.1,12.9,24.9-2.6,29.5-16.5,1.9-24.6-16.7-12.1-27.4,1.2-1.1,2.9-2,4.3-2.8h0v.1h0Z" fill="#fff"/><path id="ax" d="M451.28,235.73h4v121.3c0,1.6.2,8.8,0,10-1.5,0-2.6.2-3.7-.7-.7-2.1-.3-21.3-.3-25.4.2-35.1-.4-70.2,0-105.2h0Z" fill="#272727"/><path id="ay" d="M473.78,257.73v-7.9c.6,0,1.5,0,2.1.2,1.5,3,1.5,4.3,1.7,7.7h-3.8Z" fill="#fefefe"/><path id="az" d="M473.78,257.73h3.7c.2,2.6.4,17.4-.1,19.2h-3.6c-.1-6.4,0-12.9,0-19.2h0Z" fill="#272727"/><path id="ba" d="M475.18,283.53c-.9,0-.5,0-1.2-.5-.5-2.1-.2-4-.1-6.1h3.6c-.3,2.2.3,4.4-.3,6.1-.9.6-.8.4-2,.4h0v.1Z" fill="#fefefe"/><path id="bb" d="M678.38,289.83c-4.4,0-19.9.6-23.2-.5-2.2-2-2.2-5.3,1.1-6.1,4.3,0,19.9-.5,23.2.4,2.1,1.6,1.8,5.2-1.1,6.3h0v-.1h0Z" fill="#fff"/><path id="bc" d="M646.18,289.63c-4.4,0-24.1,1.1-26.4-1.5-.4-.4-.6-.9-.5-1.4.1-1.5,1.2-2.4,2.3-3.3,4.6-.2,22-1.1,25.2.9.6.4,1,1,1.1,1.7.1,1.4-.7,2.5-1.6,3.5h0l-.1.1h0Z" fill="#fff"/><path id="bd" d="M645.18,303.03c-7,0-14.2.3-21.2,0-5-.2-6.1-4.1-1.5-6.7,7.4-.2,15.3-.3,22.7,0,2.4.1,4.2,4.8,0,6.6h0v.1Z" fill="#fff"/><path id="be" d="M678.38,303.03c-4.7.5-10.1-.2-14.8.1-4.4.3-14.9-.5-7.8-6.8,5.2-.1,10.5,0,15.7-.1,2.9,0,10.1-.3,8.8,4.6-.4,1.4-.8,1.5-2,2.2h.1Z" fill="#fff"/><path id="bf" d="M629.88,316.13c-2.1,0-14.5,1.4-8.3-6.1.6-.7,14-.4,16.4-.4,3.1-.1,8.4-1.1,9.8,2.2-.1,5-4.4,4.6-8,4.4-3.3,0-6.6,0-9.9-.1h0Z" fill="#fff"/><path id="bg" d="M372.18,36.43c-10.6.1-20.4,2.6-28.1,10.4-3.4,3.4-7.8,8.4-8.7,13.5,0,.3,0,.7-.1,1.1h0c-.3,8.7,0,18.3-.2,26.9-7.9,0-18.4-1.7-24.6,4-6.7,6.2-5.7,12.4-5.7,20.6v20.3c.1,17.5-.2,35-.2,52.5,0,5.3.5,8.2,4.5,12.1,1.7,1.8,6.1,4.5,8.6,4.6,6.7.4,13.7.6,20.5.4,8.7-.3,21.3,2.7,27.8-4.3,2.1-2.2,4.1-5.5,4.5-8.5.5-5.4.3-11.1.2-16.6l-.2-28.2v-26.6c.1-8.7,2.2-19.7-5.2-26-7.1-6.1-16.4-4.2-25.3-4.4l.2-27.6c3-7.6,13.2-16.3,20.9-17.8,9.2-1.8,20.5-1.1,30.1-1.1h1.2c11,0,22.1-.2,33.1,0v244.4c0,28.7.3,58.3-.2,86.9,0,9.6,0,19.2.1,28.8,0,1.6,0,3.2.1,4.8.6,8.3.2,23,.2,31.7l-.3,53.2v22.8c.1,10.6,2.7,20.3,10.4,28,3.7,3.6,9.1,8.4,14.6,8.7v-4.8c-7.8-2.6-17.1-13.1-18.6-21.1-1.8-9.2-1.1-21.1-1.1-30.6l-.2-32.6c0-7.6.1-16.1-.2-23.6-.2-1.4-.2-3.3-.2-4.7,0-9-.1-18,.1-26.9,0-11.2-.2-22.4,0-33.6l.2-43.5c0-14.3-.2-29,0-43.3.2-18.8,0-37.7,0-56.5l-.2-188.1h0v-.1h0v-4.6c-4.3,0-.8,0-4.7-.1h-.2c-9.6,0-19.2,0-28.9.1-1.3,0-2.7.1-4,.1h0c-6.9,0-13.8-.6-20.7-.5h0l.5-.2h0ZM339.08,92.63h0c5.1,0,10.2-.3,15.3.1,14.1,1.1,12.1,13.7,12.1,23.5v53.6c0,5.9,0,11.8-.2,17.7-.2,6.4-4,9.7-10,11h-24.3c-4.1,0-8.7.2-12.6-.2-3.6-.3-9.2-5.2-9.7-8.7-.6-3.7-.4-9.5-.3-13.3v-19.8l.1-32.9c0-6.1,0-12.1.2-18.2.2-7.1,3.2-11.2,10.5-12.6,5.7-.4,13.1,0,18.9-.2h0Z" fill="#9fdef9"/><path id="bh" d="M337.88,93.73c-17.1,0-17.3,0-19.4.8-3.7,1.3-6,3.6-7.2,7.2-.5,1.5-.6,5.5-.8,41.9-.1,22.1,0,41.5,0,43.2.3,3.4.6,4.3,2.7,6.7,2,2.3,4.7,3.8,7.1,4.1.7,0,5,.2,10.7.2v11.7c0,3.2,2.6,5.7,5.8,5.7s5.8-2.6,5.8-5.7v-11.7c12,0,13,0,14.8-.6,3.8-1.2,6.1-3.2,7.4-6.7.6-1.4.6-3.9.6-44.2s0-42.8-.6-44.5c-1.3-3.9-3.8-6.4-7.6-7.6-1.8-.6-3.5-.6-19.3-.6h0v.1Z" fill="#3fbdf1" stroke="#fff" stroke-miterlimit="3.9" stroke-width="3.8"/><path id="bi" d="M678.88,316.03c-6.5.2-13.3.1-19.8.1-2,0-3.9-.5-5.3-2-.9-2.1-.2-3.5,1.6-4.7,2.8,0,34.3-2.8,23.6,6.6h-.1Z" fill="#fff"/><path id="bj" d="M645.68,329.03c-5.1,0-24.6,1.3-26.6-2.8,0-1.9,1.3-3.1,2.9-3.8,7.3-.2,15.5-.2,22.8,0,.9.1,2.3.3,2.7,1.3,1,2.4.5,4.2-1.8,5.3h0Z" fill="#fff"/><path id="bk" d="M678.08,328.73c-6.9,0-15,.5-21.8-.3-3.3-.4-4.5-4.8,0-6,6.5,0,15.8-.6,22.4.3,2,.3,2,3.3,1.3,5.1-1,.9-.4.6-1.9.9h0Z" fill="#fff"/><path id="bl" d="M646.38,341.73c-4.3.3-22.4,1.1-25.6-.8-.8-.5-1.4-1.1-1.5-2-.2-1.4.7-2.4,1.5-3.4,6.7-.3,13.5,0,20.2-.2,1.9,0,5.1-.3,6.5,1.1,1,2,.4,3.8-1.2,5.2h0l.1.1h0Z" fill="#fff"/><path id="bm" d="M678.88,341.83c-4.3,0-22.8,1.2-25.2-1.4-.4-.5-.6-.9-.6-1.5,0-1.4.7-2.4,1.6-3.3,4.4-.1,22-1.2,25,1.1.5.4.9,1.1.9,1.7,0,1.5-.7,2.5-1.7,3.5h0v-.1h0Z" fill="#fff"/><path id="bn" d="M455.18,396.33h19.9c2.8,0,8.2-.2,10.9.2v26.9c.2,4.7-.6,15.5,2.2,19.2,1.7,1,4,1.5,6,1.5h165c8.9,0,18.2.9,19-10.7.3-4.5.2-9,.2-13.5l.2-23.4c8.8-.2,20-.2,28.8,0,.3,9,.1,19,.1,28.1v285.6c0,4.5,0,10.3-.2,14.6-9.2-2.9-17.7-2.2-23.3,6.7h-128.5c-25.3,0-51.2.3-76.5,0-7.4-8.4-13.3-10.6-23.9-6.1-.5-42,0-84.8,0-126.9v-58.2c0-13.5-.3-27,0-40.5-1.4,0-.5-.1,0-13.7.3-3,.2-7.9.2-11.1v-78.6h0l-.1-.1h0ZM490.38,478.53c-1.6,1-3.8,2.6-4,4.5-.6,5.6-.3,13.1-.3,18.7l.2,37.2v157.9l187.4-.3h4.7l-.1-149.8v-39.6c0-6.3.3-13,0-19.3-.2-4-5.5-8.7-9.6-8.9-6.8-.3-13.7-.2-20.5-.1h-39.9l-72.4-.2c-14.4,0-28.8-.2-43.2-.2h-2.3v.1h0Z"/><path id="bo" d="M485.98,396.53c2.2.2,4,.2,6.2.2h167.4c5.1,0,14.1.2,19-.2l-.2,23.4c0,4.5.1,9-.2,13.5-.9,11.6-10.1,10.8-19,10.7h-127.1c-12.6,0-25.3.1-37.9,0-1.9,0-4.3-.5-6-1.5-2.7-3.7-2-14.5-2-19.2v-26.9h-.2Z" fill="#3fbdf1"/><path id="bp" d="M657.38,429.03c-5.5,1.4-11.2-1.9-12.6-7.4s1.9-11.1,7.5-12.5c5.5-1.4,11.1,1.9,12.5,7.4s-1.9,11-7.4,12.5Z" fill="#fff" stroke="#000" stroke-miterlimit="3.9" stroke-width="2.8"/><path id="bq" d="M528.18,534.33c-12.1,1.3-23-7.6-24.3-19.9s7.6-23.3,19.7-24.5c12-1.2,22.8,7.7,24,19.9s-7.5,23.2-19.5,24.5h.1Z" fill="#fff" stroke="#000" stroke-miterlimit="3.9" stroke-width="8.6"/><path id="br" d="M614.48,553.43c.2-12.5,0-25.4,0-38,2.4-.7,70.7-21.7,72.2,1.9v.9c0,9-.1,35.2-.1,35.2-23.7.3-48.3,0-72.1,0h0ZM636.98,524.13c-.8.4-2,.8-2.2,1.8-.5,3.2-2.4,15.9,1.9,16.7,3.9.7,9.9.4,13.9.3,1.1-.8,2-1.4,2.2-2.9.4-3.7,1.1-11.6-.8-14.8-1.1-1.9-12.8-1.1-15-1.1h0ZM665.98,529.33c-2,.3-3.7,1.7-4.4,3.7-.7,1.9-.3,4.1,1,5.7s3.4,2.3,5.4,1.9c3-.6,5.1-3.6,4.5-6.7-.5-3.1-3.4-5.2-6.5-4.7h0v.1Z"/><path id="bs" d="M650.68,542.83c-4.1,0-10,.4-13.9-.3-4.3-.8-2.4-13.5-1.9-16.7.1-1,1.4-1.4,2.2-1.8,2.3,0,13.9-.8,15,1.1,1.9,3.2,1.2,11,.8,14.8-.1,1.5-1,2.1-2.2,2.9h0Z" fill="#3fbdf1"/><path id="bt" d="M667.98,540.73c-2,.4-4.1-.4-5.4-1.9-1.3-1.6-1.7-3.8-1-5.7s2.4-3.4,4.4-3.7c3.1-.5,6,1.6,6.5,4.7.5,3.1-1.5,6.1-4.5,6.7h0v-.1Z" fill="#3fbdf1"/><path id="bu" d="M609.88,429.23c-5.5,1.4-11.2-1.9-12.6-7.4s1.9-11.1,7.5-12.5c5.5-1.4,11.1,1.9,12.5,7.4s-1.9,11-7.4,12.5Z" fill="#fff" stroke="#000" stroke-miterlimit="3.9" stroke-width="2.8"/><path id="bv" d="M516.08,428.83c-5.5,1.4-11.2-1.9-12.6-7.4s1.9-11.1,7.5-12.5c5.5-1.4,11.1,1.9,12.5,7.4s-1.9,11-7.4,12.5h0Z" fill="#fff" stroke="#000" stroke-miterlimit="3.9" stroke-width="2.8"/><path id="bw" d="M562.38,428.93c-5.5,1.4-11.2-1.9-12.6-7.4s1.9-11.1,7.5-12.5c5.5-1.4,11.1,1.9,12.5,7.4s-1.9,11-7.4,12.5Z" fill="#fff" stroke="#000" stroke-miterlimit="3.9" stroke-width="2.8"/><path id="bx" d="M472.88,714.53v-183.5l-.2-43.2c0-6.5-.4-15.2.3-21.7.2-2.2,2.8-4.1,4.6-5.3h2.6c16.4,0,32.8.1,49.2.2l82.5.2h45.4c7.8,0,15.6-.1,23.4.2,4.7.2,10.7,5.6,10.9,10.3.4,7.3,0,15,0,22.4v46.1l.1,174h-5.4l-213.5.3h.1,0ZM522.08,490.03c-11.9,2.1-20,13.6-18,25.7s13.3,20.3,25.2,18.4c8.9-1.5,15.7-8.2,17.8-16.6.7-2.9.9-6,.3-9.1-2-12.2-13.4-20.4-25.4-18.3h0l.1-.1h0ZM614.48,515.43c0,12.6.2,25.4,0,38,23.8,0,48.4.4,72.1,0l.2-38.2h-72.3v.2Z" fill="#3fbdf1"/><circle id="by" cx="513.28" cy="418.83" r="2.9" transform="translate(17.64 858.4) rotate(-80.78)"/><circle id="bz" cx="559.48" cy="418.83" r="2.9"/><circle id="ca" cx="607.28" cy="418.83" r="2.9"/><circle id="cb" cx="654.78" cy="418.83" r="2.9"/><circle id="cc" cx="632.48" cy="254.03" r="5.9"/><circle id="cd" cx="526.08" cy="511.53" r="9.3"/><path id="ce" d="M331.88,136.63v-9.2c0-3.1.5-1.7,1.6-1.7h8.2c1.2,0,1.7.8,1.8,1.8.2,3,0,6.1,0,9.1h9.4c.9,0,1.3,1.1,1.3,1.8,0,1.7.4,8.4-.4,9.6-1,.6-4.7.3-6.1.3h-4.4v5.4c0,5.3-.1,5-5.3,4.9-5.6-.1-6.3,1.2-6.3-5.1v-5.3h-6.2c-1.2,0-2.5.1-3.7,0-.4,0-.7,0-.9-.3-.9-.9-.5-6.7-.5-8.2,0-1.7-.3-3.1,1.9-3.1,3.1-.1,6.4.2,9.5,0h.1Z" fill="#ecf9fe"/><g id="cf"><path id="cg" d="M612.68,680.73c-.8.8-1.9,1.7-3,2.2-9.1,5.4-32,6.3-42.8,6.8-2.6.1-6.2,0-8.7.1-1.8.2-5.8,0-7.7,0-4.4-.1-9.8-.3-14.1-.7-7.1-.7-28.3-2.4-32.8-7.7.1,1.7.2,3.5.4,5.2,0,.4,0-.3,0,.1,0,.8.6,5.2.5,5.6.3,1.4,1.8,12.8,1.7,14,.4,1.6,1.3,8.3,1.5,10l1.2,9,4.1,33.6c.1.6.2,1.3.3,2l1.9,16.2.6,4.5c0,.5,0,1.3.2,1.7v-.3c.5-.3,7.6-.1,8.6-.1h70.5c.8,0,4.7-.1,5.1.2v.2c.1-.2.4-3.4.4-3.9.6-6.3,1.5-12.5,2.3-18.7l.2-1.3c.1-.9.2-1.9.3-2.8.6-5.3,1.3-10.6,1.9-15.9,0-.4.1-.8.2-1.2.4-1.9.7-5.3,1-7.4l1.8-14.1c.3-2.1,1.1-9.4,1.5-11.3,0-.5.3-3,.4-3.6l1.4-10.8c.3-1.6.5-3.9.6-5.6,0-1.5.4-4.1.5-5.8h0v-.2h0Z" fill="#9fdef9"/><path id="ch" d="M516.08,783.23v-.3c.5-.3,7.6-.1,8.6-.1h70.5c.8,0,4.7-.1,5.1.2v.2c-.5,3.1-.1,9.7-4.4,10-2.6.2-5.7.1-8.3.1h-60.6c-3.2,0-8.6.9-9.8-3.1-.7-2-.8-4.9-1-7.1h0l-.1.1h0Z" fill="#3fbdf1"/><path id="ci" d="M544.78,689.53c-7.4-.3-17.8-1.4-24.6-2.5-7.9-1.3-14.2-3.3-15.8-5.2-.27-.33-.13-.7.4-1.1,2.7-2.3,10-4.3,20.7-5.6,12.9-1.6,22.9-2.1,38.6-1.9,22.7.3,31.7,1.1,39.2,3.3,4.1,1.2,9,3.6,9,4.4s-4.8,3.4-8.9,4.6c-11.4,3.3-36.3,5-58.5,4.1h0l-.1-.1Z" fill="#fff"/><path id="cj" d="M594.58,603.43c-6.38.78-11.39,5.49-15.76,9.88-7.11,7.34-9.55,17.91-9.34,27.86-.03,15.89.22,32.53.33,48.42,1.65-.09,3.64-.1,4.89-.25.07-14.35.29-29.79.05-44.13.15-6.27.05-12.73,2.02-18.75,2.97-7.16,8.44-13.36,15.22-17.14,1.77-.56,3.14-1.18,2.6-3.23v-2.66h0Z"/><circle id="ck" cx="555.88" cy="605.03" r="10.8" fill="#1a1a1a"/><circle id="cl" cx="594.18" cy="604.43" r="10.8" fill="#1a1a1a"/><path id="cm" d="M557.28,604.43c-5.5.3-10.9,4.6-14.6,7.9-7.8,6.9-10.3,15.7-10.4,25.4v20.7s.11,9.61.13,15.92c0,2.63.08,14.4.08,14.4l5.05.51.14-33.54c0-8.6-.7-19.5,1.1-27.8,1.6-7.3,10.8-16.8,18.6-19.2v-4.4h0l-.1.1h0Z"/></g><g id="cn"><path id="co" d="M768.58,505.83h0c0,7.2,1.4,17.4-3.8,22.6-2,2-4.4,3.2-6.9,3.7-10.7,1.9-20.9.6-31.5,3.4-1.4.3-3.8,2-4.8,3-6.4,6.2-4.7,16.7-4.7,24.9v20.5h0c0,7.1,1.2,16.7-3.8,21.7s-6.2,4-9.7,3.9h-30.6c-2.9,0-5.9-.1-8.8,0-1.1,0-2.8.2-3.9.1l.5,3.1h42.9c4.1,0,8.3-1.5,11.7-4.9,6.4-6.2,4.7-16.7,4.7-24.9h0v-19.6h0c0-7.2-1.6-17.6,3.8-22.6,1.8-1.6,1.6-2,3.8-2.7,9.5-3.4,27.8-2.7,32.3-3.6,4-1.7,4-1.8,7.1-3.9,6.4-6.2,4.7-16.7,4.7-24.9h-3v.2h0Z" fill="#3fbdf1"/><path id="cp" d="M754.78,306.23c-4.1.1-8.3,2-11.6,5.3-5.9,6-4.3,16.5-4.2,24.4,0,3.2.2,6.8.1,9.9,0,8.1,1.6,16.2,1.6,24.4,0,6-.9,55.1-1.3,75.1h0c0,1.8,0,3.7-.1,5.5,0,2-.1,4-.2,5.9v128.8h0v.2c0,1.1,0,2.6-.1,3.7v38.8s.7,17.9-4.5,23.1c-2,2-4.4,3.2-6.9,3.7-5.4.9-10.7,1.1-16,1.4-1.6,0-3.2,0-4.8-.1h-53.7v2.4h58.5c4.8-.2,10.3-.3,17.8-1.1,2.53-1,4.9-2.3,7.1-3.9,5.5-9,4.8-17.1,4.9-25.4v-171.5c0-3.8.2-7.6.2-11.5.4-20.8,1.9-71,1.2-78.9-.4-4.2-.5-8.4-1.1-14.7-.3-3.4-.3-5.7-.3-5.7,0-6.5-.5-17.5-.5-20.3.9-9.2,1.7-10.1,4-12.3,5.1-5.8,14.2-6.1,19.7-.6,5.2,5.2,3.5,16,3.5,23.2h3c0-8.2,1.7-18.7-4.7-24.9-3.4-3.3-7.6-4.9-11.8-4.7h0l.2-.2h0Z" fill="#3fbdf1"/></g><g id="cq"><path id="cr" d="M646.68,601.33h12c3.7,0,6.7,3,6.7,6.6v5.8c0,3.7-3,6.6-6.7,6.6h-12c-3.7,0-6.7-3-6.7-6.6v-5.8c0-3.7,3-6.6,6.7-6.6Z" fill="#0d749f" stroke="#fff" stroke-miterlimit="3.9" stroke-width="3.2"/><path id="cs" d="M647.28,647.93h12c3.7,0,6.7,3,6.7,6.6v5.8c0,3.7-3,6.6-6.7,6.6h-12c-3.7,0-6.7-3-6.7-6.6v-5.8c0-3.7,3-6.6,6.7-6.6Z" fill="maroon" stroke="#fff" stroke-miterlimit="3.9" stroke-width="3.2"/></g><g id="ct"><rect id="cu" x="757.18" y="353.23" width="25.7" height="132.6" fill="#3fbdf1"/><path id="cv" d="M756.28,337.83h27.2c2,0,3.7,1.7,3.7,3.7v6.7c0,2-1.7,3.7-3.7,3.7h-27.2c-2,0-3.7-1.7-3.7-3.7v-6.7c0-2,1.7-3.7,3.7-3.7Z" fill="maroon"/><path id="cw" d="M756.28,487.13h27.2c2,0,3.7,1.7,3.7,3.7v6.7c0,2-1.7,3.7-3.7,3.7h-27.2c-2,0-3.7-1.7-3.7-3.7v-6.7c0-2,1.7-3.7,3.7-3.7Z" fill="#0d749f"/><path id="cx" d="M767.78,331.23h4c.1,0,.2,0,.2.2v6.4c0,.1,0,.2-.2.2h-4c-.1,0-.2,0-.2-.2v-6.4c0-.1,0-.2.2-.2Z" fill="maroon"/><path id="cy" d="M768.08,500.73h4c.1,0,.2,0,.2.2v6.4c0,.1,0,.2-.2.2h-4c-.1,0-.2,0-.2-.2v-6.4c0-.1,0-.2.2-.2Z" fill="#0d749f"/></g></g></svg>