<?xml version="1.0" encoding="UTF-8"?><svg id="a" xmlns="http://www.w3.org/2000/svg" viewBox="0 0 1019.15 991.22"><g id="b"><path id="c" d="M180.06,251c68.34-67.87,178.76-76.6,266.93-48.91,43.11,13.53,80.32,33.11,118.42,62.15,26.09,20.31,26.73,18.62,42.27,19.04,40.66,1.12,78.64-25.77,119.2-22.68,26.37,1.97,88.52-3.55,131.37,11.41,40.07,13.99,60.77,54.72,58.1,93.46-3.52,78.52-60.69,143.21-104.53,204.69-24.06,33.78-113.34,80.12-139.33,112.35-20.16,25.08-33.44,63.02-6.79,89.08,35.39,34.58,46.28-41.95,88-24.48,103.87,43.49,92.02,136.71,68.44,176.62-21.52,36.5-63.02,61-105.33,64.46-6.72.55-13.47.55-20.19,0M696.63,988.18l-428.57-.35c-9.57.32-18.62.28-27.21-.07-99.42-12.21-163.26-192.54-57.22-270.35,125.65-92.2,126.58-93.69,137.26-178.41,15.52-123.21-251.3-201.23-140.82-288.01" fill="#9fdef9" isolation="isolate" opacity=".5" stroke="#3fbdf1" stroke-miterlimit="9.7" stroke-width="5.24"/><g id="d"><path id="e" d="M72.15,689.43c-4.39-1.62-8.12-5.06-10.3-9.5l-2.01-4.09v-406.36l1.69-3.23c2.31-4.4,4.82-6.95,9.06-9.2l3.58-1.9h288.83l4.2,2.06c4.46,2.19,7.84,6.06,9.66,11.07.79,2.17,1.03,38.97,1.36,208l.4,205.37-2.43,2.77c-1.34,1.52-3.88,3.44-5.66,4.26l-3.23,1.49-146.2.13c-124.18.11-146.62-.02-148.94-.88h0Z" fill="#fff"/><g id="f"><rect id="g" x="79.81" y="584.94" width="271.83" height="77.66" rx="9.03" ry="9.03" fill="#3fbdf1" stroke="#9fdef9" stroke-miterlimit="3.88" stroke-width="4.85"/><line id="h" x1="160.84" y1="630.32" x2="274.02" y2="630.32" fill="none" stroke="#fff" stroke-miterlimit="9.7" stroke-width="5.24"/><line id="i" x1="111.75" y1="610.65" x2="323.11" y2="610.65" fill="none" stroke="#fff" stroke-miterlimit="9.7" stroke-width="5.24"/></g><g id="j"><path id="k" d="M225.7,504.72l.52-.17c.34,9.71.02,20.19.09,29.97l-.08,43.31c.04,7.25.45,18.6-.05,25.45l-.48.48h.41l-.13.42-.29-.19c-.46-2.23-.47-4.16-.48-6.43-.05-21.05-.25-42.13.12-63.18,0-9.47-.26-20.25.37-29.64h0v-.02h0Z" fill="#3fbdf1"/><path id="l" d="M210.11,504.86l.8-.16c.3,8.88-.02,18.04.11,26.97.06,7.64.47,69.31-.56,72.31-.91-3.2-.51-19.77-.5-24.26l.08-48.62.08-26.26h0v.02Z" fill="#3fbdf1"/><path id="m" d="M246.15,395.17c-12.94-5.22-17.56-14.55-15.42-30.52,1.79-13.41,20.72-21.41,33.32-16.96,3.96,1.4,7.76,3.08,11.34,5.36,14.07,7.65,24.73,20.1,32.39,33.97,10.2,18.19,12.03,43.34,6.39,63.32-3.5,12.01-10.9,23.97-22.15,30.14-14.64,8.03-34.19,4.19-42.47-11.01-4.37-8.04-4.06-15.39-1.49-23.98,2.01-7.52,8.24-18.54,13.55-24.29-7.05-4.37-5.15-4.65-9.75-8.93-3.99,4.05-7.41,9.25-10.26,14.33-16.85,30.05-12.63,66.74-13.55,99.85-.04,1.47-.17,5.78.7,6.75.63.06,1.38,0,1.75.38,1.2,1.23.66,5.25.57,7.09-1.52.03-3.69.14-5.16.1l-.52.17-4.02-.17c.19-41.87-6.93-105.17,27.3-135.8-1.23-4.44-1.7-5.44-2.54-9.8h.02Z" fill="#9fdef9"/><path id="n" d="M284.71,365.9c20.7,19.07,29.13,61.62,8.85,84.03-9.19,10.17-27.47,17.71-39.21,7.47-3.4-2.92-4.14-8.73-6.29-11.9,2.01-7.52,8.24-18.54,13.55-24.29,1.28.59,3.82,1.78,5.16,1.64,10.22,2.18,17.75-.38,23.95-8.83-2.67,1.49-4.59,3.2-7.53,4.03l-.33-.17c.39-.42.77-.88.78-1.48.42-16.82.46-33.68,1.06-50.51h.02-.01Z" fill="#3fbdf1"/><path id="o" d="M269.04,419.45c-3.54-2.06-4.53-2.11-7.92-5.39-5.26-5.07-10.88-14.18-11.11-21.6.22-.38-.16-1.15-.68-1.36-9.53-3.76-13.99-12.91-12.39-22.99,1.88-11.79,15.12-17.91,26.17-15.55,6.48,1.39,16.75,6.66,20.55,12.2l2.65,2.78c-.6,16.83-2.22,32.04-2.64,48.87-.02.6-.39,1.07-.78,1.48l.33.17c-4.21,3.07-9.4,2.45-14.18,1.39h0Z" fill="#3fbdf1"/><path id="p" d="M273.1,364.77c4.86.37,5.66,2.98,7.05,7.08-1.13,2.93-1.3,3.81-4.26,4.97-6.2-.61-11.04-8.79-2.79-12.05h0Z" fill="#d7e8f0"/><path id="q" d="M188.27,447.61c3.51,12.98-.56,27.4-13.09,33.94-18.28,9.55-39.96-.09-49.11-17.65-10.15-19.46-9.78-40.31-2.99-60.83,7.12-21.5,20.8-41.68,41.38-52.26,7.02-3.61,15.77-5.39,23.34-2.71,6.4,2.18,12.52,7.01,15.29,13.42,6.84,15.82-.94,29.43-15.26,36.31-.42,2.62-.34,4.87,0,7.5-.65,1.41-4.26,7.4-3.99,7.99-.49.91-.67,1.35-1.43,2.07-2.48,3.19-4.2,4.48-7.77,6.45,4.97,7.27,11.81,17.1,13.64,25.77h0Z" fill="#3fbdf1"/><path id="r" d="M188.27,447.61c3.51,12.98-.56,27.4-13.09,33.94-18.28,9.55-39.96-.09-49.11-17.65-10.15-19.46-9.78-40.31-2.99-60.83,7.12-21.5,20.8-41.68,41.38-52.26,7.02-3.61,15.77-5.39,23.34-2.71,6.4,2.18,12.52,7.01,15.29,13.42,6.84,15.82-.94,29.43-15.26,36.31-.3-2.47-.52-4.28-1.07-6.69,5.26-3.2,9.65-7.05,10.89-13.26,4.71-23.42-19.99-33.39-37.54-20.77-16.29,11.72-25.03,26.44-29.17,45.9-4.97,23.42,5.74,52.81,31.62,57.52,5.6,1.02,12.75.6,17.59-2.64,3.69-2.42,5.98-8.73,8.13-10.3h0v.02Z" fill="#9fdef9"/><path id="s" d="M262.67,434.65c2.16-.8,4.59-.35,6.33,1.15,1.75,1.51,2.53,3.85,2.06,6.1s-2.14,4.08-4.34,4.75c-3.29,1.01-6.78-.79-7.87-4.03-1.1-3.26.6-6.8,3.82-7.98h0Z" fill="#d7e8f0"/><path id="t" d="M174.63,421.84c-8.98,3.18-16.38,3.1-24.69-2.3-.79-.51-.77-.8-.9-1.6.48-.36.71-.59,1.33-.31,7.36,3.33,14.42,4.43,22.25,2.06,2.64-.8,8.27-4.33,9.78-4.3-2.48,3.19-4.2,4.48-7.77,6.45h0Z" fill="#9fdef9"/><path id="u" d="M157,364.13c10.49.83,2.99,14.38-3.6,16.27-8.23-.55-4.79-8.8-1.29-12.7,1.73-1.93,2.65-2.46,4.89-3.57h0Z" fill="#d7e8f0"/><path id="v" d="M140.71,388.11c6.07,1.38,5.9,8.85-.14,11.11-7.23-1.07-5.85-9.45.14-11.11Z" fill="#d7e8f0"/><path id="w" d="M187.83,405.33c5.04,6.37,10.1,11.43,14.01,18.79,16.65,31.34,13.59,81.88,13.53,116.89-1.37,0-3.44.04-4.74-.08l-.8.16c-1.25-.15-3.48-.08-4.82-.09-.02-1.4-.3-6.49.4-7.42.81-.06,1.53-.08,2.35-.1.77-.93.54-8.5.51-10.1-.64-33.04,2.63-85.87-24.42-110.07-.27-.59,3.35-6.57,3.99-7.99h0Z" fill="#9fdef9"/></g><g id="x"><rect id="y" x="75.95" y="276.53" width="286.27" height="50.68" rx="9.5" ry="9.5" fill="#3fbdf1" stroke="#9fdef9" stroke-miterlimit="9.7" stroke-width="4.99"/><g id="z"><line id="aa" x1="327.33" y1="302.49" x2="348.11" y2="302.49" fill="none" isolation="isolate" stroke="#fff" stroke-linecap="round" stroke-linejoin="round" stroke-width="5.24"/><line id="ab" x1="337.71" y1="312.87" x2="337.71" y2="292.1" fill="none" isolation="isolate" stroke="#fff" stroke-linecap="round" stroke-linejoin="round" stroke-width="5.24"/></g><path id="ac" d="M143.92,292.59l-2.2,11.31-8.82-11.63h-.38l-4.02,20.69h4.18l2.19-11.31,8.85,11.66h.37l4.02-20.72h-4.19,0ZM162.59,296.65l.78-4.01h-11.74l-3.94,20.29h11.74l.8-4.05h-7.55l.8-4.19h6.42l.8-4.06h-6.42l.77-3.97h7.55-.01ZM162.43,312.92h4.19l1.28-6.59h2.27c4.93,0,7.97-2.7,8.53-6.72.62-4.36-2.15-6.97-5.88-6.97h-6.46l-3.94,20.29h.01ZM170.95,302.31h-2.27l1.1-5.62h2.27c1.66,0,2.88,1.09,2.65,2.91-.22,1.65-1.48,2.71-3.74,2.71h0ZM192.99,292.64l-1.57,8.12h-6.43l1.57-8.12h-4.19l-3.94,20.29h4.19l1.57-8.13h6.43l-1.57,8.13h4.19l3.94-20.29h-4.19ZM212.43,299.2c.68-4.33-2.54-6.57-5.73-6.57h-5.99l-3.93,20.29h4.19l1.84-9.49,4.3,9.49h4.64l-3.98-8.08c2.48-.76,4.23-2.93,4.65-5.64h0ZM208.31,299.24c-.21,1.48-1.55,2.56-3.3,2.54h-1.87l1-5.11h1.87c1.43,0,2.52,1.06,2.31,2.57h0ZM221.61,313.38c5.69.29,10.72-4.1,11.64-10.39.87-5.94-2.38-10.37-7.82-10.65-5.71-.29-10.73,4.17-11.63,10.48-.84,5.92,2.43,10.29,7.81,10.56h0ZM222.35,309.29c-3.08-.06-4.98-2.84-4.36-6.46.63-3.72,3.62-6.5,6.68-6.43,3.03.05,5.03,2.8,4.39,6.51-.63,3.62-3.54,6.46-6.71,6.38h0ZM250.77,313.32c2.82,0,5.42-1.12,7.42-2.86l-1.78-3.55c-1.52,1.32-3.24,2.32-5.06,2.32-3.11,0-5.21-2.91-4.46-6.67.71-3.51,3.64-6.18,6.73-6.18,1.69,0,2.99.83,4.36,2.9l3.09-2.71c-1.32-2.56-3.81-4.11-6.57-4.3-4.52-.29-10.65,3.2-11.85,10.29-1.05,6.18,2.39,10.77,8.11,10.77h.02,0ZM273.22,312.92h4.26l-5.02-20.79h-.67l-13.09,20.79h4.87l1.65-2.83h7.39l.62,2.83h-.01ZM267.25,306.62l3.34-5.71,1.25,5.71h-4.59ZM295.17,299.2c.68-4.33-2.54-6.57-5.73-6.57h-5.99l-3.93,20.29h4.19l1.84-9.49,4.3,9.49h4.64l-3.98-8.08c2.48-.76,4.23-2.93,4.65-5.64h.01ZM291.04,299.24c-.21,1.48-1.55,2.56-3.3,2.54h-1.87l1-5.11h1.87c1.43,0,2.52,1.06,2.31,2.57h-.01ZM311.34,296.65l.78-4.01h-11.74l-3.94,20.29h11.74l.8-4.05h-7.55l.8-4.19h6.42l.8-4.06h-6.42l.77-3.97h7.55,0Z" fill="#fff"/><g id="ad"><circle id="ae" cx="102.37" cy="293.57" r="4.27" fill="#fff"/><path id="af" d="M90.45,312.88c-.14-6.58,5.09-12.03,11.67-12.17s12.03,5.09,12.17,11.67v.49h-23.84Z" fill="#fff"/></g></g><path id="ag" d="M381.73,678.66l-.91-404.67c-.02-12.1-9.82-21.9-21.92-21.92H78.69c-12.08.04-21.85,9.84-21.87,21.92v397.81c.02,12.09,9.83,21.89,21.92,21.88h280.21c11.59.05,22.76-5.11,22.78-15.02" fill="none" stroke="#000" stroke-linecap="round" stroke-linejoin="round" stroke-width="5.24"/></g><g id="ah"><g id="ai"><path id="aj" d="M471.31,931.74s-37.69-5.67-62.49-13.66c-17.08-5.5-29.78-10.6-44.15-19.16l-15.45-9.2,12.73-11.44c4.19-3.77,5.55-11.03,9.69-15.02l4.03-9.9,16.29-3.63c43.06-9.59,86.6-13.87,119.68-10.96,41.34,3.64,47.18,5.47,54.66,2.17,8.32-3.68,14.43-10.56,20.81-25.89,10.64-25.56,16.76-58.97,17.94-105.03.84-32.4,3-32.05.11-32.05s1-4.51.13,22.84c-.76,23.95-4.58,67-5.95,68.45-.19.21-10.99-8.25-17.59-12.22-6.6-3.97-21.06-9.96-29.15-12.69-12.56-4.24-14.23-4.23-29.52-4.78-15.26-.55-22.41,2.1-44.65,6.01-47.27,8.32-65.3,10.46-90.37,11.28-19.82.65-33.71-1.77-42.54-3.74-29.17-6.5-37.07-25.81-34.36-57.96,1.8-21.36,5.82-18.88,3.02-19.44-3.64-.73-3.42,5.46-3.42,28.55,0,17.07,1.72,20.25,4.76,26.96,6.11,13.49,16.66,18.62,35.12,23.19,9.84,2.43,42.73,3.13,60.36.75,6.55-.88,22.09-.97,22.33-.74s-2.61,9.62-3.86,14.42c-2.92,11.19-3.13,23.61-.21,34.97,1.26,4.89,4.35,15.2,7.16,21.15s9.95,15.73,9.38,15.74c-11.21.06-78.96,13.93-103.56,21.7-24.14,7.62-40.47,10.14-59.47,7.82-27.54-3.36-50.28-13.58-69.91-33.33-13.52-13.6-20.61-26.67-25.91-46.01-2.9-10.58-4.57-16.36-4.61-45.45-.03-23.98,1.99-39.52,3.91-52.06,15.46-101.01,50.9-152.94,135.55-194.24,19.83-9.68,62.65-24.47,64.09-22.95.3.31,5.23,10.32,8.98,22.56s6.64,23.31,7.43,24.1c.92.92,2.14-.71,8.52-3.26,5.49-2.2,16.69-6.83,17-6.51s-.95,12.86-3.88,18.01l-2.07,9.58,22.41,49.06c23.07,50.5,20.09,49.06,22.41,49.06.7,0,14.12-12.72,34.64-35.49l37.21-41.3c1.04-6.8-.24-18.75,0-25.4.03-.83,6.77,4.61,11.93,8.74,6.65,5.32,10.79,9.86,11.93,8.74.89-.87,7.58-16.13,15.86-34.37,14.73-32.42,11.81-35.78,16.05-35.59,7.08.32,39.14,12.54,66.39,25.84,28.24,13.78,38.37,21.58,54.68,42.06,25.92,32.54,39.91,86.54,40,157.7.08,63.33-14.53,113.44-40.67,152.39-33.66,50.16-87.9,71.17-178.61,73.11-14.36.31-64.82-3.44-64.82-3.44h0l.03-.04Z" fill="#3fbdf1"/><path id="ak" d="M519.83,839c-16.36-1.43-26.86.1-45.94-.76l-28.09,2.43-7.91-12.94c-3.98-6.51-7.6-17.22-9.36-28.08-1.81-11.23-.8-24.74,2.64-36.98,2.4-8.57,4.45-10,21.25-12.48,5.33-.79,20.84-3.81,33.56-6.02,41.14-7.13,65.34-4.01,92.31,11.45,18.95,10.87,20.72,13.57,18.54,25.75-2.49,13.95-11.53,39.48-16.52,47.02-7.92,11.96-18.16,14.3-60.47,10.61h0Z" fill="#fff"/><path id="al" d="M339.61,883.17c-3.37-2.4-6.95-5.12-9.13-6.96l-6.73-5.68,11.37-5.41c6.24-2.97,35.7-10.81,37.28-10.81,1.48,0-.24,7.09-4.13,13.66-3.57,6.04-18.44,21.01-20.19,21.01-.35,0-5.1-3.42-8.47-5.82h0Z" fill="#fff"/><path id="am" d="M293.35,929.67c0-29.94.22-58.12.83-58.16s9.13,1.52,15.14.14l12.43-2.85,10,8.47c35.35,29.92,70.91,43.55,125.31,52.83,14.04,2.4,27.08,4.52,54.37,5.1,53.19,1.13,89.98-2.58,120.77-13.28,8.2-2.85,23.6-9.35,25.03-9.83,2.44-.82,1.97,7.81,1.97,39.28v36.82l-182.79-.19-183.08-.09v-58.24h.02Z" fill="#3fbdf1"/><path id="an" d="M154.25,987.67c141.55-.02,512,1.33,653.29,0M659.22,988.19v-79.58M293.35,987.91v-116.47M605.16,677.95s1.94,45.85-5.82,91.29c-3.52,20.74-9.06,41.39-17.69,57.56-4.72,8.7-13.75,14.19-23.64,14.4-8.86.16-17.72-.19-26.54-1.06-82.03-7.68-151.05,10.34-209.69,28.64,32.76,29.73,117.05,84.68,276.41,60.85,214.28-32,147.31-314.95,147.31-314.95-5.82-30.48-23.99-58.79-45.83-80.22-24.74-24.24-72.72-40.27-105.33-50.42M388.67,474.12c-53.78,13.23-117.23,45.34-152.14,88.91-45.7,56.96-55.27,132.71-54.23,203.61.97,69.28,73.56,117.12,139.45,102.15M314.54,674.05c-23.73,105.68,67.35,87.98,185.69,67.14,42.28-7.44,78.26,10.92,99.11,28.04M598.97,770.4c-1.65,8.38-10.84,64.3-32.67,70.53s-43.39-7.31-94.32-2.03c0,0-10.98.42-26.18,1.77-32.62-45.46-11.77-86.5-10.74-88.26,0,0,13.61-.96,43.37-6.85,36.05-7.14,55.4-6.34,74.17-1.23,13.87,3.78,44.07,20.37,46.37,26.07h0ZM681.69,520.49s-54.39-29.31-89.47-36.4c0,0-.24,5.24-6.08,18.16-5.84,12.92-23.72,51.78-23.72,51.78l-23.86-17.48-.94,26.45-70.91,75.74-44.82-98.12,5.97-27.6-25.54,9.78-13.64-48.67s-67.25,15.13-125.17,61.73c-57.92,46.61-74.51,119.26-79.89,181.55-5.38,62.3,1.09,127.98,83.38,150.18,0,0,38.67,9.7,70.15-3.28,9.81-4.05,24.06-7.83,39.02-11.15l-.48.17s-6.79,23.55-26.45,36.37c0,0,34.45,26.18,93.31,37.59s183.25,18.24,245.94-36.16,65.25-144.07,65.25-144.07c0,0,20.36-173.14-72.04-226.59v.02Z" fill="none" stroke="#000" stroke-linejoin="round" stroke-width="5.24"/></g><g id="ao"><path id="ap" d="M442.1,584.88l-20.21-44.25,2.98-13.8c3.02-14.03,5.31-13.49,2.97-13.79-.82-.11-5.1.87-11.23,3.56l-12.72,5.59-3.69-6.94c-2.76-5.19-11.71-40.93-11.52-41.1.12-.1,6.71-.88,10.18-2.62s6.87-5.6,9.39-7.19,7.67-5.43,8.07-5.43,16.26,30.38,29.58,64.29l26.68,59.79-1.99,23.03c-.99,11.48-3.63,32.75-3.87,32.75s-13.8-30.19-24.61-53.87h0v-.02Z" fill="#9fdef9"/><path id="aq" d="M468.31,627.09c.22-1.54,1.05-10.68,2.27-21.09,1.22-10.4,2.3-21.3,2.58-21.77.27-.47,4.25-5.35,6.78-8.43s26.46-33.74,49.02-62.68l38.65-49.58,8.09,6.85c4.43,3.75,11.92,9.98,17.79,14.01.78.53-5.48,13.79-13.25,30.85-12.12,26.61-16.88,37.24-17.26,37.62-.58.59-10.1-5.65-18.4-12.83-4.54-3.93-6.56-6.31-7.32-6.31-2.83,0-.13-2.77.56,12.08l.75,16.15-31.96,34.18c-17.52,18.74-39.73,42.61-39.89,42.61s1.38-10.12,1.6-11.66h0Z" fill="#9fdef9"/><path id="ar" d="M491.01,539.51c-2.71-10.93-2.46-13.82-1.02-15.65,3.5-4.45,10.81-10.55,11.31-9.98.3.35,3.97,5.42,6.53,8.99,3,4.19,6.24,7.45,5.86,8.07-.73,1.19-18.01,24.13-18.21,24.13-.08,0-2.98-9.54-4.47-15.57h0Z" fill="#9fdef9"/><path id="as" d="M449.87,532.1c-2.35-5.27-5.13-12.86-5.13-13.24s3.95-3.31,7.28-5.57l7.59-5.18,5.75,8.49,3.36,6.21-4.17,10.06c-1.91,4.62-7.09,11.52-7.3,11.66-.22.14-5.02-7.15-7.37-12.42h0Z" fill="#9fdef9"/><path id="at" d="M472.57,582.97c-4.26-9.79-10.46-26.65-14.8-36.4,2.86-5.98,8.24-14.56,11.1-20.54,1.32,2.64,3.39,7.35,6.43,8.36,2.79,1.11,3.6,1.35,5.87-.63,1.12-.91,5.77-4.84,6.84-5.81,1.8,7.52,5.31,19.36,6.72,26.98-.15,1.96-2.77,5-3.79,6.68-6.14,4.39-14.34,17.06-18.37,21.37h0Z" fill="#3fbdf1"/><path id="au" d="M473.32,532.72c-2.68-3.43-3.85-9.68-6.21-13.34-2.65-4.36-3.22-7.1-5.51-11.67.69-1.58,2.83-2.66,4.13-4.01,5.6-4.72,11.12-9.55,16.96-13.99.91.04,2.55,2.87,2.73,2.53.04.47,1.85,2.72,2.62,3.85,3.55,4.83,7.17,9.6,10.78,14.37-6.62,6.81-11.27,16.27-17.66,23.3-.71.82-6.79-.13-7.85-1.05h.01Z" fill="#3fbdf1"/><path id="av" d="M439.76,509.45c-.88-1.97-5.23-11.72-11.09-24.85l-8.09-18.13-3.33-7.47s6.25-5.89,9.03-8.51l9.03-8.51,23.82,23.81,23.57,23.93-9.83,7.6c-3.55,2.75-9.56,9.38-15.84,12.13l-14.07,7.15-3.19-7.14h-.01Z" fill="#3fbdf1"/><path id="aw" d="M506.26,520.71c-2.61-3.61-8.14-11.16-12.62-17.1s-9.63-14-9.71-14.64c-.06-.47,7.57-4.59,15.68-9.49,8.11-4.89,23.14-16.68,33.44-21.93l18.38-12.97,5.05,4.83c.99.95,4.57,3.17,5.57,7.04l4.74,6.01-3.43,6.49c-.86,1.62-10.74,13.74-22.54,28.92s-26.41,32.33-27.13,33.07c-1.24,1.29-2.9-3.95-7.44-10.24h.01Z" fill="#3fbdf1"/><path id="ax" d="M469.09,523.63l-12.07,24.47M487.65,526.5l7.49,30.03M498.83,513.95l-17.66,19.81c-2.42,1.96-6.03,1.47-7.85-1.05l-12.41-26.68M444.16,519.3l38.78-29.71-47.64-47.62-18.05,17.03,55.9,125.26-6.84,57.89-44.42-101.52,5.94-27.59-25.54,9.75-14.82-48.16h0c18.28-7,34.58-18.32,47.85-32.68M513.7,530.95l-14.87-20.49-15.86-20.9,33.3-20.15,36.3-25.62c2.75,3.61,12.48,16.37,15.04,19.74-1.47,1.86-76.32,97.95-80.88,103.79v.04l-13.56,16.86M466.31,642.14l72.25-80.18-1.32-28.23,24.99,21.53,32.1-71.18.09-.18c-16.91-9.83-31.07-23.89-41.89-40.1" fill="none" stroke="#000" stroke-linejoin="round" stroke-width="5.24"/></g><g id="ay"><path id="az" d="M460.82,463.66l-22.46-22.47,2.95-12.2c1.62-6.71,3.01-12.39,3.1-12.63.11-.3.61-.05,1.68.84,6.29,5.21,13.72,9.58,21.66,12.74,4.14,1.65,10.39,3.53,11.2,3.38.37-.07.64-.73.92-2.19.61-3.19.66-3.07-1.41-3.53-3.17-.71-9.09-2.88-13.2-4.84-20.09-9.59-33.24-25.95-37.93-47.17-1.59-7.18-1.88-10.28-1.88-19.82,0-7.16.14-9.93.71-14.49,3.21-25.71,8.12-44.97,15.46-60.63.89-1.91,1.81-3.52,2.05-3.59.23-.07,2.16-.45,4.29-.84,4.29-.79,9.96-2.55,14.04-4.34,1.47-.65,12.13-6.32,23.69-12.62,21.79-11.86,23.5-12.67,28.36-13.34,4.68-.65,9.4.84,12,3.8,2.93,3.33,4.38,7.69,5.49,16.52,2.1,16.75,7.18,45.08,10.82,60.3.91,3.81,1.37,4.43,3.27,4.43,1.36,0,1.96-.65,4.01-4.35,3.13-5.64,6.9-9.88,10.34-11.67,3.26-1.69,6.74-1,9.79,1.94,1.91,1.84,2.47,3.68,2.26,7.44-.37,6.82-4.62,15.6-14.96,30.89-2.37,3.51-4.47,6.77-4.65,7.25-.79,2.04-1.57,5.82-2.53,12.3-2.12,14.26-4.08,21.66-7.66,28.82-3.27,6.55-7.17,10.83-13.56,14.86-.06.04.51,1.17,1.27,2.5l1.38,2.43.82-.52c2.21-1.41,4.95-3.47,6.55-4.94l1.78-1.63,4.37,13.12c3.48,10.42,4.29,13.2,3.97,13.51-.22.22-7.94,5.71-17.15,12.21-14.11,9.96-18.77,13.04-29.63,19.62-7.08,4.29-14.2,8.6-15.82,9.59l-2.93,1.78-22.46-22.47h0ZM478.86,374.12c5.34-1.84,10.33-5.95,14.59-12.04.73-1.05,1.33-2.01,1.33-2.14,0-.26-4.09-2.89-4.45-2.86-.12.01-.95,1.03-1.83,2.27-2.4,3.36-6.34,7-9.16,8.48-1.97,1.03-2.82,1.28-4.72,1.41l-2.32.15-.86,2.41c-.47,1.33-.74,2.53-.59,2.67.81.78,5.31.59,8.01-.34h0ZM454.13,329.79c2.82-2.1,2.82-6.48,0-8.59-.57-.43-1.53-.7-2.74-.79-1.55-.11-2.04,0-2.95.62-1.58,1.09-2.33,2.25-2.52,3.91-.22,1.97.77,4.02,2.41,5,1.55.92,4.46.84,5.8-.16h0ZM498,330.08c1.38-.69,2.46-2.25,2.75-3.96.17-1.01.05-1.62-.54-2.79-1.02-2.04-2.1-2.75-4.37-2.91-1.55-.11-2.04,0-2.95.62-1.87,1.28-2.44,2.34-2.44,4.46s.58,3.18,2.41,4.43c1.31.89,3.55.96,5.15.16h0Z" fill="#fff"/><path id="ba" d="M471.57,371.92s9.9,3.49,20.96-13.4" fill="none" stroke="#000" stroke-linejoin="round" stroke-width="5.24"/><path id="bb" d="M495.56,320.42c2.82,0,5.1,2.28,5.1,5.1-.23,6.75-9.97,6.75-10.2,0,0-2.81,2.28-5.1,5.1-5.1Z"/><path id="bc" d="M451.08,320.42c2.82,0,5.1,2.28,5.1,5.1-.23,6.75-9.97,6.75-10.2,0,0-2.81,2.28-5.1,5.1-5.1h0Z"/><path id="bd" d="M458.48,347.49h-38.38c-5.66,0-10.26-4.6-10.26-10.26v-34.56h64.86v34.56c0,5.66,4.61,10.26,10.27,10.26h38.06c5.66,0,10.26-4.6,10.27-10.26v-34.56h-58.59M471.57,358.56h-13.97c.57-7.09,3.98-47.91,4.64-55.9" fill="none" stroke="#000" stroke-linejoin="round" stroke-width="5.24"/><path id="be" d="M442.93,410.51l-7.61,31.43M552.53,443.8l-11.07-33.29c-3.02,4.23-6.9,7.75-11.39,10.35M541.46,410.55h0c12.04-18,10.2-41.89,13.98-47.9,5.82-9.33,29.09-38.42,15.13-48.91-3.22-2.41-6.29-2.91-9.08-2.35-9.4,2.09-15.93,16.88-15.93,16.88,0,0-8.17-34.9-11.63-65.19s-29.17-17.39-29.17-17.39l-38.88,21.17c-7.46,4.12-15.67,6.69-24.14,7.55-4.43.52-8.92.48-13.34-.11-30.06-3.88-32-60.78,2.48-54.3,2.13.42,4.12,2.62,5.45,4.16-6.92-13.42.46-30.33,14.08-35.46,8.28-3.11,17.54-2.52,26.18-.7,61.05,11.15,95.55,62.63,84.92,123.42M479.72,430.77s-65.19-11.63-56.46-88.52c3.88-34.21,11.35-55.13,18.42-67.87" fill="none" stroke="#000" stroke-linejoin="round" stroke-width="5.24"/></g><g id="bf"><path id="bg" d="M465.71,189.22c-3.61-.03-6.85,0-10.14.76-4.48.77-9.01,3.1-12.26,6.43h0s-.11.11-.12.12h0c-.38.38-.92.98-1.19,1.32h0c-.4.48-.79.99-1.15,1.49h0c-.07.1-.14.19-.19.29h0c-.38.56-.75,1.15-1.09,1.71v.05-.05c-.2.35-.41.72-.59,1.09.49.16,1.41.41,2.05.6-.46-.13-1.99-.58-2.05-.59-.3.58-.62,1.27-.85,1.86h0c-.45,1.09-.82,2.22-1.11,3.35h.05c-1.14,4.3-.82,10.72,1.32,14.39,2.07.07,4.56,1.92,6.25,3.77-2.47-5.43-2.95-12.36-.99-18.17h.03c.38-1.14.83-2.31,1.35-3.4-.3-.1-.6-.18-.93-.29h0c-.57-.18-1.64-.49-2.21-.68.5.16,1.96.59,2.2.67h0c.27.1.74.24.94.3.35-.72.79-1.54,1.19-2.22h0c.48-.81,1.06-1.64,1.59-2.39,0,0-.13-.04-.28-.09h0s.25.08.27.08h0s.03-.03.05-.05h0c2.13-2.73,4.74-5.1,7.74-6.85h0c3.15-1.82,6.42-2.74,10.14-3.44h-.05.05v-.05h-.02ZM447.35,199.46s.05,0,.08.02h0s-.05-.02-.08-.02ZM447.23,199.46h.03-.03ZM447.66,199.65h0s0,.02-.02.04h0s.02-.03.02-.04ZM447.63,199.71c-.08.14-.26.42-.5.78.18-.29.43-.64.5-.78ZM440.08,200.56c-.05.07-.1.15-.14.22.05-.09.09-.15.14-.22ZM439.82,200.98h0c-.16.26-.33.56-.44.77.06-.11.12-.23.18-.34.07-.13.18-.31.25-.43h.01ZM446.76,201.03c-.05.07-.09.14-.13.2.04-.07.09-.15.13-.2ZM439.13,202.3v.03-.03ZM439.13,202.38c.58.19,1.21.39,1.95.62-.69-.21-1.49-.46-1.95-.62ZM441.07,203.01h-.02.03-.01ZM441.13,203.01h.02-.02ZM441.07,203.02h.03-.04.01ZM441.2,203.04c.16.03.32.08.47.14h-.06s.04,0,.06.02h-.06.05s-.4-.14-.46-.13h0c-.06,0,.39.12.43.14-.1-.02-.48-.14-.43-.13h0v-.04ZM441.83,203.23c.76.2,1.53.46,1.98.58-.62-.18-1.9-.58-1.96-.58h0s.03,0,.04.02h0s-.04,0-.05-.02h-.01ZM441.82,203.24h.03-.03ZM445.22,203.67c-.05.09-.1.2-.16.27.05-.07.11-.17.16-.27ZM444.18,203.93c.12.03.27.08.4.11-.13-.04-.21-.05-.4-.11ZM445.01,204.01s-.03.04-.04.05c0,0,.03-.03.04-.05ZM444.95,204.08s-.04.03-.05.04h0s.03-.02.05-.04ZM444.78,204.1l.1.03s-.08-.02-.1-.03ZM425.73,222.27c-25.2.17-20.71,41.9-2.02,48.04h0c-12.55-12.12-14.52-40.76,4.09-47.64.99-.24.16-.41-2.08-.41h0Z" fill="#fff"/><path id="bh" d="M561.48,311.41c-7.68,2.06-12.55,10.1-15.93,16.88,0,0-8.18-34.9-11.63-65.18-2.35-22.64-18.59-22.36-29.16-17.4l-38.88,21.18c-10.92,5.97-23.65,8.88-36.06,7.54-21.42-10.59-21.73-52.36,4.3-52.65.79.73,1.52,1.51,2.2,2.34-.38-.77-.73-1.53-1.05-2.3,1.45.05,2.91.2,4.33.48,2.13.42,4.12,2.62,5.45,4.16-6.91-13.42.46-30.33,14.08-35.46,9.62-3.59,20.44-2.28,30.27.27,53.97,14.82,81.83,65.9,72.09,120.14h-.01Z"/></g></g><g id="bi"><path id="bj" d="M359.59,642.65c11.31,0,20.51,8.96,20.51,19.97-1.12,26.49-39.89,26.49-41,0,0-11.01,9.19-19.97,20.5-19.97M359.59,635.66c-15.18,0-27.49,12.07-27.49,26.96,1.43,35.77,53.54,35.76,54.97,0,0-14.89-12.31-26.97-27.49-26.97h0Z" fill="#fff" isolation="isolate" opacity=".72"/><path id="bk" d="M593.48,484.39c33.82,16.35,7.64,60.18-14.15,98.65" fill="none" stroke="#000" stroke-linejoin="round" stroke-width="5.24"/><path id="bl" d="M520.69,700.27s-13.41-6-13-9.7c3.47-10.12,34.42-136.18,76.85-104.91,39.78,17.14-24.69,116.15-26.31,122.74l-13.16-4.5" fill="none" stroke="#000" stroke-linejoin="round" stroke-width="5.24"/><path id="bm" d="M375.68,477.82s-19.49,63.99-15.51,159.29" fill="none" stroke="#000" stroke-linejoin="round" stroke-width="5.24"/><path id="bn" d="M541.54,695.6c3.92,0,7.09,3.17,7.09,7.09-.36,9.4-13.82,9.4-14.18,0,0-3.92,3.17-7.09,7.09-7.09h0Z" fill="#fff"/><path id="bo" d="M524.95,694.23c3.92,0,7.09,3.17,7.09,7.09-.36,9.4-13.82,9.4-14.18,0,0-3.92,3.17-7.09,7.09-7.09h0Z" fill="#fff"/><path id="bp" d="M359.43,634.6c16.08-.08,29.17,12.41,29.25,27.89-1.34,37.18-56.54,37.44-58.23.28-.08-15.48,12.9-28.1,28.98-28.18h0Z" fill="#3fbdf1"/><path id="bq" d="M359.43,634.6c16.08-.08,29.17,12.41,29.25,27.89-1.34,37.18-56.54,37.44-58.23.28-.08-15.48,12.9-28.1,28.98-28.18h0Z" fill="none" stroke="#000" stroke-linejoin="round" stroke-width="5.24"/><path id="br" d="M358.06,689.38c-41.58-5.57-32.15-60.67,10.16-52.93,31.4,9.91,22.07,54.65-10.16,52.93ZM362.02,683.53c20.47-2.35,26.93-28.5,9.06-39.45-34.93-17.31-48.44,40.44-9.06,39.45Z" fill="#fff"/><path id="bs" d="M356.23,671.01c-12.77-7.05-.16-24.38,10.54-14.53,6.36,6.82-2,18.11-10.54,14.53Z" fill="#9fdef9"/></g><g id="bt"><circle id="bu" cx="838.51" cy="888.65" r="73.18" fill="#3fbdf1" stroke="#fff" stroke-miterlimit="11.87" stroke-width="6.11"/><polygon id="bv" points="870.47 837.36 872.41 838.72 852.66 867.07 850.71 865.71 870.47 837.36" fill="#fff" isolation="isolate"/><rect id="bw" x="811.98" y="913.14" width="10.01" height="6.32" transform="translate(-402.13 1060.61) rotate(-55.03)" fill="#fff" isolation="isolate"/><path id="bx" d="M856.01,874.49l-26.98,38.57c-1.41,2.05-3.82,2.87-5.33,1.82l-7.67-5.35c-1.51-1.06-1.56-3.57-.12-5.63l26.98-38.57c1.41-2.05,3.82-2.87,5.33-1.82l7.67,5.35c1.51,1.04,1.56,3.57.12,5.63Z" fill="#fff" isolation="isolate"/><path id="by" d="M822.99,931.13c-.52.77-1.27,1.37-2.15,1.7-.72.31-1.56.23-2.21-.2l-17.49-12.24c-1.22-.85-1.26-2.94-.09-4.61.52-.78,1.28-1.38,2.16-1.71.72-.28,1.54-.21,2.2.21l17.49,12.24c1.21.85,1.25,2.92.09,4.61h0Z" fill="#fff" isolation="isolate"/></g><g id="bz"><circle id="ca" cx="123.95" cy="851.61" r="41.91" fill="#3fbdf1" stroke="#fff" stroke-miterlimit="9.7" stroke-width="4.36"/><path id="cb" d="M116.3,844.34c0-3.67-.04-7.33-.04-10.99,0-1.36.56-2.01,1.92-2.05,3.22-.09,6.49.09,9.71-.05,1.44-.06,2.04.92,2.19,2.19.18,3.55,0,7.26.08,10.81,3.71.12,7.43-.1,11.13.1,1.03.06,1.58,1.35,1.57,2.14-.02,2.07.52,9.98-.45,11.43-1.17.68-5.59.42-7.23.4l-5.21-.03.07,6.52c.06,6.32-.16,5.96-6.34,5.8-6.62-.17-7.49,1.49-7.42-6.04l.03-6.29c-2.47-.03-4.94-.06-7.42-.04-1.43,0-2.97.17-4.38.02-.46-.05-.79-.08-1.12-.42-1.11-1.12-.58-7.97-.56-9.72-.03-1.98-.34-3.65,2.2-3.73,3.72-.14,7.54.2,11.26-.03h0v-.02h0Z" fill="#fff"/></g><g id="cc"><circle id="cd" cx="707.26" cy="398.75" r="20.15" fill="#3fbdf1" isolation="isolate" opacity=".72" stroke="#9fdef9" stroke-miterlimit="9.33" stroke-width="4.2"/><circle id="ce" cx="702.11" cy="394.65" r="7.18" fill="#fff" isolation="isolate"/></g><g id="cf"><circle id="cg" cx="765.53" cy="601.48" r="65.83" fill="#3fbdf1" stroke="#fff" stroke-miterlimit="14.84" stroke-width="6.68"/><path id="ch" d="M766.47,639.49c-42.82.19-38.71-57.14-.95-79.5,37.87,21.02,47.75,78.68.95,79.5Z" fill="#fff"/><g id="ci" isolation="isolate"><path id="cj" d="M783.78,582.88h-4.28v-4.19h-3.66v4.19h-4.29v3.17h4.29v4.2h3.66v-4.2h4.28v-3.17Z" fill="#3fbdf1" isolation="isolate"/><path id="ck" d="M771.01,603.45c.75,0,2.91-1.99,2.91-5.19,0-4.07-3.48-8.01-8.95-8.01h-8.41v30.23h11.64c6.35,0,9.62-4.71,9.62-9.17,0-4.86-3.84-7.86-6.81-7.86ZM765.35,596.15c1.43,0,2.79,1.2,2.79,2.91s-1.43,3-2.91,3h-2.5v-5.91h2.62ZM767.62,614.55h-4.89v-7.16h4.88c2.94,0,4.17,1.74,4.17,3.49,0,2.33-2.14,3.68-4.15,3.68h0Z" fill="#3fbdf1" isolation="isolate"/></g></g><g id="cl"><path id="cm" d="M732.53,134.06h0c-31.42,0-60.45,16.76-76.16,43.97h0c-15.71,27.21-15.71,60.73,0,87.94h0c15.71,27.21,44.74,43.97,76.16,43.97h0c31.42,0,60.45-16.76,76.16-43.97h0c15.71-27.21,15.71-60.73,0-87.94h0c-15.71-27.21-44.74-43.97-76.16-43.97Z" fill="#3fbdf1" stroke="#fff" stroke-miterlimit="5.7" stroke-width="4.56"/><g id="cn"><path id="co" d="M746.41,266.17c0,1.55-1.25,2.8-2.8,2.8h-56.12c-1.72.19-2.95-2.3-2.7-2.82.02-1.56-.02-52.86,0-53.62.34-13.89,17.1-22.15,16.81-21.99.57,0,28.56,0,28.01,0,.17-.02,17.61,9.78,16.8,22.42v53.2h0Z" fill="#fff"/><path id="cp" d="M701.6,179.34h28.01v11.2h-28.01v-11.2Z" fill="#fff"/><path id="cq" d="M698.8,170.93h33.61v11.2h-33.61v-11.2Z" fill="#fff"/><path id="cr" d="M724.01,151.33h-16.81s0,11.2-8.4,19.61h16.81c-7.28.11-7.27-11.32,0-11.21,7.26-.1,7.26,11.31,0,11.21h16.81c-8.4-8.4-8.4-19.61-8.4-19.61h0Z" fill="#fff"/><path id="cs" d="M735.21,241.96c-18.74,10.8-23.15-.99-39.22,1.08v5.86c13.25-3.04,19.92,9.47,39.22-.71v-6.23h0ZM729.8,233.26c-11.32,6.33-22.25-3.63-33.8-1.43v5.86c13.24-3.04,19.92,9.47,39.22-.71v-6.23c-.86.48-4.63,2.21-5.42,2.51ZM729.8,222.06c-11.32,6.33-22.25-3.63-33.8-1.43v5.86c13.24-3.04,19.92,9.47,39.22-.71v-6.23c-.86.48-4.63,2.21-5.42,2.51Z" fill="#9fdef9"/></g><g id="ct"><path id="cu" d="M772.23,192.92c5.35,9.57-.63,15.68,0,24.95l1.5.68,1.74-.57c-.9-8.31,5.14-15.95.22-24.94l-3.45-.11h0Z" fill="#fff"/><path id="cv" d="M766.71,194.03c3.33,7.31-2.35,14.08-1.31,21.46l1.47.57,1.77-.47c-.9-8.31,5.14-15.95.22-24.94l-3.45-.11c.25.55,1.15,2.99,1.31,3.49h0Z" fill="#fff"/><path id="cw" d="M760.51,196.73c3.33,7.31-2.35,14.08-1.31,21.46l1.52.73,1.73-.63c-.86-8.52,5.13-15.94.22-24.94l-3.45-.11c.25.55,1.15,2.99,1.31,3.49h-.02Z" fill="#fff"/><path id="cx" d="M751.91,220.24l-.03,29.89c.8,4.56-2.57,16.4,3.8,16.96,7.94.24,15.91.03,23.87.19,3.89.47,5.23-3.46,4.85-6.69,16.04-2.08,16.84-24.29-.02-26.74v-13.58l-32.47-.03h0ZM784.38,238.95c10.9,2.02,9.73,15.02,0,16.38v-16.38Z" fill="#fff"/></g></g><path id="cy" d="M924.31,325.44h0c-19.16,0-36.87,10.22-46.45,26.82h0c-9.58,16.6-9.58,37.04,0,53.64h0c9.58,16.6,27.29,26.82,46.45,26.82h0c19.16,0,36.87-10.22,46.45-26.82h0c9.58-16.6,9.58-37.04,0-53.64h0c-9.58-16.6-27.29-26.82-46.45-26.82Z" fill="#3fbdf1" stroke="#fff" stroke-miterlimit="9.7" stroke-width="7.76"/><path id="cz" d="M958.31,353.72c-6.39-1.95-11.69,5.22-7.95,10.76l-20.86,32.11c-.1-.05-.21-.09-.32-.13-.28-.08-.58-.12-.88-.12l-16.59-29.38c3.29-2.52,1.86-7.75-2.24-8.27-4.11-.51-6.77,4.21-4.2,7.46l-15.11,20.62c-3.41-.82-5.48,3.64-2.65,5.71s6.46-1.25,4.64-4.25l15.11-20.62c.1.03.19.07.29.1.6.18,1.24.24,1.87.17l16.58,29.37c-1.72,1.7-.99,4.61,1.32,5.31,2.55.79,4.88-1.73,3.9-4.21l20.86-32.1c3.55,2.58,8.57,1.34,10.52-2.59s-.1-8.67-4.3-9.95h.01Z" fill="#fff" stroke="#fff" stroke-miterlimit="9.7" stroke-width="1.33"/><g id="da"><path id="db" d="M339.55,161.75c.45-.77,9.86-23.68,35.02-23.75,14.93-.04,22.04,8.23,26.83,15.25,12.71,35.39-37.92,77.9-61.34,88.28-2.69-2.16-75.8-46.33-61.45-86.36,4.37-8.94,14.39-17.97,28.12-17.81,22.67.27,32.4,23.69,32.81,24.39h.01Z" fill="#3fbdf1" stroke="#fff" stroke-miterlimit="12.07" stroke-width="5.43"/><path id="dc" d="M322.18,197.76c.74-2.67,1.09-5.54,1.64-8.25,1.16-5.6,2.41-11.2,3.42-16.83.63-3.56.83-7.81,2.22-11.17.54-.27.69-.23,1.33-.22.41.48.49,1.06.59,1.64.8,4.73,1.1,9.61,1.64,14.38,1.07,9.75,2.22,19.51,3.42,29.26,1.33-3.67,4.43-17.52,6.35-19.61,2.66.04,6.78,4.14,8.7,5.67,2.66-7.15,2.91-14.87,5.22-22.07.23-.7.56-1.79,1.24-2.25.27-.17.23-.11.57-.02.7.69.94,1.47,1.15,2.35.97,4.13,1.13,8.63,1.63,12.83.83,7.07,1.81,14.14,2.57,21.22,1-2.31,1.55-4.85,2.22-7.24,1-3.56,2.04-7.11,3.15-10.66.56-1.8.97-3.92,2.04-5.53.62-.3.89-.34,1.59-.28,1.56,1,2.73,7.93,3.2,9.78,2.78.06,5.58-.13,8.35,0,4.93.23,9.86-5.24,10.52-4.84.81.5-3.77,6.97-4.03,7.36-.13.2-1.6-.07-3.24-.33-1.76-.04-10.87-.31-13.09-.36-1.07-2.85-1.67-5.92-2.37-8.85-1.84,3.72-5.69,23.82-8.11,25.34-.62.02-.71.04-1.24-.24-1.42-2.04-4.1-28.19-4.38-32.21l-1-.21c-.65,3.02-2.97,16.85-5.2,18.51-1.86.05-6.83-4.35-8.27-5.55-.13-.11-.25-.22-.37-.33-.71,2.87-4.84,19.38-6.78,20.43-.31.17-.71.04-1.04-.08-.81-.31-1.09-1.67-1.24-2.33-.7-2.82-.87-5.87-1.23-8.74l-2.38-19.36c-.37-3.22-.49-6.54-1.11-9.73-.81,4.91-5.08,30.02-7.13,33.21-.51.31-.69.3-1.32.35-.76-.3-1.03-.75-1.33-1.41-2.05-4.47-2.78-10.24-4.54-14.98-.83,2.51-3.31,11.75-5.37,12.88-.34.18-.43.06-.77-.04-1.96-2.05-2.92-5.9-3.96-8.47-.45.62-.78,1.16-1.64,1.33-2.44.49-4.88.74-7.36.65l-4.67,3.2-4.18-5.95,7.58.57c2.21.1,5.82.39,7.9-.33,1.01-.91,1.22-2.51,2.33-3.2.57.16.72.41.98.87,1.35,2.52,2.78,6.12,3.66,8.81.75-2.17,3.62-12.27,5.44-13.15.3-.14.52,0,.81.1,1.84,1.88,3.97,11.23,4.65,14,.45,0,.87-.05,1.29.07h0l-.04-.02v.03Z" fill="#fff"/></g><path id="dd" d="M913.65,661.41c-.04-3.73-.4-11.53.65-14.85,2.16-.24,2.99-.37,4.65.63,2,3.25,1.05,9.76,1.03,14.17,4.45.1,10.96-.38,15.39.34,1.05.16,1.44,1.27,1.94,2.15-.4,5.89-12.23,4.05-17.1,4-.03,4.63,1.23,10.68-1.52,13.7-1.68,0-1.86.13-3.32-.74-2.28-3.01-1.4-8.78-1.35-12.91-4.77-.04-15.98,1.45-18.57-2.54-.15-1.88-.32-1,.65-2.71,3.59-2.28,12.79-1.36,17.56-1.26h0v.02h-.01Z" fill="#3fbdf1"/><path id="de" d="M34.56,159.14c-.07-5.76-.62-17.79,1-22.89,3.32-.38,4.6-.57,7.19.97,3.08,5.01,1.61,15.06,1.59,21.85,6.86.17,16.89-.57,23.72.52,1.61.26,2.23,1.97,2.99,3.32-.62,9.09-18.86,6.26-26.38,6.19-.05,7.16,1.9,16.49-2.35,21.11-2.59-.02-2.87.19-5.1-1.14-3.51-4.63-2.16-13.55-2.09-19.9-7.35-.07-24.65,2.23-28.63-3.91-.21-2.89-.5-1.54,1-4.18,5.53-3.51,19.71-2.11,27.07-1.95h0Z" fill="#3fbdf1"/><path id="df" d="M850.72,38.74c-.05-4.3-.44-13.25.71-17.07,2.35-.27,3.28-.43,5.08.72,2.18,3.73,1.15,11.24,1.12,16.3,4.86.11,11.96-.43,16.79.38,1.15.18,1.58,1.47,2.1,2.46-.44,6.78-13.35,4.66-18.65,4.61-.03,5.34,1.34,12.3-1.67,15.76-1.83-.02-2.02.14-3.6-.84-2.48-3.46-1.53-10.11-1.47-14.85-5.21-.05-17.42,1.67-20.26-2.92-.16-2.15-.35-1.15.71-3.12,3.9-2.62,13.95-1.56,19.17-1.45h-.03v.02Z" fill="#3fbdf1"/><path id="dg" d="M167.59,14.51c-.04-3.61-.39-11.15.62-14.34,2.08-.24,2.88-.36,4.5.61,1.93,3.14,1.01,9.44,1,13.69,4.3.1,10.58-.36,14.86.33,1.01.16,1.4,1.23,1.87,2.08-.39,5.69-11.82,3.92-16.53,3.88-.03,4.49,1.19,10.33-1.47,13.23-1.62,0-1.8.12-3.2-.71-2.2-2.9-1.35-8.49-1.31-12.47-4.61-.04-15.44,1.4-17.94-2.45-.13-1.81-.31-.97.62-2.62,3.46-2.2,12.35-1.32,16.96-1.22h.02Z" fill="#9fdef9"/><path id="dh" d="M30.94,776.73l-12.04-7.75-13.21,5.53,3.65-13.85-9.34-10.86,14.3-.81,7.44-12.24,5.19,13.35,13.94,3.3-11.09,9.06,1.17,14.27h-.01Z" fill="#9fdef9"/><path id="di" d="M516.29,121.94l3.48-11.93-7.85-9.64,12.42-.37,6.74-10.45,4.19,11.7,12.02,3.18-9.83,7.6.69,12.41-10.27-7-11.59,4.49h0Z" fill="#9fdef9"/><path id="dj" d="M995.87,204.77l-7.62-14.65-16.39-2.02,11.57-11.78-3.14-16.21,14.78,7.37,14.45-7.99-2.44,16.33,12.07,11.27-16.28,2.72-6.99,14.96h-.01Z" fill="#3fbdf1"/></g></svg>