<?xml version="1.0" encoding="UTF-8"?><svg id="a" xmlns="http://www.w3.org/2000/svg" viewBox="0 0 927.37 957.56"><g id="b"><path id="c" d="M890.38,448.6c-119.5-132.6,73.6-182.4-93.2-318.9-191-94.5-314.6-48.9-408.3,3.2-85.6,47.5-177.5,284.9-152.4,344.5,31.9,75.8-79.2,45.7-118.7,126.9-45.6,94,47.3,183.1,130,208.7,82.7,25.6,208.6,117,454.9,61,72.3-16.4,175-43.5,190.8-138,37.2-228,36-221.3-3-287.5h0l-.1.1h0Z" fill="#9fdef9" isolation="isolate" opacity=".5" stroke="#3fbdf1" stroke-miterlimit="4.1" stroke-width="5.3"/><circle id="d" cx="336.48" cy="619.9" r="11" fill="#d7e8f0"/><path id="e" d="M271.18,869c-.6,5.2-5.3,6.9-9.6,11.3l-.3.3h-108.2c-8.8.2-16.1-6.7-16.3-15.5s6.7-16.1,15.5-16.3h.8l85.1-13.2s-2.8,35.3,33.1,33.3h-.1v.1h0Z"/><path id="f" d="M683.18,949.8c-5,6.2-14.3,6.9-20.2,1.3-2-1.8-4.3-3.4-6.6-4.7,13.5-42.7-30-72-31.1-72.8,6,2.1,11.6,4.1,16.9,6.1,3.9,1.4,7.7,2.9,11.2,4.1,12.7,4.8,23,14.5,28.6,26.9,4.6,10.1,9,29.7,1.1,39h0l.1.1h0Z"/><path id="g" d="M464.88,421.3s-24,54.2,18.6,109.4c0,0,45.5-22.3,45.4-5.2,0,0,30.1,93.2,32.5,151.2,0,0,21.8,21.5,33.7,9.6s66.1-70,69.1-111.4-7.1-35.9-7.1-35.9c0,0,42-51.4,119.8-18.5,0,0,35.4,159.2-137,203.8,0,0,136.2,71.8,134.3,91.6,0,0,43.8-76.5,40.3-142s-4.3-181.4-93.2-262l-64.1-34-11.5,21.6s-29.6,31.5-43.2,32.7c-13.6,1.2-29.3-5.9-27.6-34.6s8.3-25.4-7.2-20.2c-15.5,5.2-102.7,43.7-102.7,43.7v.2h-.1,0Z" fill="#3fbdf1"/><path id="h" d="M695.58,254.4c-4.7-3.4-9.8-6.3-15.1-8.5l-8.5-3.6c-1.9-.8-3.8-1.5-5.8-2.1-14.4-4.5-25.8-5.2-35.1-3.7-4.3.6-8.4,1.9-12.3,3.7-9.3,4.5-16.7,12.1-20.7,21.6-1.2,2.8-3.8,5.2-7,7.2,2.1-15.1,9.6-35.3,35.5-38.2,15.8-1.7,30.9,1.6,44,6.8,8.9,4.6,17.3,10.3,24.9,16.8h.1,0Z" fill="#3fbdf1"/><path id="i" d="M695.58,254.4c-4.7-3.4-9.8-6.3-15.1-8.5l-8.5-3.6c-1.9-.8-3.8-1.5-5.8-2.1-14.4-4.5-25.8-5.2-35.1-3.7-4.3.6-8.4,1.9-12.3,3.7-9.3,4.5-16.7,12.1-20.7,21.6-1.2,2.8-3.8,5.2-7,7.2,2.1-15.1,9.6-35.3,35.5-38.2,15.8-1.7,30.9,1.6,44,6.8,8.9,4.6,17.3,10.3,24.9,16.8h.1,0Z"/><path id="j" d="M646.68,941.4c-44.5-22.5-118.2-37.7-211.4-44.4-38.9-2.8-63.8-7.5-82.8-14.7-20.7-7.8-42.5-25.4-34.6-34.8l2.3-7.5,55.4-32.8c30.7-18.1,58.6-34,61.5-34.8,7-2.1,17.5-1.7,25.4.6,9.1,2.7,14.1,6.9,26.8,19,12.5,11.9,27.8,24.9,39.8,33.6,4.4,3.2,11.7,10.9,11.4,11.3-.3.4-10.4,2-14.2,2.8-5.8,1.2-9.2,1-15.1-.5-17.6-4.6-52.7-11.5-54.4-10.5-.5.3,0-1.4,0,0,0,2.4-1.9-.5,13.4,2,34,5.5,79.8,18.1,134.2,36.1,38.8,12.8,32.3,14.5,43.2,30.9,7.3,10.9,10.6,21.4,10.5,32.7,0,13-1.7,16-11.4,11.1h0v-.1h0Z" fill="#3fbdf1"/><path id="k" d="M718.28,304.1c0,2.4-.3,4.8-.7,7.2h0c0,1.2-.3,2.3-.6,3.5v.2c-.2,1.3-.5,2.6-.9,3.9-3.6,14.5-11.8,27.7-24.2,36-10.6,7-23.5,9.5-36.1,9.6h-5.2c-5-15.4,17.2-20,13.7-34.3,0-.6-.3-1.1-.5-1.7-2.8-7.8-12.9-7.2-19.8-10.7.5-2.9,3.6-6,5.1-10.3,2.1-6.4-.6-11-5.3-14.6-1-3.6-3.9-6.3-7.6-8.7-2.4-1.5-4.6-3.2-6.7-5.1-.6-1.1-1.1-2.3-1.5-3.5-.5-1.6-1-3.2-1.2-4.8-2.7-15.5,11.1-28.9,26.8-27.2,6.4.7,12.7,2.1,18.8,4,1.9.6,3.9,1.4,5.8,2.1l8.5,3.6c5.4,2.2,10.5,5.1,15.1,8.5l.2.2h0c4.9-.2,9.9,2.6,8.1,7.1v.4c2.3,3.6,4.1,7.5,5.3,11.6,2.1,7.4,3,15.2,2.6,22.9h.3v.1h0Z"/><path id="l" d="M556.08,302v6.7c0,1.5-1.1,2.9-2.6,3.1l-79.5,14.3-12.8,2.3c3.1-4.4,5.5-8.9,5.6-12.3,0-3-1.8-5.2-6.6-5.5-9.3-.7-15.9,6.1-21.4,12.7-5.3,6.3-9.1,5.2-17.1,5.2h-51.4c-1.3,0-2.6-.2-3.8-.5-2.1-2.6-10.5-9.7-10.5-13.1l-.4-26.1c0-4.5,2.2-11.4,7-15,3.9-3,10.1-3,13.8-3.1.1,1.2,2.2,7.9,2.7,9,.5,1.4,1.4,2.6,2.4,3.6,1.1,1,2.6,1.6,4.1,1.6s1.1-.1,1.6-.3c1.7-.6,3.1-1.8,4-3.4,2.4-3.6,2.6-8.3,2.7-12.6.2,3.6-.3,7.2.4,10.8.6,3.1,2.2,6.4,4.9,7.9.4.2.8.4,1.2.6,1,.4,2.1.5,3.2.4,1.5-.1,3-.6,4.3-1.5,2.2-1.5,3.8-3.6,4.6-6.1.6-1.8,1-3.7,1.2-5.5,0,4.1.7,8.2,2.1,12,.5,1.4,1.2,2.6,2.1,3.8l1.2,1.2c1.6,1.1,3.5,1.7,5.4,1.6,1.2,0,2.4-.3,3.5-.8,4-1.8,6.7-6,7.3-10.4.2,4.2,2.4,9,6.3,11,1.2.6,2.5,1,3.8,1s2.3-.2,3.3-.6c3.5-1.3,6.2-4.2,7.3-7.9,1.1-3.6.8-10.5-.8-14.5,3.3.3,7.1,1,9.6,1.5l-2.9,1.5,94.4,27.6-.2-.2h0Z" fill="#9fdef9"/><polygon id="m" points="486.88 325.9 475.58 325.9 496.88 278.4 506.38 280.7 486.88 325.9" fill="#fff" isolation="isolate" opacity=".8"/><polygon id="n" points="401.28 325.9 389.98 325.9 411.28 278.4 420.78 280.7 401.28 325.9" fill="#fff" isolation="isolate" opacity=".6"/><path id="o" d="M641.68,879.8c-5.9-.4-1.4-.8-11.9-4.6-5.9-2.1-15.35-5.18-22.55-7.58-11.7-3.9-14.6-4.73-24.7-9.73-11-5.5-19.37-10.11-28.87-15.91-4-2.5-7.6-4.84-7.6-5.94s-1.75-1.68-3.45-1.68-9.93-6.36-13.53-8.76c-17.1-11.4-22.8-21.1-37.4-35.5-8.9-8.7-12.4-11.7-17.3-14.8-12.2-7.6-24.3-7.4-37.2-3-2.2.7-8.2,3.4-9.8,4.3-2.7,1.5-88.8,60.8-140.5,83.2l-19.1,11.3-9-3.1c-6.3-2.1-8.4-3.3-12.2-7.3-4.3-4.5-7.3-12-7.8-19.1l-.3-4-.3-1.8c-.3-1.7,7.3-8.2,108.8-110.5,36.2-36.5,66.7-66.9,67.6-67.7,10.2-9.1,26.8-16.2,41.6-18.9,8.1-1.5,21.8-1.3,29.7.2,7.2,1.4,17.1,4.7,23,7.6,2.6,1.3,44,25.3,92.9,53.8,71.5,41.6,84.2,49.7,84.5,49.1.2-.4-.3,0,0,0,32.4-2.6,68.7,35.1,85.9,61.5l.9,1.7-4.3,6.4c-6.6,9.6-6.1,14.7-14.5,23-20.8,20.8-53.2,36.5-79.1,38.6-7,.6-18.2.3-27-.3l-6.5-.5h0Z" fill="#3fbdf1"/><path id="p" d="M867.08,646.7c-19.5-3.6-34.3-15.6-44.5-32.3-9.3-15.1-14.7-32.3-18.2-49.6v-.2l-29.8-108.5h0v-.3h0c-.4-1.2-1.6-4.1-3.1-8.6h0c-4.7-14.1-8-28.7-9.8-43.5-.5-4.3-1-8.9-1.2-13.5,0-1,0-2.1-.2-3-.9-9.1-3.4-18.1-7.2-26.4-.3-.7-.6-1.3-.9-1.9-.4-.9-.9-1.8-1.3-2.7-1.4-2.7-2.8-5.3-4.3-7.7-.9-1.4-1.7-2.7-2.6-4-2.6-3.8-5.2-7.1-7.5-9.9l-2.2-2.5c-.5-.6-.9-1.1-1.4-1.5-1.1-1.2-2.1-2.1-2.8-2.9-.2-.3-14.1-7.1-14.4-7.3l1.5-8.8c13.5,0,38,8.5,48.1,14.3,20.2,11.7,33.6,34.2,37.5,56.7,2.2,12.5,2.6,25.3,4.7,37.9,5.2,31.4,26.9,57.7,47.1,81.7,8.2,9.7,18.2,18.9,27.7,27.7.8.8,1.6,1.6,2.4,2.3,1.5,1.4,3,2.7,4.4,4.1l.7.7c11.1,10.5,20.2,22.9,27.1,36.6h0c2.4,4.9,3.8,10.1,4.1,15.5v.3c.4,4.7.5,9.5.8,14.5,0,.9,0,1.8-.2,2.7,0,.7,0,1.4-.2,2.1,0,1.3-.3,2.6-.6,3.9v.7c0,.6-.2,1.1-.4,1.7-.2.7-.4,1.4-.5,2.1,0,.7-.4,1.4-.6,2.1-.3.9-.6,1.8-1,2.7-.2.7-.5,1.4-.8,2.1-.5,1-1,2.1-1.5,3-.2.4-.4.8-.7,1.2-.4.8-.9,1.6-1.4,2.3-10.2,15.2-29.2,19.7-46.5,16.5h0l-.2-.3h-.1,0Z"/><path id="q" d="M11.78,79.4c0-2.4-.3-7.3.4-9.4,1.4,0,1.9-.3,3,.4,1.3,2,.6,6.3.6,9.1,2.9,0,7-.3,9.8.2.6,0,.9.8,1.2,1.4-.3,3.8-7.8,2.6-10.9,2.6,0,2.9.8,6.8-1,8.7-1.1,0-1.2,0-2.1-.4-1.5-1.9-.9-5.6-.8-8.2-3.1,0-10.2,1-11.9-1.6-.1-1.2-.2-.6.4-1.7,2.3-1.5,8.2-.9,11.2-.8h0l.2-.3s-.1,0-.1,0Z" fill="#3fbdf1" isolation="isolate" opacity=".8"/><path id="r" d="M149.68,880.1s-12.4-8.2-12.4-14.7,4.3-13.8,9.1-15.4c1-.3,22.1-4.2,44.5-7.3s39.8-5.3,41.2-5.8,5.9-2,6-1.9.3,5.5.5,7.7c.4,3.4,1.2,6.1,2.1,8.7.6,1.7,1.3,3.3,2.3,4.8,1.8,2.6,2.9,4.3,4.6,5.7,2.7,2.3,5.8,4.2,10.8,5.9l9,3.1-6.9,4.1c-3.1,1.8-8.7,4.8-10.1,5.1-3,.7-100.9,0-100.9,0h.2,0Z" fill="#fff"/><path id="s" d="M668.38,954.4c-1-.5-4.7-2.6-5.3-3.2-.9-.8-9.9-6.1-11-6.7,0,0,4-1.9,4.5-2.9,1.3-2.6,1.9-12.8,1-18.9-.9-6.3-3.1-12.9-5.9-18.1-1.1-2-4-6.5-6.6-10.8-2.6-4.4-5-8.6-5.8-9.8-.6-.8-8.1-7.8-8-7.9.4-.4,25.2,9.1,28.3,10.9,12.1,6.8,20.7,16.5,25.2,31.1,1.3,4.4,2.6,7.6,2.7,14.4,0,7.4.5,7.8-.9,10.4-.8,1.6-2.2,5.9-3.4,6.8-1.9,1.5-.4,2.8-3.4,3-2.6,0-10.1,2.2-11.4,1.6h0v.1h0Z" fill="#fff"/><path id="t" d="M626.58,272.3c-.8-1.2-1.8-3.3-2.3-4.8-1.6-4.7-2-9.3-1.1-13.7.7-3.7,2.7-7.8,5.3-11.1,1-1.3,3.4-3.6,3.7-3.7,0,0,.9-.1,1.6-.2,8.3-.9,17.9,0,28.3,3,4.4,1.2,5.4,1.6,13.4,5,6,2.5,8.9,3.9,11.3,5.3,1.4.8,3.4,2.1,4.1,2.6.2.1.6.4,1,.7s.7.5.7.5l-1.4-.6c-1.9-1-2.9-1.4-8.5-3.7-6.1-2.6-7.8-3.2-10.2-4-5.7-1.9-11.6-3.2-17.8-3.9-5.6-.7-10.3,0-15,2.4-2.7,1.4-4.7,2.8-6.8,5-3,3.1-5.1,6.8-6.1,10.9-.7,3-.7,6.7,0,10.1,0,.6.2,1.1.2,1.1,0,0-.3-.3-.6-.8h.2v-.1h0Z" fill="#fff"/><path id="u" d="M592.08,262.2c.6-10.7,3.8-19.2,9.5-24.8,3.4-3.4,7.8-5.9,13-7.2,5.1-1.3,12.8-1.7,19.8-1,2.9.3,7.3,1,9.2,1.4.8.2.6.2-1.5,0-2.3-.2-9.2-.3-11.7-.2-5.1.3-9.2,1-13,2.3-12.7,4.2-21,13.9-24.9,28.8l-.5,1.8v-1h.1v-.1h0Z" fill="#fff"/><path id="v" d="M788.98,348.6c-.6-.9-1.7-2.5-2.6-3.7-5.8-7.7-12.7-14.1-20.4-18.7-5-3-12.8-6.3-21.7-9.3-9-3-17.4-4.9-23.8-5.5-.6,0-1-.1-1-.1v-.8c0-.9.4-3.2.4-3.5v-.2h.6c8.1.5,18.1,2.8,28.2,6.6,5.8,2.2,11.7,4.9,15.7,7.4,9.6,5.8,18,14.4,24.3,25.1.6,1,1.5,2.7,1.8,3.1v.2h-1.2l-.4-.6h.1Z" fill="#fff"/><path id="w" d="M795.68,360.5c0-.2-1.5-3.2-2.1-4.2-1.1-2.1-2.5-4.5-3.6-6.3l-.5-.8h1.3c0,.1,1.7,3.3,2.3,4.6,1.1,2.4,2.8,6.5,2.7,6.7h-.1Z" fill="#fff"/><path id="x" d="M594.48,429.9c-5.5-22.5-11.1-48.5-16.8-71,10.6,2,22,3,32.1-1.5,3.2-2.1,12.6-2.7,11.3-6.6-1.9-2.8-.5-.8-2.8,2.1-13.9,10.6-35.3,8.4-50.1.4-9-4.4-16.1-13.4-21.5-21.9,0-7.3,2.4-15.6,8.6-20.1,0-4,1.9-7.9,1.5-12.5,2-2.9,6.1-4.9,8.6-7.6,6.1-3.1-.9-9.4,4-12.3,1-3.5,5.3-2.9,8.1-4.2,7.2-3.2,17.6-4.4,19.1-13.8,3.6-6.9,9.8-12.2,16.1-17.1,4.4-2.1,16.5-9,11.2,1.1-7.3,12.1-3.3,29.4,8.8,37,6.7,3.8,14.2,11,9.8,19.4-3.2,5.2-6.4,10.8-2.5,16.2,3.5,6.4,15.4,4.2,20.4,9.6,5.8,7.7-1.1,16.2-5.9,21.6-5.8,5.6-7.5,10.8-3.3,17.7,2.8,6.5,5.4,16.1-1.1,22-11,17.3-24.9,35.6-44.5,42.7-2,.3-9.2,0-10.9-1.3h-.2v.1h0ZM606.68,288.3c2.2-4.9-7.9-7.9-7.2-13.6-3.5-.4-7-.2-4.3,4.5.6,3.6,8.9,14.9,11.6,9.1h-.1Z" fill="#fff"/><path id="y" d="M382.78,282.6c-1.7-.7-3.4-3.5-4-5.2-.5-1.4-.3-3.4-.2-5,.4-.6,1.3-3.3,1.5-4,.5-1.6,1.6-2.8,3-3.8,1.2-1,5-1.9,6.4-1.3,1,.5,3.6,4.1,4.1,5.2.2.9,0,1.5,0,2.4-.2,2.9-.3,7.7-1.9,10.2-.6.8-3.7,2.9-4.7,3.4-.6.2-3.5-1.7-4.1-1.9h-.1,0Z" fill="#fff"/><path id="z" d="M395.28,281.5c-1-2.6-.8-5.9-.9-8.6,0-.6.8-3.9.9-4.4.5-1.2,2.4-2.9,3.4-3.8,1.7-1.6,4.3-2,6.6-1.9,1.6,0,4.7.8,6.1,1.6.9.4,2.9,5.6,2.7,6.6,0,2.5-.9,4.3-1,6.7-.4,3-2.8,7.2-5.4,9-1.3.9-5.9,1.4-7.4,1.1,0,0-4.2-4.4-4.9-6.4h-.1v.1h0Z" fill="#fff"/><path id="aa" d="M422.18,293.3c-1.5-.2-4-3.4-4.8-4.7-1-1.4-1.7-4.6-2.4-6.1-.5-1.1-.9-3.6-.7-4.8.1-1.4,0-3.3,0-4.6,0-2.1.7-3.1.8-5.2.5-.9,1.9-2.7,2.7-3.5,1.5-1.7,4.8-1.2,7.1-1,1.7,0,5.3.1,6.2,1.6.7.9,1.8,2.5,2.4,3.5,1.7,3.5,2,10,1.6,13.9-.3,3.8-3.2,8.5-6.8,10.1-1.1.5-4.8,1-6,.8h-.1Z" fill="#fff"/><path id="ab" d="M441.28,293.4c-1-.2-2.1-1.5-2.9-2.3s-1.7-3.2-2.2-4.3c-.8-1.8-.5-4.2-.2-6.7.3-3.3-.3-6-1.8-9.6-.2-.4,1-2.2,1-2.3,0-.4,1.5-3.4,2.4-3.8,3-1.6,10-.6,13.9,3.1,2,1.9,4.1,5.7,4.6,7.9.3,1.3.6,5.7.3,7.4-.3,2.5-1.3,5.2-2.3,6.6-1.4,2.1-3.2,3.9-5.6,4.4-1,.2-3.8.7-4.7.5l-2.4-.8h0l-.1-.1h0Z" fill="#fff"/><path id="ac" d="M370.28,549.6c-10.8-2.2-16.8-10.7-22.9-23.2-1.9-3.9-6.5-35.8-7.3-41-1.8-12.1,0-54,1.8-70.2,3.2-27.8,9.2-56.2,16.2-76.3l3.7-10.7,37.4.2,35-.9,7.6-6.7c9.4-8.3,12.3-10.4,17.2-10.4s8,3.4,8,5.6c0,3.4-7.7,16.7-13.7,22.4-5.3,5.1-20.5,13.5-29.4,16.4-6.9,2.2-10,4.5-13.2,10.6-2.1,4-2.9,5.6-3.3,24.1-.4,21.8,1.3,37.9,5.3,54.3l2.6,10.8-7.1,10c-7.9,11-10.6,9.8-8.4,11.2,2.9,1.8-.6.7,4.3-6.1,6.1-8.5,17.6-19.1,30.5-28.6,9.1-6.7,28.8-19.5,29.9-19.5s-2.3,8.6-3.3,12c-.4,1.5-.7,3.2-1,5.2-.7,4.3-1.4,10.3-1.4,20.6s.7,16.6,1.6,21.1c.5,2.5.9,4.9,1.9,8.2,3.4,11.4,9.6,25,15.2,33.3,2.2,3.2,6.6,8.5,6.1,8.6s-18.3,6.2-38.5,12.1l-29.5,8.5-20.5,4.6c-6.2,1.4-10.5-3.4-12.3-3.8l-12.5-2.5h0v.1h0Z" fill="#fff"/><path id="ad" d="M586.58,429.1c-4.3-2.6-8.7-9.8-10.5-16.3-1.7-6.1,0-21.4,1.6-30.6,1-5.7,4.3-1.3,10.5,23.2,3,12,4.9,24.9,4.9,25,0,.4-4.8-.3-6.5-1.3h0Z" fill="#fff"/><path id="ae" d="M643.68,314.8c-.6-.3-1.5-1.1-2.2-1.7-1.7-1.6-1.7-1.7,1.5-7.2,2.2-3.8,3.1-6.6,3.2-9.4v-1.4l.8.9c1.9,2.1,3,5.3,2.8,7.9-.2,2.9-.9,4.7-3.2,8.7-.9,1.5-1.7,2.8-1.7,2.8,0,0-.6-.3-1.1-.6h-.1Z" fill="#fff" stroke="#fff" stroke-miterlimit="3.8" stroke-width=".8"/><path id="af" d="M639.08,718.3c-2.4-1.3-13.6-7.7-24.8-14.3l-20.5-11.9,9.6-9.5c34.5-34.3,55.5-68,61.9-99.2,1.8-8.8,2.3-19.9,1.3-27.8-.4-3.1-.8-6.7-.8-7.9s-.9-4.6-1.9-7.6l-1.8-5.4,2.7-2.4c4.2-3.7,13.5-9.7,19.6-12.7,24.6-11.9,53.4-12.7,83-2.2,3.4,1.2,6.3,2.3,6.4,2.4.4.4,2.5,17,3,24.2,2.8,39-5.7,74.6-24.8,103.3-6.3,9.4-10.8,14.9-19.1,23.2-22.7,22.7-53,39.8-88.6,50.1-.4,0-2.8-.8-5.2-2.1h0v-.2h0Z" fill="#fff"/><g id="ag"><path id="ah" d="M627.58,9.3h0c-24.9,0-47.9,13.3-60.4,34.9h0c-12.4,21.6-12.4,48.1,0,69.6h0c12.4,21.6,35.4,34.9,60.4,34.9h0c24.9,0,47.9-13.3,60.4-34.9h0c12.4-21.6,12.4-48.1,0-69.6h0c-12.4-21.6-35.4-34.9-60.4-34.9h0Z" fill="#3fbdf1" stroke="#fff" stroke-miterlimit="4.5" stroke-width="6.3"/><g id="ai"><path id="aj" d="M644.28,89c2-.9,3.5-2.7,3.9-4.9l5.4-28.4c.6-2.9,0-6-1.9-8.4l-6.4-8.5c-.7-1-1-2.2-.8-3.3l.8-4.2-18.6-3.6-.8,4.1c-.2,1.2-.9,2.2-1.9,2.8l-9.1,5.6c-2.6,1.6-4.3,4.1-4.9,7.1l-5.4,28.4c-.4,2.2.3,4.4,1.9,6-2,.9-3.5,2.7-3.9,4.9l-6.9,36.2c-.7,3.6,2.2,5.7,5.8,6.4l30.3,5.9c3.6.7,6.8-.3,7.5-3.9l6.9-36.2c.4-2.2-.3-4.4-1.8-5.9h0l-.1-.1h0Z" fill="#fff"/><rect id="ak" x="634.7" y="21.79" width="3.3" height="18.9" transform="translate(485.34 650.21) rotate(-79.1)" fill="#9fdef9" isolation="isolate" opacity=".3"/><path id="al" d="M648.18,52c1.3,1.8,1.8,4,1.4,6.2l-5,26c-.3,1.4-1.2,2.5-2.5,3l-2.7,1.1,2.1,2c1,1,1.4,2.4,1.2,3.7l-6.3,33.1c-.4,2.2-2.6,3.7-4.8,3.3l-28.1-5.4c-2.2-.4-3.7-2.6-3.3-4.8l6.3-33.1c.3-1.4,1.2-2.5,2.5-3l2.7-1.1-2-2c-1-1-1.4-2.4-1.2-3.7l5-26c.4-2.2,1.7-4.1,3.6-5.2,2.7-1.4,9,3.4,16.7,4.9,7.8,1.5,12.8,0,14.4,1h0Z" fill="#3fbdf1" isolation="isolate" opacity=".8"/><path id="am" d="M633.78,51c-7.7-1.5-14-6.3-16.7-4.9,4.2,2.9,9.1,5,16.4,6.4,7.3,1.4,14.7-.4,14.7-.4-1.5-1-6.7.4-14.4-1h0v-.1Z" fill="#3fbdf1" isolation="isolate" opacity=".2"/><path id="an" d="M648.08,30.8h-.3l.5-2.8c.2-1.3-.6-2.5-1.8-2.7h0l-3-.6v-.3l3,.6c1.4.3,2.4,1.7,2.1,3.1,0,0-.5,2.7-.5,2.7Z" fill="#3fbdf1"/><path id="ao" d="M646.78,34.2l-.2-.3c.4-.3.7-.8.9-1.4h.3c0,.7-.5,1.3-1,1.7Z" fill="#3fbdf1"/><rect id="ap" x="633.07" y="17.27" width="7.4" height="21.7" rx="1.4" ry="1.4" transform="translate(488.75 648.08) rotate(-79.1)" fill="#9fdef9"/><path id="aq" d="M627.38,29.4h0s-.2,0,0-.2h0l1-5.4s0-.2.2,0c0,0,.2,0,0,.2h0l-1,5.4h-.2Z" fill="#fff" isolation="isolate" opacity=".7"/><path id="ar" d="M630.68,30h0s-.2,0,0-.2h0l1-5.4s0-.2.2,0c0,0,.2,0,0,.2l-1,5.4s0,.2-.2,0Z" fill="#fff" isolation="isolate" opacity=".7"/><path id="as" d="M634.08,30.7h0s-.2,0,0-.2h0l1-5.4s0-.2.2,0c0,0,.2,0,0,.2l-1,5.5s0,.2-.2,0h0v-.1Z" fill="#fff" isolation="isolate" opacity=".7"/><path id="at" d="M637.38,31.3h0s-.2,0,0-.2h0l1-5.4s0-.2.2,0c0,0,.2,0,0,.2l-1,5.5s0,.2-.2,0h0v-.1Z" fill="#fff" isolation="isolate" opacity=".7"/><path id="au" d="M640.78,32h0s-.2,0,0-.2l1-5.5s0-.2.2,0c0,0,.2,0,0,.2l-1,5.5s0,.2-.2,0Z" fill="#fff" isolation="isolate" opacity=".7"/><path id="av" d="M644.18,32.6h0s-.2,0,0-.2l1-5.4s0-.2.2,0h0s.2,0,0,.2h0l-1,5.5h-.2v-.1Z" fill="#fff" isolation="isolate" opacity=".7"/><circle id="aw" cx="629.22" cy="113.48" r="3.1" fill="#fff"/><path id="ax" d="M612.83,100.72c-.2,1.2-1.4,2-2.6,1.8-1.2-.2-2-1.4-1.8-2.6s1.4-2,2.6-1.8h0c1.2.2,2,1.4,1.8,2.6Z" fill="#fff"/><path id="ay" d="M621.38,74.5c-1.2,0-2.2-1.1-2.1-2.3,0-1.2,1.1-2.2,2.3-2.1,1.2,0,2.2,1.1,2.1,2.3h0c0,1.2-1.1,2.2-2.3,2.1Z" fill="#fff" isolation="isolate" opacity=".9"/><path id="az" d="M628.78,62c-.9,0-1.5-.8-1.5-1.7s.8-1.5,1.7-1.5,1.5.8,1.5,1.7h0c0,.9-.8,1.5-1.7,1.5Z" fill="#fff" isolation="isolate" opacity=".9"/><path id="ba" d="M635.08,93.5c0,.5-.6.8-1.1.7s-.8-.6-.7-1.1c0-.5.6-.8,1.1-.7.5,0,.8.6.7,1.1Z" fill="#3fbdf1" isolation="isolate" opacity=".3"/><path id="bb" d="M613.23,121.06h-.2c-.5-.1-.9-.4-1.2-.8s-.4-.9-.3-1.4h0c.2-1,1.2-1.7,2.2-1.5s1.7,1.2,1.5,2.2c-.2.9-1.1,1.6-2,1.5ZM613.63,117.66c-.9-.1-1.7.5-1.8,1.4,0,.4,0,.8.3,1.1.2.4.6.6,1,.7.9.2,1.7-.4,1.9-1.3s-.4-1.7-1.3-1.9h-.1Z" fill="#fff"/><path id="bc" d="M639.68,81.5h0c-.7-.2-1.2-.9-1.1-1.6h0c0-.7.8-1.2,1.6-1.1s1.2.8,1.1,1.6c0,.7-.8,1.2-1.5,1.1h-.1ZM638.68,80c0,.6.3,1.2.9,1.3.6,0,1.2-.3,1.3-.9,0-.3,0-.6-.2-.8-.2-.2-.4-.4-.7-.5-.6,0-1.2.3-1.3.9Z" fill="#fff"/><path id="bd" d="M622.18,51.1h0c-.3,0-.6-.4-.5-.7h0c0-.3.4-.6.7-.5s.6.4.5.7c0,.3-.4.6-.7.5ZM621.88,50.4c0,.2,0,.4.3.5.2,0,.4,0,.5-.3h0c0-.2,0-.4-.3-.5-.2,0-.4,0-.5.3Z" fill="#fff" isolation="isolate" opacity=".7"/><path id="be" d="M634.48,69.1h0c-.9-.2-1.4-1-1.3-1.9h0c.2-.9,1-1.4,1.9-1.3.9.2,1.4,1,1.3,1.9-.2.8-.9,1.4-1.7,1.3h-.2ZM634.78,66.1c-.3,0-.6,0-.9.2-.3.2-.5.5-.6.9h0c0,.7.3,1.5,1.1,1.6.4,0,.7,0,1-.2s.5-.5.6-.9c0-.4,0-.7-.2-1s-.5-.5-.9-.6h-.1,0Z" fill="#fff" isolation="isolate" opacity=".7"/><path id="bf" d="M645.98,84.4l4.8-24.8c0-.7-.3-1.3-1-1.4h0c-.7,0-1.3.3-1.4,1h0l-4.8,24.8c-.3,1.7-1.5,3.1-3,3.7l-1.3.6,1,1c1.2,1.2,1.8,2.9,1.4,4.6l-6.3,33.1c-.4,2-1.7,2.8-3.6,3.4-.3,0-.5.4-.4.7,0,.2.2.3.4.4h0c2.8.5,5.4-1.3,5.9-4l6.3-33.1c.3-1.7-.2-3.4-1.4-4.6l-1-1,1.3-.6c1.6-.7,2.7-2.1,3-3.7h0s.1-.1.1-.1Z" fill="#fff" isolation="isolate" opacity=".3"/><path id="bg" d="M607.38,70.76s13.86,11.67,39.92,7.92l-5.15,18.57s-21.87,6.35-37.57-8.96c0,0,3.53-9.2,2.8-17.53h0Z" fill="#fff" isolation="isolate"/><path id="bh" d="M615.51,88.43c-.15-.03-.28-.1-.38-.21-.11-.13-.16-.27-.13-.41-.07-.44-.11-.79-.1-1.05,0-.26.02-1.02.03-2.26,0-.94.04-1.69.09-2.25-.52,1.05-1.03,1.93-1.52,2.63-.57.81-.97,1.46-1.19,1.94.03.09.03.17.02.24-.03.15-.12.26-.28.33-.14.07-.29.09-.44.05-.45-.09-.64-.34-.56-.75l-.03-.67-.06-2.58c-.05-.88-.19-2.15-.41-3.81v-.21c.06-.31.27-.43.62-.37.22.04.36.2.43.46.04.13.09.51.16,1.12.08.65.13,1.42.16,2.32l.05,2.33c.52-.76,1.08-1.71,1.68-2.84.36-.69.63-1.16.8-1.42.45-.68.82-1,1.1-.94.24.05.38.2.43.46.06.31.05,1.03-.04,2.14-.04.57-.06,1.25-.05,2.06l.04,2.07c.66-1,1.52-2.35,2.56-4.07.06-.09.2-.4.44-.91.18-.37.36-.66.54-.85.16-.16.33-.22.53-.18.34.07.48.27.41.61-.01.06-.1.22-.26.47l-.31.51-.46.84-2.22,3.35c-.22.37-.57.91-1.06,1.61-.17.2-.37.28-.61.23h.02ZM623.76,89.9c-.06-.01-.17-.11-.3-.29-.12-.17-.21-.31-.27-.44-.36.11-.67.19-.93.23s-.48.05-.64.01c-.79-.16-1.32-.49-1.59-1.01-.26-.48-.3-1.16-.13-2.02.16-.82.58-1.46,1.25-1.93.68-.47,1.4-.63,2.18-.47.29.06.61.2.94.42.42.28.61.55.55.82-.02.09-.07.17-.15.22-.06.12-.13.33-.21.62-.07.29-.16.66-.25,1.12-.09.42-.12.75-.11,1.01,0,.15.05.47.14.95.01.07.03.16.06.29v.09c-.01.13-.08.24-.19.31s-.23.09-.35.07h0ZM623.4,86.18c.03-.14.07-.3.12-.46.05-.17.12-.34.19-.53-.11-.09-.21-.16-.3-.21-.08-.05-.15-.08-.2-.09-.52-.1-1.02.02-1.48.37-.46.35-.75.8-.86,1.36s-.09.99.05,1.3c.14.31.41.51.8.59.32.06.61.06.86-.01.13-.04.33-.13.59-.28.07-.91.15-1.59.23-2.04h0ZM629.4,86.19c-.07-.01-.15-.03-.25-.06-.09-.03-.17-.04-.25-.06s-.31-.04-.7-.06l-.49,3-.04.22-.05.26c-.13.74-.38,1.07-.75,1-.13-.03-.24-.09-.33-.2-.08-.11-.11-.23-.08-.36s.07-.32.13-.57.1-.44.13-.57l.48-2.97c-.24-.06-.61-.16-1.1-.31-.29-.1-.41-.3-.35-.59.03-.15.1-.26.21-.34.11-.08.24-.11.38-.08l1.04.29c.03-.17.07-.4.11-.69s.08-.5.1-.63c.03-.14.1-.25.22-.32.12-.08.25-.1.39-.07.3.06.43.34.38.85-.01.13-.04.28-.07.45l-.07.29-.07.31c.43.03.67.05.73.06.35.07.58.13.68.19.19.11.26.29.21.54-.03.15-.1.26-.21.34-.11.08-.24.1-.38.07h0ZM632.36,91.49c-.76-.15-1.34-.46-1.74-.94-.43-.52-.57-1.16-.42-1.92.17-.88.53-1.57,1.07-2.08.59-.56,1.27-.76,2.04-.61.56.11,1,.29,1.31.55.39.32.54.72.44,1.2-.07.34-.32.61-.75.81-.19.09-.59.21-1.18.35l-2.11.53c.13.32.33.57.58.77.26.2.57.33.94.41.23.05.51.06.84.03.42-.03.7-.13.85-.28.15-.16.29-.23.42-.2.12.02.21.09.29.2.08.11.1.22.08.34-.07.37-.44.64-1.09.79-.56.13-1.08.14-1.57.05ZM633.13,86.86c-.41-.08-.78.01-1.12.28-.34.26-.63.7-.89,1.31l1.7-.43c.67-.18,1.15-.35,1.46-.52-.24-.33-.62-.54-1.14-.64h-.01ZM640.38,88.95c-.11.42-.32.59-.63.53-.29-.06-.4-.25-.34-.59.01-.06.03-.18.05-.36l.07-.43c-.54-.04-1,.03-1.37.2-.34.16-.66.44-.94.84l-.54,2.77c-.07.34-.27.48-.6.41-.3-.06-.41-.26-.34-.6l.7-3.55c.02-.11.06-.28.11-.5s.09-.39.11-.5c.07-.34.25-.48.55-.42.33.07.44.38.33.94.77-.5,1.55-.67,2.34-.51.27.05.46.2.55.43s.1.56.02.97c-.03.18-.06.29-.07.35h0v.02Z"/></g></g><g id="bi"><path id="bj" d="M52.98,823.4c-1.9,1.8-.6,4.8-1.1,7.1,0,8.1,0,16.1.2,24.2-2.5-2.1-4.8-4.4-7.4-6.3-2.8,1.3,0,4.4,1.4,5.7,1.3,2,4.3,3.2,3.9,5.9.5,6.2,2.3,12.3,2.2,18.6-.2,2.7,2.9,1.6,2.2-.6v-18.3c3-2.3,6.1-4.7,8.3-7.8.6-1.3.2-3.4-1.7-2.4-2.6,1.1-4.3,3.7-6.5,5.3v-30.2c0-.6-.7-1-1.3-1.1h-.2v-.1h0Z"/><path id="bk" d="M78.58,879.7c-7.7,0-16.7.2-24.3,0v-20c1.5-1.4,8.4-7.2,8.5-8.7l-.4-.6c-1.7-.4-6.8,5-8.1,6.3v-31.2c0-.7-.7-1.3-1.3-1.5-.4,0-.5.2-.7.5-.7,1.4-.2,28.3-.2,31.9-1-.9-6.7-6.3-7.4-6.5-.4,0-.73.17-1,.5-.2,2.3,6.6,7,8.3,9.2,0,6.6.2,13.6,0,20.1h-24.6c.2,0,0,0,.3-.3-5.4-7.4-8.6-23.7-.9-30.7,1.8-1.6,3.7-2.7,5.1-4.8,4.8-6.6-1.2-10.4-2.1-16.6-3.4-21.4,20.6-35.7,37.9-22.9,8.4,6.2,12.1,18.8,7,28-1.4,2.5-2.8,4.6-2,7.6,1.9,7.6,10.5,8,11,16.9.4,7.2-.7,16.8-5.2,22.6h0v.2h.1Z" fill="#3fbdf1"/></g><g id="bl"><path id="bm" d="M855.12,759.73l9.9-1.5c8.7-15.3,28.1-20.6,43.5-11.8,15.3,8.7,20.6,28.1,11.8,43.5-8.7,15.3-28.1,20.6-43.5,11.8-11.5-6.5-17.8-19.6-15.7-32.6h0l-6.1-9.4h.1Z" fill="#3fbdf1" stroke="#fff" stroke-miterlimit="2.8" stroke-width="5.6"/><polygon id="bn" points="889.22 777.53 909.32 763.33 913.22 769.53 886.62 787.53 874.42 770.73 880.82 766.43 889.22 777.53" fill="#fff"/></g><g id="bo"><circle id="bp" cx="128.7" cy="705.82" r="57.9" fill="#3fbdf1" stroke="#fff" stroke-miterlimit="9.4" stroke-width="7.8"/><g id="bq"><rect id="br" x="118" y="734.62" width="20.7" height="2" fill="#fff"/><polygon id="bs" points="118 735.42 138.6 736.02 138.6 734.62 118 734.62 118 735.42" isolation="isolate" opacity=".1"/><path id="bt" d="M161.7,724.92c-3,3.1-7.5,4.3-11.7,2.9-.7-.2-1.3-.5-1.9-.8-.9-.5-1.8-1.1-2.6-1.8l2.9-3.2c.4.4.9.7,1.4,1,4.4,2.7,7.8-.4,8.5-1.1,3.1-3.2,5.1-11.3,2.8-14.9-.2-.3-.9-.7-4.1-.6-.6,0-1.3,0-2.1.2h-1.8l.2-2.1v-2.1h1c1.5-.2,3.1-.3,4.6-.2,2.4,0,4.8.7,6.1,2.7,3.8,5.8.7,16-3.2,20.1h0l-.1-.1h0Z" fill="#fff"/><g id="bu" opacity=".1"><path id="bv" d="M161.7,724.92c-3,3.1-7.5,4.3-11.7,2.9-.7-.2-1.3-.5-1.9-.8-.9-.5-1.8-1.1-2.6-1.8l2.9-3.2c.4.4.9.7,1.4,1,4.4,2.7,7.8-.4,8.5-1.1,3.1-3.2,5.1-11.3,2.8-14.9-.2-.3-.9-.7-4.1-.6-.6,0-1.3,0-2.1.2h-1.8l.2-2.1v-2.1h1c1.5-.2,3.1-.3,4.6-.2,2.4,0,4.8.7,6.1,2.7,3.8,5.8.7,16-3.2,20.1h0l-.1-.1h0Z"/></g><path id="bw" d="M100.8,695.82s1.7,13.5,4.4,22.9c2.1,7.3,5.4,14.5,12.7,16,2.7.6,6.4.4,10.4.4s7.7,0,10.4-.4c7.3-1.5,10.6-8.7,12.7-16,2.7-9.5,4.4-22.9,4.4-22.9h-55,0Z" fill="#fff"/><path id="bx" d="M121.8,735.12c-1.3,0-2.6,0-3.9-.4-7.3-1.5-10.6-8.7-12.7-16-2.7-9.5-4.4-22.9-4.4-22.9h6.3c.4,6.5,2.7,35.7,14.8,39.3h-.1Z" fill="#fff" isolation="isolate" opacity=".3"/><path id="by" d="M132.5,734.62c-1.3.3-4.2.5-4.2.5,4,0,7.7,0,10.4-.4,7.3-1.5,10.6-8.7,12.7-16.1,2.7-9.5,4.4-22.8,4.4-22.8h-23.3s13,2.6,14.2,7.2c1.9,7.3-4.8,29.7-14.2,31.6h0Z" isolation="isolate" opacity=".1"/><polygon id="bz" points="104.7 740.22 95.4 735.32 161.3 735.32 151.9 740.22 104.7 740.22" fill="#fff"/><rect id="ca" x="104.7" y="740.22" width="47.2" height="1.6" fill="#fff"/><polygon id="cb" points="104.7 740.82 151.9 741.22 151.9 740.22 104.7 740.22 104.7 740.82" isolation="isolate" opacity=".1"/><path id="cc" d="M127,695.82s-13-5.2-13-12.3,16.9-11.6,16.9-17.1-7.4-8.7-7.4-8.7c0,0,11.6,3.5,11.6,10.4s-11.1,11.7-12.2,16.1c-1.5,6.1,4.1,11.6,4.1,11.6h0Z" fill="#ebebeb" isolation="isolate" opacity=".9"/><path id="cd" d="M126.4,695.82s13-4.1,13-9.7-16.9-9.1-16.9-13.4,7.4-6.9,7.4-6.9c0,0-11.6,2.7-11.6,8.2s12.8,9.2,13.7,13.7c.9,4.4-5.6,8.1-5.6,8.1h0Z" fill="#ebebeb" isolation="isolate" opacity=".9"/><g id="ce"><path id="cf" d="M129,725.22s.9-1.6.5-4.3c-.5-2.7-2.6-5.7-2-10.6.6-4.9,2.8-6.2,2.8-6.2,0,0,6.1,1.4,6.1,10.5s-5.8,10.5-7.4,10.5h0v.1h0Z" fill="#3fbdf1"/><path id="cg" d="M126.5,725.22s1.3-1.8.6-4.7c-.7-3.2-2.6-6.5-1.7-11.1.7-3.8,2.2-5.7,2.2-5.7,0,0-9,0-8.7,10.7.3,11.1,7.6,10.7,7.6,10.7h0v.1Z" fill="#3fbdf1"/></g></g></g><g id="ch"><path id="ci" d="M212.92,450.87h0c-19-5.7-39.5-.9-54,12.7h0c-14.4,13.6-20.5,33.8-15.9,53h0c4.6,19.3,19.1,34.6,38.1,40.3h0c19,5.7,39.5.9,54-12.7h0c14.4-13.6,20.5-33.8,15.9-53h0c-4.6-19.3-19.1-34.6-38.1-40.3h0Z" fill="#3fbdf1" stroke="#fff" stroke-miterlimit="10" stroke-width="8.1"/><g id="cj"><g id="ck"><path id="cl" d="M190.82,419.57s5.2,8-2.6,15c-8.5,7.7-15,.7-15,.7l17.6-15.8h0v.1h0Z" fill="#3fbdf1"/><path id="cm" d="M190.82,419.57s5.2,8-2.6,15c-8.5,7.7-15,.7-15,.7l17.6-15.8h0v.1h0Z" isolation="isolate" opacity=".3"/><path id="cn" d="M189.22,418.17s4.6,1.8.3,9.5-10.3,9.8-13.7,9-2.9-2.6-2.9-2.6c0,0-1-.2-1.3-2.6-.3-2.5.6-8,6.4-12.3,5.2-3.9,10-3.7,11.2-.9h0v-.1Z" fill="#3fbdf1"/><path id="co" d="M189.22,418.07c-1,3.3-3.4,6.2-6.7,7.2l-2.9.7c-1,.2-1.9.9-2.7,1.6s-1.4,1.6-1.9,2.4c-.7,1.3-1.4,2.7-2,4.1.8-1.2,1.7-2.5,2.6-3.7.8-1.2,1.8-2.3,3.1-3,1.7-1,3.9-.9,5.6-2,2.7-1.5,4.7-4.3,5-7.4h-.1v.1h0Z" isolation="isolate" opacity=".3"/><g id="cp" opacity=".3"><path id="cq" d="M175.52,434.17h0c-.2-.1-.4-.6-.1-1,.7-1.3,1.7-2.6,2.8-3.4.2-.3.6-.5.9-.4,0,0,.2,0,.3.1.3.2.2.8,0,1.2-.3.9-.6,1.7-1.2,2.3-.6.6-1.2,1.2-2,1.3-.2,0-.5,0-.7-.2h-.2.2v.1Z" fill="#fff"/></g></g><path id="cr" d="M172.72,432.47c-.9-3.7.7-7.9,3.6-10.2-2.4,2.9-3.7,6.4-3.6,10.2Z" fill="#fff" isolation="isolate" opacity=".3"/><path id="cs" d="M177.52,421.17c.2-.7.7-1.1,1.4-1.2-.2.7-.7,1.1-1.4,1.2Z" fill="#fff" isolation="isolate" opacity=".3"/><path id="ct" d="M181.72,427.27c2.8-.7,5.3-2.3,6.9-4.6-1,2.8-4,4.9-6.9,4.6Z" fill="#fff" isolation="isolate" opacity=".3"/></g><g id="cu"><g id="cv"><path id="cw" d="M165.92,427.27s-4.5,3.6-9.3-.5c-5.2-4.6-1.4-9-1.4-9l10.7,9.6h0v-.1Z" fill="#3fbdf1"/><path id="cx" d="M165.92,427.27s-4.5,3.6-9.3-.5c-5.2-4.6-1.4-9-1.4-9l10.7,9.6h0v-.1Z" isolation="isolate" opacity=".3"/><path id="cy" d="M166.62,426.17s-.8,2.9-5.7.8-6.6-5.5-6.3-7.6,1.4-1.9,1.4-1.9c0,0,0-.6,1.5-1s4.8-.2,7.9,3c2.7,2.8,2.9,5.8,1.3,6.7h-.2.1Z" fill="#3fbdf1"/><path id="cz" d="M166.72,426.17c-2-.3-3.9-1.7-4.8-3.6-.2-.6-.4-1.1-.7-1.7-.2-.6-.7-1.1-1.2-1.6-.5-.4-1-.8-1.6-1-.8-.4-1.7-.7-2.6-.9.8.4,1.6.8,2.5,1.3.8.4,1.5,1,2,1.7.7,1,.9,2.3,1.6,3.2,1.1,1.6,3,2.6,4.8,2.5h0v.1Z" isolation="isolate" opacity=".3"/><g id="da" opacity=".3"><path id="db" d="M156.12,418.97h0c0-.2.3-.3.6-.1.8.3,1.6.8,2.2,1.4.1.2.3.3.3.5v.2c-.1.2-.5.1-.7.2-.5,0-1.1-.3-1.5-.6-.5-.3-.8-.7-.9-1.1-.1-.4,0-.3,0-.4h0v-.1h0Z" fill="#fff"/></g></g><path id="dc" d="M156.92,417.17c2.2-.8,4.8-.1,6.4,1.4-1.9-1.2-4.1-1.8-6.4-1.4Z" fill="#fff" isolation="isolate" opacity=".3"/><path id="dd" d="M164.02,419.37c.4.1.7.3.8.7-.4-.1-.7-.3-.8-.7Z" fill="#fff" isolation="isolate" opacity=".3"/><path id="de" d="M160.62,422.37c.6,1.7,1.7,3,3.3,3.8-1.8-.3-3.3-2.1-3.3-3.8Z" fill="#fff" isolation="isolate" opacity=".3"/></g><g id="df"><g id="dg"><path id="dh" d="M169.52,439.07s0,6.3-6.6,7.5c-7.4,1.4-8.6-4.8-8.6-4.8l15.2-2.6h0v-.1h0Z" fill="#3fbdf1"/><path id="di" d="M169.52,439.07s0,6.3-6.6,7.5c-7.4,1.4-8.6-4.8-8.6-4.8l15.2-2.6h0v-.1h0Z" isolation="isolate" opacity=".3"/><path id="dj" d="M169.22,437.67s2,2.6-3.1,5.4-9.1,1.9-10.6.2c-1.5-1.7-.7-2.4-.7-2.4,0,0-.5-.4.2-1.9s3-4.2,7.8-4.7c4.2-.4,6.8,1.4,6.5,3.4h-.1,0Z" fill="#3fbdf1"/><path id="dk" d="M169.22,437.57c-1.7,1.5-4,2.2-6.2,1.6-.7-.2-1.2-.4-1.9-.6s-1.4-.2-2.1,0c-.7.2-1.4.3-1.9.7-.9.4-1.7,1-2.5,1.5.9-.4,1.8-.8,2.7-1.2.8-.4,1.8-.6,2.7-.7,1.2,0,2.5.8,3.8.8,2,.1,4.1-.8,5.3-2.3h0v.2h.1,0Z" isolation="isolate" opacity=".3"/><g id="dl" opacity=".3"><path id="dm" d="M156.02,441.77h0c0-.2,0-.5.3-.6.8-.5,1.9-.9,2.7-.9s.5-.1.6,0v.2c.1.3-.2.5-.3.7-.4.4-1,.7-1.5.9-.5.2-1.1.3-1.5,0-.1,0-.2-.1-.4-.3h.2-.1Z" fill="#fff"/></g></g><path id="dn" d="M155.12,439.87c.7-2.4,3.1-4.2,5.5-4.4-2.4.9-4.2,2.3-5.5,4.4Z" fill="#fff" isolation="isolate" opacity=".3"/><path id="do" d="M161.62,435.27c.3-.4.7-.5,1.2-.2-.3.4-.7.5-1.2.2Z" fill="#fff" isolation="isolate" opacity=".3"/><path id="dp" d="M161.92,440.17c1.9.6,3.6.5,5.5-.2-1.4,1.4-4,1.5-5.5.2Z" fill="#fff" isolation="isolate" opacity=".3"/></g><g id="dq"><g id="dr"><path id="ds" d="M175.32,484.67l5.9,56.8s8.9,7.4,22.8,4.4c0,0,3.8-.4,7.4-3.6l7.3-57.4-43.4-.2h0Z" fill="#fff"/><path id="dt" d="M175.42,485.47s11.6,8,25.1,7.1c13.5-1,18.1-6.4,18.1-6.4l.5-2.7-43.7,2h0Z" fill="#3fbdf1" isolation="isolate" opacity=".5"/><path id="du" d="M221.02,482.47l-.9-4.6-2.9-2.4-.2-4.8-20.5.2-20.6.2-.2,4.3-2.9,2.4-.9,4.6c3.4,6.7,24.5,6.5,24.5,6.5h0c2.5,0,21.6,0,24.7-6.4h-.1Z" fill="#263238"/><path id="dv" d="M175.62,475.37s8.1,4.2,23.3,3.6,18.2-3.5,18.2-3.5l-.2-4.6h-41.1c0,.1-.2,4.5-.2,4.5h0Z" fill="#9fdef9" isolation="isolate" opacity=".3"/><path id="dw" d="M216.92,470.87c0,2.3-9.2,4.5-20.6,4.4s-20.6-2-20.5-4.3c0-2.3,9.3-4,20.6-3.9,11.4.1,20.5,1.5,20.5,3.8Z" fill="#263238"/><path id="dx" d="M196.32,488.87h0c2.5,0,21.6,0,24.7-6.4l-.8-4.3c-2.5,2-8,4.8-20.2,5.4-21.3,1-27.3-5.8-27.3-5.8l-.9,4.6c3.4,6.7,24.5,6.5,24.5,6.5h0Z" isolation="isolate" opacity=".3"/><path id="dy" d="M190.82,472.27c0,.5-1.8.8-4.1.7-2.2,0-4-.6-4-1.1s1.8-.8,4.1-.7c2.2,0,4,.6,4,1.1Z" fill="#fff"/><path id="dz" d="M196.82,469.87c7.9,0,14.6.5,16.6,1.4.1,0,.2-.2.2-.3,0-1.1-7.7-2-17.2-1.9-9.5,0-17.2,1.1-17.2,2.2s.2.4.6.6c1.2-1,8.4-1.9,17-1.9h0v-.1h0Z" isolation="isolate" opacity=".3"/><path id="ea" d="M176.92,499.67s17.5,8.9,40.1-.5l-2.3,17.8s-18.2,11-36-.4l-1.7-17h-.1v.1h0Z" fill="#3fbdf1" isolation="isolate" opacity=".5"/><g id="eb"><path id="ec" d="M185.52,512.77h.2c.2,0,.4-.2.5,0,.2,0,.4.3.5.7v.6s-.1.2-.2.3c-.1,0-.2,0-.4.2h-2.1c-.3,0-.6-.2-.9-.4-.3-.2-.6-.4-.8-.7-.3-.3-.5-.6-.7-.9-.2-.3-.3-.7-.3-1.2s0-.9.1-1.4.3-.9.6-1.3c.3-.3.6-.6.9-.8.3-.2.7-.3,1-.4.7-.2,1.4-.2,2,0,.3,0,.6.2.9.4.3.2.5.3.6.5l.2.2.2.2c.1.2.2.3.1.5,0,.2-.2.3-.3.5-.3.3-.6.4-.8.3-.1,0-.3,0-.4-.3-.2-.3-.5-.5-1-.6h-1.3c-.5,0-.4.2-.6.5-.2.3-.3.5-.4.8,0,.3-.1.6,0,.9,0,.3.2.5.3.7.3.4.7.6,1.1.7h1,0Z" fill="#1b2327"/><path id="ed" d="M189.02,510.77c.6-.5,1.2-.6,1.9-.6s1.3.4,1.8.9.7,1.2.6,2c0,.5-.2,1-.6,1.4-.3.4-.7.7-1.1.8-.4,0-.8.2-1.3.2s-.8-.2-1.2-.4-.7-.6-.9-1-.3-.9-.3-1.4c0-.8.4-1.4,1-1.8h.1v-.1h0ZM190.02,513.47c.2.2.4.3.6.3s.4,0,.7-.2c.2,0,.4-.4.4-.7s0-.6-.2-.7c-.2,0-.4-.3-.6-.3s-.5,0-.7.2c-.2,0-.3.4-.4.7,0,.3,0,.6.2.7Z" fill="#1b2327"/><path id="ee" d="M200.52,510.17c.4,0,.7,0,.8.3s0,.3,0,.5v.5s0,.2-.2.3c-.1,0-.3,0-.6.2h-.6l.2,2.6v.6s-.1.2-.3.3h-1c-.1,0-.2,0-.3-.2s0-.2-.1-.3v-.3l-.2-2.6h-1.8l.2,2.6v.6s-.1.2-.3.3-.3,0-.5,0h-.5c-.1,0-.2,0-.3-.2s0-.2-.1-.3v-.3l-.2-2.6h-.8c-.1,0-.2-.3-.2-.6v-.6s0-.2.1-.3c0,0,.2,0,.4-.2h.3v-.5c0-.5.1-1,.4-1.4.3-.4.8-.7,1.5-.7h.6c.2,0,.3.3.3.7s0,.5-.1.7c0,0-.2.2-.4.2h-.3c-.2,0-.4,0-.3.3v.5h1.7v-.5c0-.5.1-1,.4-1.4.3-.4.8-.7,1.5-.7h.6c.2,0,.3.3.3.7s0,.5-.1.7c0,0-.2.2-.4.2h-.3c-.2,0-.4,0-.3.3v.5h.7l.2.3v-.2h0Z" fill="#1b2327"/><path id="ef" d="M207.02,510.87c0,.4,0,.7-.1.9-.2.2-.4.4-.6.4l-2.3.5c0,.2.2.3.4.4h.7c.4,0,.7-.2.8-.3h0c.1-.2.3-.2.4-.2.2,0,.4,0,.6.3.1.2.2.3.2.4.1.6-.5,1-1.9,1.3h-1.3c-.4,0-.7-.2-1-.5-.5-.4-.8-1-1-1.6-.2-.8,0-1.5.4-2.1s1-1,1.8-1.1c.9-.2,1.6,0,2.1.5s.5.6.5,1h.3v.1h0ZM205.12,511.57c.2,0,.3-.2.3-.4s-.1-.3-.2-.3h-.5c-.2,0-.4.2-.6.4-.2.2-.2.4-.2.6l1.2-.2h0v-.1Z" fill="#1b2327"/><path id="eg" d="M212.42,508.87c.2.4.2.7,0,.9s-.3.4-.5.5l-2.1.9c0,.2.2.3.5.3h.7c.4,0,.6-.3.8-.4h0c.1-.2.2-.3.3-.3.2,0,.4,0,.7.2.1,0,.2.3.3.4.2.5-.3,1.1-1.6,1.6-.4.2-.9.3-1.3.3s-.8,0-1.1-.3c-.6-.3-1-.8-1.2-1.4-.3-.8-.3-1.5,0-2.1s.8-1.1,1.6-1.4,1.6-.3,2.2,0c.3.2.6.5.7.9h0v-.2h0v.1h0ZM210.62,509.87c.2,0,.3-.2.2-.4l-.3-.3h-.5c-.2,0-.4.2-.5.5-.1.2-.2.4,0,.6l1.1-.5h0v.1h0Z" fill="#1b2327"/></g><path id="eh" d="M182.62,540.77c8.4,4.5,19.4,5.5,27.7.2l-1.5,1-1.6.8c-7.8,3.5-17.3,2.3-24.5-2h-.1,0Z"/></g></g></g><g id="ei"><circle id="ej" cx="860.68" cy="254.7" r="45.4" fill="#3fbdf1" stroke="#fff" stroke-miterlimit="7.3" stroke-width="6.1"/><path id="ek" d="M841.28,230.5c-.9,0-1.5.9-1.4,1.8l8.8,48.7c0,.9.9,1.5,1.8,1.5h0l26.5-3c.9,0,1.5-.9,1.4-1.8l-2.4-49.4c0-.9-.9-1.5-1.8-1.4l-32.9,3.8h0v-.2h0Z" fill="#fff"/><path id="el" d="M846.48,236.7c-.8,0-1.4.8-1.3,1.6h0l7.2,39.2c0,.8.9,1.3,1.6,1.1l19.5-2.3c.8,0,1.3-.8,1.3-1.5l-1.9-39.9c0-.8-.8-1.4-1.5-1.4h0l-24.8,2.9h0v.3h-.1Z" fill="#3fbdf1"/><path id="em" d="M851.08,248.3c-.4,0-.6-.3-.8-.6l-.4-3.5c0-.4.3-.6.6-.8l5.4-.6c.4,0,.6.3.8.6l.4,3.5c0,.4-.3.6-.6.8l-5.4.6Z" fill="#fff"/><path id="en" d="M862.98,249.1c-.4,0-.6.4-.6.8l.4,3.5c0,.4.4.6.8.6l5.4-.6c.4,0,.6-.4.6-.8l-.4-3.5c0-.4-.4-.6-.8-.6l-5.4.6Z" fill="#fff"/><path id="eo" d="M858.78,267c-.4,0-.6.4-.6.8l.4,3.5c0,.4.4.6.8.6l5.4-.6c.4,0,.6-.4.6-.8l-.4-3.5c0-.4-.4-.6-.8-.6l-5.4.6Z" fill="#fff"/><circle id="ep" cx="861.08" cy="234.2" r=".9" fill="#fff"/></g><g id="eq"><path id="er" d="M272.98,192.6h0c-22.2,0-42.6,11.8-53.6,30.9h0c-11.1,19.2-11.1,42.7,0,61.8h0c11.1,19.2,31.5,30.9,53.6,30.9h0c22.2,0,42.6-11.8,53.6-30.9h0c11.1-19.2,11.1-42.7,0-61.8h0c-11.1-19.2-31.5-30.9-53.6-30.9h0Z" fill="#3fbdf1" stroke="#fff" stroke-miterlimit="10" stroke-width="9"/><g id="es"><path id="et" d="M246.08,225.6c11.4-3.1,22.7-6.3,34.1-9.5,4.9,7.1,9,14.7,11.7,22.9,2.4,10.4,3.1,21.1,4.5,31.6.8,7,1.7,14,2.5,21-9.8,2.7-19.5,5.4-29.3,8.2-5.6-12.2-11-24.4-16.5-36.6-2.7-6.2-5.9-12.4-6.1-19.3-.3-5.9-.9-11.9-.9-17.8v-.4h0v-.1h0Z" fill="#fff"/><path id="eu" d="M256.88,262.4c8-2.3,16-4.4,24-6.7,3.3-.9,6.5-1.8,9.8-2.7,1.6,11.6,2.9,23.2,4.3,34.8-.5,1.1-2.8.9-3.9,1.5-6.6,1.8-13.1,3.6-19.7,5.5-2.4-5.7-5.1-11.4-7.6-17.1-2.3-5.1-4.6-10.3-6.9-15.4h0v.1h0ZM281.58,258.8c-.8,1.6,1.8,2,1.4.3-.2-.5-.9-.5-1.4-.3ZM263.88,265.3c-1.6,1,.9,3.1,1.6,1.3.4-.9-.8-1.9-1.6-1.3ZM267.98,266.1c-1.3,1.8,2.5,1.3.8,0-.2-.1-.5,0-.8,0ZM282.38,265.4c-2.1,1,1,3.4,1.5,1.2.3-.9-.8-1.4-1.5-1.2ZM288.18,265.5c-1.4,2.1,2.8,1.1.6-.1h-.6v.1ZM268.88,275.2c-1.4,1.6,2,1.6.9,0-.3-.2-.6-.1-.9,0ZM286.38,271c-1.3,2,2.7,1.5,1,0-.3-.2-.8-.2-1,0ZM271.28,283.1c-2.1,1.2.8,3.6,1.8,1.6.7-1.1-.7-2-1.8-1.6ZM282.58,280.5c-1.2,2.1,2.7,1.1.8-.2-.3,0-.6,0-.8.2ZM287.68,280.8c-1.8,1.2,1.1,3.6,1.9,1.5.5-1.1-.9-2.3-1.9-1.5Z" fill="#3fbdf1"/><path id="ev" d="M282.78,260.1c-1,.7-1.4-.3-1.2-1.3,1-.3,1.8.2,1.2,1.3Z" fill="#9fdef9"/><path id="ew" d="M265.08,267.1c-.5.3-1.2.2-1.5-.3s-.2-1.2.3-1.5,1.2-.2,1.5.3.2,1.2-.3,1.5Z" fill="#9fdef9"/><path id="ex" d="M268.88,267.3c-.3.2-.8.1-1-.2-.2-.3-.2-.8.2-1,.2-.2.5-.2.8,0,.2.1.4.4.4.6,0,.3-.1.5-.3.7h-.1v-.1Z" fill="#fff"/><path id="ey" d="M283.28,267.4c-1.6.4-2.4-1.2-1-2,1.4-.3,2.2.9,1,2Z" fill="#9fdef9"/><path id="ez" d="M289.08,266.7c-.3.3-.8.2-1.1-.2-.3-.4-.2-.8.2-1.1.3-.3.8-.2,1.1.2.3.3.2.8-.2,1.1Z" fill="#9fdef9"/><path id="fa" d="M269.68,276.5c-1.1.3-1.4-.4-.8-1.3,1.1-.3,1.5.4.8,1.3Z" fill="#fff"/><path id="fb" d="M287.48,272.3c-.3.3-.9.2-1.2,0-.3-.3-.3-.9,0-1.2.2-.2.5-.3.8-.2.3,0,.5.3.6.6,0,.3,0,.6-.3.8h.1Z" fill="#fff"/><path id="fc" d="M272.48,285.4c-1.7.5-2.7-1.1-1.2-2.2,1.8-.5,2.6,1.2,1.2,2.2Z" fill="#9fdef9"/><path id="fd" d="M283.58,281.7c-.3.3-.8.2-1.1,0-.3-.3-.2-.8,0-1.1.2-.2.5-.2.8-.2s.5.3.5.6,0,.6-.3.7h.1Z" fill="#fff"/><path id="fe" d="M262.98,206.3h2.5c.4.1.7.4.7.8l11.5,83.6c0,.4-.2.6-.6.6h-2.5c-.4-.1-.7-.4-.7-.8l-11.5-83.6c0-.4.2-.6.6-.6h0Z"/><path id="ff" d="M289.08,283c-.6.4-1.4.2-1.8-.3-.4-.6-.2-1.4.3-1.8.6-.4,1.4-.2,1.8.3.4.6.2,1.4-.3,1.8Z" fill="#9fdef9"/></g></g><g id="fg"><polygon id="fh" points="428.78 71.6 437.08 103.6 442.68 99.4 459.58 86.7 460.48 93.6 465.18 131.7 457.08 116.2 452.78 119.7 449.78 114.1 435.88 125 415.48 81.5 428.78 71.6" fill="#3fbdf1"/><polygon id="fi" points="449.78 114.1 431.28 128.6 408.28 79.3 427.18 65.2 437.08 103.6 459.58 86.7 467.08 147.1 449.78 114.1" fill="none" stroke="#000" stroke-miterlimit="6.6" stroke-width="3.4"/></g><polygon id="fj" points="541.68 203.7 558.78 186.8 568.68 233.5 552.68 210 538.58 224.4 516.88 188.8 531.28 174.7 541.68 203.7" fill="#fff"/><path id="fk" d="M78.68,16.4c0-2-.2-6.2.4-8,1.2,0,1.6-.2,2.5.3,1.1,1.7.5,5.3.5,7.7,2.4,0,5.9-.2,8.3.2.5,0,.8.7,1,1.2-.2,3.2-6.6,2.2-9.2,2.2,0,2.5.6,5.8-.8,7.4-.9,0-1,0-1.8-.4-1.2-1.6-.8-4.7-.7-7-2.6,0-8.6.8-10-1.3,0-1-.2-.5.4-1.5,1.9-1.2,6.9-.8,9.5-.7h-.1s0-.1,0-.1Z" fill="#3fbdf1"/><path id="fl" d="M33.38,400c0-2.9-.3-8.9.5-11.4,1.7-.2,2.3-.3,3.6.5,1.5,2.5.8,7.6.8,11,3.5,0,8.5-.3,11.9.2.8.2,1.1,1,1.5,1.7-.3,4.6-9.4,3.1-13.2,3.1,0,3.6.9,8.3-1.2,10.6-1.3,0-1.5,0-2.6-.5-1.8-2.3-1.1-6.8-1-10-3.7,0-12.4,1.2-14.4-1.9-.2-1.5-.2-.8.5-2.1,2.8-1.8,9.9-1.1,13.6-1h-.2l.2-.2h0Z" fill="#3fbdf1" isolation="isolate" opacity=".5"/><g id="fm"><path id="fn" d="M896.08,205.4c-7.2-3-15.9-5.3-24.1-3.4,7.6-5.7,18.6-8.6,27.4-6,3.5,1,5.3,4.8,3.9,7.2-1.3,2.4-4.7,3.3-7.2,2.2h0Z" fill="#3fbdf1"/><path id="fo" d="M330.08,154.2c-9,8.3-17.7,19.1-20.3,32-3.2-14.5-.3-31.9,9-42.7,3.7-4.3,10.2-4.4,12.8-1,2.4,3.8,1.7,8.7-1.5,11.7Z" fill="#3fbdf1" isolation="isolate" opacity=".8"/><path id="fp" d="M883.58,186.5c-5.3,3.4-10.8,8-13.8,14.1.5-7.4,4.1-15.7,9.9-20.2,2.3-1.8,5.3-1.4,6.1.5.7,1.9-.4,4.4-2.2,5.6h0Z" fill="#3fbdf1"/><path id="fq" d="M298.38,164.4c.1,7.3,1.4,15.3,5.8,20.9-7.2-3.2-13.4-10.3-14.4-18.6-.4-3.3,1.9-6.6,4.3-6.8,2.4,0,4.3,1.9,4.3,4.6h0v-.1h0Z" fill="#3fbdf1"/><path id="fr" d="M208.98,345.9c6.9-9.6,16.1-19.4,28.2-23.5-14.3-1.2-30.6,3.7-39.9,14-3.7,4.1-3,10.3.6,12.4,3.9,1.8,8.5.6,11-2.8h0l.1-.1h0Z" fill="#3fbdf1"/></g><path id="fs" d="M123.38,140.8c-3.5-10.9,1.3-20.9,12.8-23.5,9.7-.8,17.3,4.2,18.8,14.1,4.5-2.6,8.2-3.9,12.7.2,3.2,2.9,3.6,7.4,3.7,11.5,3.3-1.6,4.4-1.8,7.9-1.7,4.8,2.8,7.9,8.1,3.5,13.1-3.4,3.8-10.9,3.2-15.6,3.2h-37c-4.6,0-9.9.2-14.4-.2-2.7-.3-6.4-2-7.9-4.3-4.1-6.7.3-12.9,7.7-13.3,3.2-.2,4.8.1,7.8.9h0Z" fill="#3fbdf1" isolation="isolate" opacity=".3"/><path id="ft" d="M836.88,29.1c4.3-13.5-1.6-25.8-15.8-29-12-1-21.4,5.2-23.2,17.4-5.5-3.2-10.1-4.8-15.7.2-4,3.6-4.4,9.1-4.6,14.2-4.1-1.9-5.4-2.3-9.8-2.1-6,3.5-9.8,10-4.3,16.2,4.2,4.7,13.4,3.9,19.3,3.9h45.7c5.7,0,12.2.2,17.9-.2,3.3-.4,8-2.4,9.7-5.3,5.1-8.3-.4-15.9-9.5-16.4-4-.2-5.9,0-9.7,1.1h0Z" fill="#3fbdf1" isolation="isolate" opacity=".3"/><g id="fu"><rect id="fv" x="292.38" y="24.4" width="2.5" height="6.4" fill="#3fbdf1"/><rect id="fw" x="298.6" y="29.67" width="6.3" height="2.5" transform="translate(68.19 224.47) rotate(-45.5)" fill="#3fbdf1"/><rect id="fx" x="302.18" y="38" width="6.3" height="2.5" fill="#3fbdf1"/><rect id="fy" x="300.5" y="44.23" width="2.5" height="6.3" transform="translate(53.63 225.52) rotate(-44.6)" fill="#3fbdf1"/><rect id="fz" x="292.48" y="47.9" width="2.5" height="6.4" fill="#3fbdf1"/><rect id="ga" x="282.52" y="46.51" width="6.3" height="2.5" transform="translate(51.38 218.04) rotate(-45.5)" fill="#3fbdf1"/><rect id="gb" x="278.98" y="38.2" width="6.3" height="2.5" fill="#3fbdf1"/><rect id="gc" x="284.42" y="28.15" width="2.5" height="6.3" transform="translate(59.98 209.2) rotate(-44.5)" fill="#3fbdf1"/></g><g id="gd"><rect id="ge" x="710.28" y="175.73" width="2.5" height="6.4" fill="#fff"/><rect id="gf" x="716.49" y="180.84" width="6.3" height="2.5" transform="translate(85.36 567.75) rotate(-45.5)" fill="#fff"/><rect id="gg" x="720.08" y="189.43" width="6.3" height="2.5" fill="#fff"/><rect id="gh" x="718.9" y="196.55" width="2.5" height="6.3" transform="translate(66.53 562.03) rotate(-44.5)" fill="#fff"/><rect id="gi" x="710.38" y="199.33" width="2.5" height="6.4" fill="#fff"/><rect id="gj" x="700.09" y="197.62" width="6.3" height="2.5" transform="translate(68.49 561.06) rotate(-45.5)" fill="#fff"/><rect id="gk" x="696.88" y="189.53" width="6.3" height="2.5" fill="#fff"/><rect id="gl" x="702.36" y="179.88" width="2.5" height="6.3" transform="translate(73.47 545.65) rotate(-44.5)" fill="#fff"/></g><g id="gm"><rect id="gn" x="881.98" y="81.9" width="2.5" height="6.4" fill="#3fbdf1"/><rect id="go" x="887.93" y="86.85" width="6.3" height="2.5" transform="translate(203.68 661.91) rotate(-45.5)" fill="#3fbdf1"/><rect id="gp" x="891.78" y="95.6" width="6.3" height="2.5" fill="#3fbdf1"/><rect id="gq" x="890.71" y="102.71" width="2.5" height="6.3" transform="translate(181.57 655.54) rotate(-44.5)" fill="#3fbdf1"/><rect id="gr" x="882.08" y="105.5" width="2.5" height="6.4" fill="#3fbdf1"/><rect id="gs" x="871.56" y="103.65" width="6.3" height="2.5" transform="translate(186.8 655.26) rotate(-45.5)" fill="#3fbdf1"/><rect id="gt" x="868.48" y="95.7" width="6.3" height="2.5" fill="#3fbdf1"/><rect id="gu" x="874.2" y="86.12" width="2.5" height="6.3" transform="translate(188.47 639.21) rotate(-44.5)" fill="#3fbdf1"/></g><g id="gv"><path id="gw" d="M700.32,63.28s13.62,1.48,19.27,8.36c5.55,6.9.25,12.69-1.24,13.76-1.39,1.05-7.54,4.58-13.43-1.11-5.73-5.93-.21-12.49-4.56-20.81h0l-.05-.19h0Z" fill="#3fbdf1"/><path id="gx" d="M709.07,72.81c1.61-.59,3.19-1.28,3.25-2.32,1.71.72,3.42,1.86,4.55,3.13,3.57,4.19.33,7.84-.8,8.72-1.13.89-4.83,3-8.39-.67-2.04-2.08-1.85-4.29-1.65-6.91.4-.92,1.83-1.36,3.13-1.98l-.19.05h0l.1-.02h0Z" fill="#fff" isolation="isolate" opacity=".8"/><path id="gy" d="M709.19,73.3c.89-1.45,1.85-3.01,3.11-2.9,1.74.82,3.62,1.81,4.69,3.3,3.57,4.19.16,7.98-.8,8.72s-4.83,3-8.39-.67c-1.63-1.67-1.73-3.39-1.76-5.23,1.28.21,2.22-1.46,3.21-2.92h0l-.24-.15.19-.05-.02-.1h.01Z" fill="#fff" isolation="isolate" opacity=".4"/><path id="gz" d="M709.19,73.3c.89-1.45,1.85-3.01,3.11-2.9,1.74.82,3.62,1.81,4.69,3.3,3.57,4.19.16,7.98-.8,8.72s-4.83,3-8.39-.67c-1.63-1.67-1.73-3.39-1.76-5.23,1.28.21,2.22-1.46,3.21-2.92h0l-.24-.15.19-.05-.02-.1h.01Z" fill="#fff" isolation="isolate" opacity=".6"/></g><g id="ha"><circle id="hb" cx="85.28" cy="272.5" r="19.3" fill="#3fbdf1" isolation="isolate" opacity=".7" stroke="#9fdef9" stroke-miterlimit="8.9" stroke-width="4"/><circle id="hc" cx="80.38" cy="268.5" r="6.9" fill="#fff" isolation="isolate"/></g><path id="hd" d="M652.98,884h224.3M23.88,879.5l324.9,1.4M597.28,274.9s-.3,9.1,9.4,13M556.78,296.3l10.1-6.2c.9-.9,1.4-2.1,1.4-3.4v-5.8c0-2.2,1.5-4.2,3.7-4.7,6.2-1.3,12.1-3.5,17.7-6.4,3.8-2.1,6.9-4.8,8.3-8,4.1-9.5,11.4-17.1,20.7-21.6,3.9-1.8,8.1-3.1,12.3-3.7,9.2-1.5,20.7-.8,35.1,3.7,2,.6,3.9,1.4,5.8,2.1l8.5,3.6c9.5,3.8,18,9.8,24.8,17.6,4.5,5.1,7.8,11.2,9.8,17.7,7.5,25.7-.7,58.3-23.8,73.7-12,8-27.1,10.2-41.2,9.5M717.48,304.1c16.7,0,37.2,8,47.3,13.8,20.2,11.6,33.6,34.2,37.5,56.7,2.2,12.5,2.6,25.3,4.7,37.9,5.3,31.4,22,59.1,42.2,83.1,10.3,12,21.2,23.3,32.7,34.1,11.9,11.3,23.3,20.7,31,35.4,10,19.2,13.2,46.2.6,65-10.2,15.2-29.1,19.8-46.5,16.7-19.6-3.6-34.3-15.6-44.5-32.3s-14.5-35.3-19.6-54.1l-17-62.3c-8.5-31.1-20.7-62.3-24.5-94.5-.5-4.4-.9-8.9-1.2-13.5,0-1-.2-2.1-.3-3.1-1.6-14-6.4-27.5-14-39.4-3.7-6-8.1-11.5-13-16.5-5.1-5.2-11.9-7.8-17.6-12.1M630.98,236.5s-16,11.7-9.3,31.7c2.4,7.2,7.4,11.8,13.7,15.8,6,3.8,9.8,8.7,7.4,16.1-2.5,7.5-9.9,11.3-.8,16.9,6.9,4.3,18.1,3.1,21.1,11.4,5.7,15.6-18.4,20-13.2,36M431.88,266.7c2.7,4.6,4.5,10.2,3.8,15.6-.6,4.4-3.3,8.7-7.3,10.5-2.9,1.4-6.3,1.1-8.9-.7-1.5-1.3-2.7-3-3.3-5-2.3-6-2.3-12.8-2-19.2,0,4.3.3,8.6-1.3,12.7-.9,2.5-2.5,4.6-4.6,6.1-2.2,1.5-4.9,1.9-7.4,1.1-3.5-1.2-5.5-4.9-6.1-8.5s-.2-7.3-.4-11c-.1,4.4-.3,9.1-2.7,12.8-1.3,2-3.3,3.6-5.6,3.6s-2.9-.6-4-1.6-1.9-2.3-2.5-3.6c-1.3-3.4-1.3-7.1,0-10.5.9-2.4,2.6-4.4,5-5.5,4.3-1.9,9.3.9,10,5.5,1.2-2.8,3.6-4.9,6.4-5.9,2.9-.9,6-.8,8.8.3,1.2.4,2.4,1.1,3.3,2.1s1.3,2.3,1.1,3.6c1.8-6.1,8.6-9.1,14.3-6.4,2.4,1,3.6,3.8,4.7,6.1,0-1.5,2.7-3.9,3.9-4.5,7-3.5,15.5,2.5,18.9,8.4M435.58,282.8c-.3,6.5,4.8,14.1,13.4,11,3.5-1.3,6.2-4.2,7.3-7.9,1.2-3.9,1.6-9.2-.5-13-.2-.5-.5-.9-.8-1.3,0,0-.2-.2-.2-.3M379.88,270.4h-9.2c-8.4,0-15.2,6.8-15.2,15.2v27.4c0,8.4,6.8,15.3,15.3,15.3h51.5c8,0,11.8,1.2,17.1-5.2,5.5-6.6,12-13.4,21.4-12.7,10.3.8,6.9,9.6,1,17.9-4.4,6.2-10.3,12.2-12.6,13.8-7.8,5.7-16.6,10-25.8,12.7-8.4,2.6-14.3,10-15.1,18.7-2.5,28.6.2,57.5,8.2,85.1M589.58,269.8s-5-39.7,30.6-43.4c40.5-4.1,75.6,28.3,75.6,28.3M455.38,271.4c3.6.3,7.1.9,10.6,1.6l90.7,21.7v13.9c0,1.5-1.1,2.8-2.6,3.1l-92.4,16.6M519.88,841.3l21.26-7.49c1.46.54,0,0,0,0M453.58,828.3c18.7,2.1,39.9,6.4,61.5,11.8l4.8,1.2h0c17.2,4.4,34.7,9.5,51.7,14.7,26,8.1,50.5,16.6,70.1,23.8,4,1.4,7.8,2.9,11.4,4.1,12.8,4.8,23.3,14.4,29.1,26.9,4.6,10,9.1,29.6,1.1,39-5.2,6.2-14.5,6.9-20.4,1.3-9.5-8.8-76.8-45.4-227.4-54.1-109.6-6.4-119.8-38.7-117.1-55.8M622.48,349.4s-21.1,22.4-57,2.8-10.2-40.8-10.2-40.8M594.48,429.9l-18.5-73M579.08,374.1c-2.9,9.7-4.8,20.2-4.3,30.4.5,9.8,5,21.8,14.5,26.2,5.9,2.7,12.9,2,18.9-.5,20.5-8.5,39.3-29.2,48.9-48.8l-7.6-18.2M362.28,325.8c-24.8,65.4-25.9,136-21.7,181.3,3.2,34.5,37.6,57.1,70.5,46.5l115.3-36.5M579.08,374.1s-143.5,40.9-180.9,104.3M588.48,692.5c17.7-15.6,93-86.6,72.2-150.9-23.5-72.8-4.1-92.2-4.1-92.2M755.18,449.4s103.8,207-111.7,275.1M641.68,879.8h0c11.1,1,22.3,1.3,33.4.8,30-1.1,57-15.1,79.1-38.6,69.5-73.8,90.3-240.7,1-392.4v-.2c-19.6-33.3-58.2-58-98.8-69.8M690.78,751.9l-47.3-27.5-55.1-32-29.3-17.1-47.2-27.4c-32.8-17.7-73.1-12.7-100.6,12.4l-171,172.3c-2.5,2.5-5.8,4.2-9.3,4.6l-79.9,11.1c-8.3,1.3-14.3,8.8-13.7,17.2s7.5,15,15.9,15.1h93.8c2.9,0,5.8-.8,8.3-2.3l62.7-37.2,109.1-64.6c14.7-8.7,32-7.5,46.2,1.6,8.6,5.5,15.3,13.7,22.8,20.6,21,19.2,44.1,36,68.9,50,9.3,5.2,18.8,10,28.5,14.5M559.08,675.4c-1.7-39.3-9.6-86-27.4-141.1-9.8-30.3-14.4-55.2-14.9-75.6" fill="none" stroke="#000" stroke-miterlimit="10.3" stroke-width="5.3"/></g></svg>